{
    "asset" : {
        "generator" : "Khronos glTF Blender I/O v1.3.48",
        "version" : "2.0"
    },
    "scene" : 0,
    "scenes" : [
        {
            "name" : "Scene",
            "nodes" : [
                0
            ]
        }
    ],
    "nodes" : [
        {
            "mesh" : 0,
            "name" : "suit"
        }
    ],
    "materials" : [
        {
            "doubleSided" : true,
            "emissiveFactor" : [
                0,
                0,
                0
            ],
            "name" : "coat",
            "pbrMetallicRoughness" : {
                "baseColorFactor" : [
                    0.01465725339949131,
                    0.01465725339949131,
                    0.01465725339949131,
                    1
                ],
                "metallicFactor" : 0,
                "roughnessFactor" : 0.800000011920929
            }
        },
        {
            "doubleSided" : true,
            "emissiveFactor" : [
                0,
                0,
                0
            ],
            "name" : "tie",
            "pbrMetallicRoughness" : {
                "baseColorFactor" : [
                    0.04295482486486435,
                    0.07508362829685211,
                    0.12366747111082077,
                    1
                ],
                "metallicFactor" : 0,
                "roughnessFactor" : 0.800000011920929
            }
        },
        {
            "doubleSided" : true,
            "emissiveFactor" : [
                0,
                0,
                0
            ],
            "name" : "shirt2",
            "pbrMetallicRoughness" : {
                "baseColorFactor" : [
                    0.800000011920929,
                    0.800000011920929,
                    0.800000011920929,
                    1
                ],
                "metallicFactor" : 0,
                "roughnessFactor" : 0.800000011920929
            }
        }
    ],
    "meshes" : [
        {
            "name" : "Cube.011",
            "primitives" : [
                {
                    "attributes" : {
                        "POSITION" : 0,
                        "NORMAL" : 1
                    },
                    "indices" : 2,
                    "material" : 0
                },
                {
                    "attributes" : {
                        "POSITION" : 3,
                        "NORMAL" : 4
                    },
                    "indices" : 5,
                    "material" : 1
                },
                {
                    "attributes" : {
                        "POSITION" : 6,
                        "NORMAL" : 7
                    },
                    "indices" : 8,
                    "material" : 2
                }
            ]
        }
    ],
    "accessors" : [
        {
            "bufferView" : 0,
            "componentType" : 5126,
            "count" : 1901,
            "max" : [
                0.7016823291778564,
                0.8376046419143677,
                0.7210931777954102
            ],
            "min" : [
                -0.7016823291778564,
                -0.6654351949691772,
                -0.7014779448509216
            ],
            "type" : "VEC3"
        },
        {
            "bufferView" : 1,
            "componentType" : 5126,
            "count" : 1901,
            "type" : "VEC3"
        },
        {
            "bufferView" : 2,
            "componentType" : 5123,
            "count" : 8124,
            "type" : "SCALAR"
        },
        {
            "bufferView" : 3,
            "componentType" : 5126,
            "count" : 131,
            "max" : [
                0.08410628885030746,
                0.6978617310523987,
                0.7048913836479187
            ],
            "min" : [
                -0.08410628885030746,
                0.16844378411769867,
                0.3908023536205292
            ],
            "type" : "VEC3"
        },
        {
            "bufferView" : 4,
            "componentType" : 5126,
            "count" : 131,
            "type" : "VEC3"
        },
        {
            "bufferView" : 5,
            "componentType" : 5123,
            "count" : 576,
            "type" : "SCALAR"
        },
        {
            "bufferView" : 6,
            "componentType" : 5126,
            "count" : 412,
            "max" : [
                0.3484543561935425,
                0.8376046419143677,
                0.6568785309791565
            ],
            "min" : [
                -0.3484543561935425,
                0.20917357504367828,
                -0.23675094544887543
            ],
            "type" : "VEC3"
        },
        {
            "bufferView" : 7,
            "componentType" : 5126,
            "count" : 412,
            "type" : "VEC3"
        },
        {
            "bufferView" : 8,
            "componentType" : 5123,
            "count" : 1932,
            "type" : "SCALAR"
        }
    ],
    "bufferViews" : [
        {
            "buffer" : 0,
            "byteLength" : 22812,
            "byteOffset" : 0
        },
        {
            "buffer" : 0,
            "byteLength" : 22812,
            "byteOffset" : 22812
        },
        {
            "buffer" : 0,
            "byteLength" : 16248,
            "byteOffset" : 45624
        },
        {
            "buffer" : 0,
            "byteLength" : 1572,
            "byteOffset" : 61872
        },
        {
            "buffer" : 0,
            "byteLength" : 1572,
            "byteOffset" : 63444
        },
        {
            "buffer" : 0,
            "byteLength" : 1152,
            "byteOffset" : 65016
        },
        {
            "buffer" : 0,
            "byteLength" : 4944,
            "byteOffset" : 66168
        },
        {
            "buffer" : 0,
            "byteLength" : 4944,
            "byteOffset" : 71112
        },
        {
            "buffer" : 0,
            "byteLength" : 3864,
            "byteOffset" : 76056
        }
    ],
    "buffers" : [
        {
            "byteLength" : 79920,
            "uri" : "data:application/octet-stream;base64,"
        }
    ]
}
