{
    "asset" : {
        "generator" : "Khronos glTF Blender I/O v1.3.48",
        "version" : "2.0"
    },
    "scene" : 0,
    "scenes" : [
        {
            "name" : "Scene",
            "nodes" : [
                0
            ]
        }
    ],
    "nodes" : [
        {
            "mesh" : 0,
            "name" : "clown_cloth"
        }
    ],
    "materials" : [
        {
            "doubleSided" : true,
            "emissiveFactor" : [
                0,
                0,
                0
            ],
            "name" : "cloth_red",
            "pbrMetallicRoughness" : {
                "baseColorFactor" : [
                    0.7872158288955688,
                    0.02702913247048855,
                    0.023965099826455116,
                    1
                ],
                "metallicFactor" : 0,
                "roughnessFactor" : 0.800000011920929
            }
        },
        {
            "doubleSided" : true,
            "emissiveFactor" : [
                0,
                0,
                0
            ],
            "name" : "cloth_blue",
            "pbrMetallicRoughness" : {
                "baseColorFactor" : [
                    0.12743771076202393,
                    0.24228115379810333,
                    0.34191441535949707,
                    1
                ],
                "metallicFactor" : 0,
                "roughnessFactor" : 0.800000011920929
            }
        },
        {
            "doubleSided" : true,
            "emissiveFactor" : [
                0,
                0,
                0
            ],
            "name" : "cloth_yellow",
            "pbrMetallicRoughness" : {
                "baseColorFactor" : [
                    0.7872158288955688,
                    0.5301061272621155,
                    0.05284643545746803,
                    1
                ],
                "metallicFactor" : 0,
                "roughnessFactor" : 0.800000011920929
            }
        }
    ],
    "meshes" : [
        {
            "name" : "clown_cloth",
            "primitives" : [
                {
                    "attributes" : {
                        "POSITION" : 0,
                        "NORMAL" : 1
                    },
                    "indices" : 2,
                    "material" : 0
                },
                {
                    "attributes" : {
                        "POSITION" : 3,
                        "NORMAL" : 4
                    },
                    "indices" : 5,
                    "material" : 1
                },
                {
                    "attributes" : {
                        "POSITION" : 6,
                        "NORMAL" : 7
                    },
                    "indices" : 8,
                    "material" : 2
                }
            ]
        }
    ],
    "accessors" : [
        {
            "bufferView" : 0,
            "componentType" : 5126,
            "count" : 429,
            "max" : [
                0.7149704694747925,
                1.7133748531341553,
                1.277578592300415
            ],
            "min" : [
                -0.15992195904254913,
                -0.6758643388748169,
                -0.6751790642738342
            ],
            "type" : "VEC3"
        },
        {
            "bufferView" : 1,
            "componentType" : 5126,
            "count" : 429,
            "type" : "VEC3"
        },
        {
            "bufferView" : 2,
            "componentType" : 5123,
            "count" : 2304,
            "type" : "SCALAR"
        },
        {
            "bufferView" : 3,
            "componentType" : 5126,
            "count" : 1209,
            "max" : [
                0.715040385723114,
                0.7594809532165527,
                0.8014944791793823
            ],
            "min" : [
                -0.715040385723114,
                -0.7061067223548889,
                -0.5143522024154663
            ],
            "type" : "VEC3"
        },
        {
            "bufferView" : 4,
            "componentType" : 5126,
            "count" : 1209,
            "type" : "VEC3"
        },
        {
            "bufferView" : 5,
            "componentType" : 5123,
            "count" : 6912,
            "type" : "SCALAR"
        },
        {
            "bufferView" : 6,
            "componentType" : 5126,
            "count" : 331,
            "max" : [
                2.9685907065868378e-09,
                0.6507351994514465,
                0.697158694267273
            ],
            "min" : [
                -0.7149704694747925,
                -0.6758642792701721,
                -0.6751790642738342
            ],
            "type" : "VEC3"
        },
        {
            "bufferView" : 7,
            "componentType" : 5126,
            "count" : 331,
            "type" : "VEC3"
        },
        {
            "bufferView" : 8,
            "componentType" : 5123,
            "count" : 1728,
            "type" : "SCALAR"
        }
    ],
    "bufferViews" : [
        {
            "buffer" : 0,
            "byteLength" : 5148,
            "byteOffset" : 0
        },
        {
            "buffer" : 0,
            "byteLength" : 5148,
            "byteOffset" : 5148
        },
        {
            "buffer" : 0,
            "byteLength" : 4608,
            "byteOffset" : 10296
        },
        {
            "buffer" : 0,
            "byteLength" : 14508,
            "byteOffset" : 14904
        },
        {
            "buffer" : 0,
            "byteLength" : 14508,
            "byteOffset" : 29412
        },
        {
            "buffer" : 0,
            "byteLength" : 13824,
            "byteOffset" : 43920
        },
        {
            "buffer" : 0,
            "byteLength" : 3972,
            "byteOffset" : 57744
        },
        {
            "buffer" : 0,
            "byteLength" : 3972,
            "byteOffset" : 61716
        },
        {
            "buffer" : 0,
            "byteLength" : 3456,
            "byteOffset" : 65688
        }
    ],
    "buffers" : [
        {
            "byteLength" : 69144,
            "uri" : "data:application/octet-stream;base64,"
        }
    ]
}
