{
    "asset" : {
        "generator" : "Khronos glTF Blender I/O v1.3.48",
        "version" : "2.0"
    },
    "scene" : 0,
    "scenes" : [
        {
            "name" : "Scene",
            "nodes" : [
                0
            ]
        }
    ],
    "nodes" : [
        {
            "mesh" : 0,
            "name" : "perons6_suit"
        }
    ],
    "materials" : [
        {
            "doubleSided" : true,
            "emissiveFactor" : [
                0,
                0,
                0
            ],
            "name" : "coat2.001",
            "pbrMetallicRoughness" : {
                "baseColorFactor" : [
                    0.12367237359285355,
                    0.16081349551677704,
                    0.24602100253105164,
                    1
                ],
                "metallicFactor" : 0,
                "roughnessFactor" : 0.800000011920929
            }
        },
        {
            "doubleSided" : true,
            "emissiveFactor" : [
                0,
                0,
                0
            ],
            "name" : "shirt2.008",
            "pbrMetallicRoughness" : {
                "baseColorFactor" : [
                    0.800000011920929,
                    0.800000011920929,
                    0.800000011920929,
                    1
                ],
                "metallicFactor" : 0,
                "roughnessFactor" : 0.800000011920929
            }
        }
    ],
    "meshes" : [
        {
            "name" : "perons6_suit",
            "primitives" : [
                {
                    "attributes" : {
                        "POSITION" : 0,
                        "NORMAL" : 1
                    },
                    "indices" : 2,
                    "material" : 0
                },
                {
                    "attributes" : {
                        "POSITION" : 3,
                        "NORMAL" : 4
                    },
                    "indices" : 5,
                    "material" : 1
                }
            ]
        }
    ],
    "accessors" : [
        {
            "bufferView" : 0,
            "componentType" : 5126,
            "count" : 1824,
            "max" : [
                0.7016823291778564,
                0.8376046419143677,
                0.7003422975540161
            ],
            "min" : [
                -0.7016823291778564,
                -0.6654351949691772,
                -0.7014779448509216
            ],
            "type" : "VEC3"
        },
        {
            "bufferView" : 1,
            "componentType" : 5126,
            "count" : 1824,
            "type" : "VEC3"
        },
        {
            "bufferView" : 2,
            "componentType" : 5123,
            "count" : 7980,
            "type" : "SCALAR"
        },
        {
            "bufferView" : 3,
            "componentType" : 5126,
            "count" : 464,
            "max" : [
                0.3484543561935425,
                0.8376046419143677,
                0.6699543595314026
            ],
            "min" : [
                -0.3484543561935425,
                -0.04956221580505371,
                -0.23675094544887543
            ],
            "type" : "VEC3"
        },
        {
            "bufferView" : 4,
            "componentType" : 5126,
            "count" : 464,
            "type" : "VEC3"
        },
        {
            "bufferView" : 5,
            "componentType" : 5123,
            "count" : 2316,
            "type" : "SCALAR"
        }
    ],
    "bufferViews" : [
        {
            "buffer" : 0,
            "byteLength" : 21888,
            "byteOffset" : 0
        },
        {
            "buffer" : 0,
            "byteLength" : 21888,
            "byteOffset" : 21888
        },
        {
            "buffer" : 0,
            "byteLength" : 15960,
            "byteOffset" : 43776
        },
        {
            "buffer" : 0,
            "byteLength" : 5568,
            "byteOffset" : 59736
        },
        {
            "buffer" : 0,
            "byteLength" : 5568,
            "byteOffset" : 65304
        },
        {
            "buffer" : 0,
            "byteLength" : 4632,
            "byteOffset" : 70872
        }
    ],
    "buffers" : [
        {
            "byteLength" : 75504,
            "uri" : "data:application/octet-stream;base64,"
        }
    ]
}
