{
    "asset" : {
        "generator" : "Khronos glTF Blender I/O v1.3.48",
        "version" : "2.0"
    },
    "scene" : 0,
    "scenes" : [
        {
            "name" : "Scene",
            "nodes" : [
                0
            ]
        }
    ],
    "nodes" : [
        {
            "mesh" : 0,
            "name" : "samurai_armor"
        }
    ],
    "materials" : [
        {
            "doubleSided" : true,
            "emissiveFactor" : [
                0,
                0,
                0
            ],
            "name" : "cloth_maroon",
            "pbrMetallicRoughness" : {
                "baseColorFactor" : [
                    0.14720870554447174,
                    0.02083580382168293,
                    0.027781808748841286,
                    1
                ],
                "metallicFactor" : 0,
                "roughnessFactor" : 0.800000011920929
            }
        },
        {
            "doubleSided" : true,
            "emissiveFactor" : [
                0,
                0,
                0
            ],
            "name" : "cloth_brown",
            "pbrMetallicRoughness" : {
                "baseColorFactor" : [
                    0.09842080622911453,
                    0.03651238977909088,
                    0.03094581514596939,
                    1
                ],
                "metallicFactor" : 0,
                "roughnessFactor" : 0.800000011920929
            }
        },
        {
            "doubleSided" : true,
            "emissiveFactor" : [
                0,
                0,
                0
            ],
            "name" : "cloth_gold",
            "pbrMetallicRoughness" : {
                "baseColorFactor" : [
                    0.7872158288955688,
                    0.30962541699409485,
                    0.06967242062091827,
                    1
                ],
                "metallicFactor" : 0,
                "roughnessFactor" : 0.800000011920929
            }
        },
        {
            "doubleSided" : true,
            "emissiveFactor" : [
                0,
                0,
                0
            ],
            "name" : "cloth_white",
            "pbrMetallicRoughness" : {
                "baseColorFactor" : [
                    1,
                    1,
                    1,
                    1
                ],
                "metallicFactor" : 0,
                "roughnessFactor" : 0.800000011920929
            }
        }
    ],
    "meshes" : [
        {
            "name" : "samurai_armor",
            "primitives" : [
                {
                    "attributes" : {
                        "POSITION" : 0,
                        "NORMAL" : 1
                    },
                    "indices" : 2,
                    "material" : 0
                },
                {
                    "attributes" : {
                        "POSITION" : 3,
                        "NORMAL" : 4
                    },
                    "indices" : 5,
                    "material" : 1
                },
                {
                    "attributes" : {
                        "POSITION" : 6,
                        "NORMAL" : 7
                    },
                    "indices" : 8,
                    "material" : 2
                },
                {
                    "attributes" : {
                        "POSITION" : 9,
                        "NORMAL" : 10
                    },
                    "indices" : 11,
                    "material" : 3
                }
            ]
        }
    ],
    "accessors" : [
        {
            "bufferView" : 0,
            "componentType" : 5126,
            "count" : 4946,
            "max" : [
                1.5090113878250122,
                2.7658681869506836,
                1.2097525596618652
            ],
            "min" : [
                -1.5090113878250122,
                -0.5579961538314819,
                -0.8259474635124207
            ],
            "type" : "VEC3"
        },
        {
            "bufferView" : 1,
            "componentType" : 5126,
            "count" : 4946,
            "type" : "VEC3"
        },
        {
            "bufferView" : 2,
            "componentType" : 5123,
            "count" : 25032,
            "type" : "SCALAR"
        },
        {
            "bufferView" : 3,
            "componentType" : 5126,
            "count" : 546,
            "max" : [
                0.7662004828453064,
                1.9171744585037231,
                0.9275115728378296
            ],
            "min" : [
                -0.7662004828453064,
                -0.16208070516586304,
                -0.7662004232406616
            ],
            "type" : "VEC3"
        },
        {
            "bufferView" : 4,
            "componentType" : 5126,
            "count" : 546,
            "type" : "VEC3"
        },
        {
            "bufferView" : 5,
            "componentType" : 5123,
            "count" : 2640,
            "type" : "SCALAR"
        },
        {
            "bufferView" : 6,
            "componentType" : 5126,
            "count" : 218,
            "max" : [
                1.0870940685272217,
                3.278266429901123,
                0.6867111921310425
            ],
            "min" : [
                -1.0870940685272217,
                2.5326638221740723,
                0.04526370018720627
            ],
            "type" : "VEC3"
        },
        {
            "bufferView" : 7,
            "componentType" : 5126,
            "count" : 218,
            "type" : "VEC3"
        },
        {
            "bufferView" : 8,
            "componentType" : 5123,
            "count" : 744,
            "type" : "SCALAR"
        },
        {
            "bufferView" : 9,
            "componentType" : 5126,
            "count" : 2560,
            "max" : [
                0.8752381205558777,
                0.5715541839599609,
                0.8267044425010681
            ],
            "min" : [
                -0.8752381205558777,
                -0.6228580474853516,
                -0.8267044425010681
            ],
            "type" : "VEC3"
        },
        {
            "bufferView" : 10,
            "componentType" : 5126,
            "count" : 2560,
            "type" : "VEC3"
        },
        {
            "bufferView" : 11,
            "componentType" : 5123,
            "count" : 9600,
            "type" : "SCALAR"
        }
    ],
    "bufferViews" : [
        {
            "buffer" : 0,
            "byteLength" : 59352,
            "byteOffset" : 0
        },
        {
            "buffer" : 0,
            "byteLength" : 59352,
            "byteOffset" : 59352
        },
        {
            "buffer" : 0,
            "byteLength" : 50064,
            "byteOffset" : 118704
        },
        {
            "buffer" : 0,
            "byteLength" : 6552,
            "byteOffset" : 168768
        },
        {
            "buffer" : 0,
            "byteLength" : 6552,
            "byteOffset" : 175320
        },
        {
            "buffer" : 0,
            "byteLength" : 5280,
            "byteOffset" : 181872
        },
        {
            "buffer" : 0,
            "byteLength" : 2616,
            "byteOffset" : 187152
        },
        {
            "buffer" : 0,
            "byteLength" : 2616,
            "byteOffset" : 189768
        },
        {
            "buffer" : 0,
            "byteLength" : 1488,
            "byteOffset" : 192384
        },
        {
            "buffer" : 0,
            "byteLength" : 30720,
            "byteOffset" : 193872
        },
        {
            "buffer" : 0,
            "byteLength" : 30720,
            "byteOffset" : 224592
        },
        {
            "buffer" : 0,
            "byteLength" : 19200,
            "byteOffset" : 255312
        }
    ],
    "buffers" : [
        {
            "byteLength" : 274512,
            "uri" : "data:application/octet-stream;base64,"
        }
    ]
}
