{
    "asset" : {
        "generator" : "Khronos glTF Blender I/O v1.3.48",
        "version" : "2.0"
    },
    "scene" : 0,
    "scenes" : [
        {
            "name" : "Scene",
            "nodes" : [
                0
            ]
        }
    ],
    "nodes" : [
        {
            "mesh" : 0,
            "name" : "santa_cloth"
        }
    ],
    "materials" : [
        {
            "doubleSided" : true,
            "emissiveFactor" : [
                0,
                0,
                0
            ],
            "name" : "cloth_white",
            "pbrMetallicRoughness" : {
                "baseColorFactor" : [
                    1,
                    1,
                    1,
                    1
                ],
                "metallicFactor" : 0,
                "roughnessFactor" : 0.800000011920929
            }
        },
        {
            "doubleSided" : true,
            "emissiveFactor" : [
                0,
                0,
                0
            ],
            "name" : "cloth_red",
            "pbrMetallicRoughness" : {
                "baseColorFactor" : [
                    0.7872158288955688,
                    0.02702913247048855,
                    0.023965099826455116,
                    1
                ],
                "metallicFactor" : 0,
                "roughnessFactor" : 0.800000011920929
            }
        },
        {
            "doubleSided" : true,
            "emissiveFactor" : [
                0,
                0,
                0
            ],
            "name" : "cloth_yellow",
            "pbrMetallicRoughness" : {
                "baseColorFactor" : [
                    0.7872158288955688,
                    0.5301061272621155,
                    0.05284643545746803,
                    1
                ],
                "metallicFactor" : 0,
                "roughnessFactor" : 0.800000011920929
            }
        },
        {
            "doubleSided" : true,
            "emissiveFactor" : [
                0,
                0,
                0
            ],
            "name" : "cloth_black",
            "pbrMetallicRoughness" : {
                "baseColorFactor" : [
                    0.0055908081121742725,
                    0.0055908081121742725,
                    0.0055908081121742725,
                    1
                ],
                "metallicFactor" : 0,
                "roughnessFactor" : 0.800000011920929
            }
        }
    ],
    "meshes" : [
        {
            "name" : "santa_cloth",
            "primitives" : [
                {
                    "attributes" : {
                        "POSITION" : 0,
                        "NORMAL" : 1
                    },
                    "indices" : 2,
                    "material" : 0
                },
                {
                    "attributes" : {
                        "POSITION" : 3,
                        "NORMAL" : 4
                    },
                    "indices" : 5,
                    "material" : 1
                },
                {
                    "attributes" : {
                        "POSITION" : 6,
                        "NORMAL" : 7
                    },
                    "indices" : 8,
                    "material" : 2
                },
                {
                    "attributes" : {
                        "POSITION" : 9,
                        "NORMAL" : 10
                    },
                    "indices" : 11,
                    "material" : 3
                }
            ]
        }
    ],
    "accessors" : [
        {
            "bufferView" : 0,
            "componentType" : 5126,
            "count" : 852,
            "max" : [
                0.8033241629600525,
                0.8106025457382202,
                0.7398926615715027
            ],
            "min" : [
                -0.8033241629600525,
                -0.694776713848114,
                -0.7398926615715027
            ],
            "type" : "VEC3"
        },
        {
            "bufferView" : 1,
            "componentType" : 5126,
            "count" : 852,
            "type" : "VEC3"
        },
        {
            "bufferView" : 2,
            "componentType" : 5123,
            "count" : 4320,
            "type" : "SCALAR"
        },
        {
            "bufferView" : 3,
            "componentType" : 5126,
            "count" : 705,
            "max" : [
                0.6994693875312805,
                0.736912727355957,
                0.6982344388961792
            ],
            "min" : [
                -0.6994693875312805,
                -0.6629008650779724,
                -0.6982344388961792
            ],
            "type" : "VEC3"
        },
        {
            "bufferView" : 4,
            "componentType" : 5126,
            "count" : 705,
            "type" : "VEC3"
        },
        {
            "bufferView" : 5,
            "componentType" : 5123,
            "count" : 3744,
            "type" : "SCALAR"
        },
        {
            "bufferView" : 6,
            "componentType" : 5126,
            "count" : 272,
            "max" : [
                0.15245811641216278,
                0.26794251799583435,
                0.6881239414215088
            ],
            "min" : [
                -0.15245811641216278,
                0.04788297414779663,
                -0.6815756559371948
            ],
            "type" : "VEC3"
        },
        {
            "bufferView" : 7,
            "componentType" : 5126,
            "count" : 272,
            "type" : "VEC3"
        },
        {
            "bufferView" : 8,
            "componentType" : 5123,
            "count" : 1152,
            "type" : "SCALAR"
        },
        {
            "bufferView" : 9,
            "componentType" : 5126,
            "count" : 854,
            "max" : [
                0.6387578845024109,
                0.23220258951187134,
                0.6827325224876404
            ],
            "min" : [
                -0.6387578845024109,
                0.08519201725721359,
                -0.6663123369216919
            ],
            "type" : "VEC3"
        },
        {
            "bufferView" : 10,
            "componentType" : 5126,
            "count" : 854,
            "type" : "VEC3"
        },
        {
            "bufferView" : 11,
            "componentType" : 5123,
            "count" : 4800,
            "type" : "SCALAR"
        }
    ],
    "bufferViews" : [
        {
            "buffer" : 0,
            "byteLength" : 10224,
            "byteOffset" : 0
        },
        {
            "buffer" : 0,
            "byteLength" : 10224,
            "byteOffset" : 10224
        },
        {
            "buffer" : 0,
            "byteLength" : 8640,
            "byteOffset" : 20448
        },
        {
            "buffer" : 0,
            "byteLength" : 8460,
            "byteOffset" : 29088
        },
        {
            "buffer" : 0,
            "byteLength" : 8460,
            "byteOffset" : 37548
        },
        {
            "buffer" : 0,
            "byteLength" : 7488,
            "byteOffset" : 46008
        },
        {
            "buffer" : 0,
            "byteLength" : 3264,
            "byteOffset" : 53496
        },
        {
            "buffer" : 0,
            "byteLength" : 3264,
            "byteOffset" : 56760
        },
        {
            "buffer" : 0,
            "byteLength" : 2304,
            "byteOffset" : 60024
        },
        {
            "buffer" : 0,
            "byteLength" : 10248,
            "byteOffset" : 62328
        },
        {
            "buffer" : 0,
            "byteLength" : 10248,
            "byteOffset" : 72576
        },
        {
            "buffer" : 0,
            "byteLength" : 9600,
            "byteOffset" : 82824
        }
    ],
    "buffers" : [
        {
            "byteLength" : 92424,
            "uri" : "data:application/octet-stream;base64,"
        }
    ]
}
