{
    "asset" : {
        "generator" : "Khronos glTF Blender I/O v1.3.48",
        "version" : "2.0"
    },
    "scene" : 0,
    "scenes" : [
        {
            "name" : "Scene",
            "nodes" : [
                0
            ]
        }
    ],
    "nodes" : [
        {
            "mesh" : 0,
            "name" : "cloth_person9"
        }
    ],
    "materials" : [
        {
            "doubleSided" : true,
            "emissiveFactor" : [
                0,
                0,
                0
            ],
            "name" : "cloth_red2",
            "pbrMetallicRoughness" : {
                "baseColorFactor" : [
                    0.7872158288955688,
                    0.15509870648384094,
                    0.1380922943353653,
                    1
                ],
                "metallicFactor" : 0,
                "roughnessFactor" : 0.800000011920929
            }
        },
        {
            "doubleSided" : true,
            "emissiveFactor" : [
                0,
                0,
                0
            ],
            "name" : "sweater2",
            "pbrMetallicRoughness" : {
                "baseColorFactor" : [
                    0.8685237169265747,
                    0.829749584197998,
                    0.5986641049385071,
                    1
                ],
                "metallicFactor" : 0,
                "roughnessFactor" : 0.800000011920929
            }
        },
        {
            "doubleSided" : true,
            "emissiveFactor" : [
                0,
                0,
                0
            ],
            "name" : "coat.008",
            "pbrMetallicRoughness" : {
                "baseColorFactor" : [
                    0.01465725339949131,
                    0.01465725339949131,
                    0.01465725339949131,
                    1
                ],
                "metallicFactor" : 0,
                "roughnessFactor" : 0.800000011920929
            }
        }
    ],
    "meshes" : [
        {
            "name" : "cloth_person9",
            "primitives" : [
                {
                    "attributes" : {
                        "POSITION" : 0,
                        "NORMAL" : 1
                    },
                    "indices" : 2,
                    "material" : 0
                },
                {
                    "attributes" : {
                        "POSITION" : 3,
                        "NORMAL" : 4
                    },
                    "indices" : 5,
                    "material" : 1
                },
                {
                    "attributes" : {
                        "POSITION" : 6,
                        "NORMAL" : 7
                    },
                    "indices" : 8,
                    "material" : 2
                }
            ]
        }
    ],
    "accessors" : [
        {
            "bufferView" : 0,
            "componentType" : 5126,
            "count" : 1024,
            "max" : [
                0.49584317207336426,
                0.853446364402771,
                0.6834547519683838
            ],
            "min" : [
                -0.4498038589954376,
                0.20228219032287598,
                -0.4825476408004761
            ],
            "type" : "VEC3"
        },
        {
            "bufferView" : 1,
            "componentType" : 5126,
            "count" : 1024,
            "type" : "VEC3"
        },
        {
            "bufferView" : 2,
            "componentType" : 5123,
            "count" : 6144,
            "type" : "SCALAR"
        },
        {
            "bufferView" : 3,
            "componentType" : 5126,
            "count" : 772,
            "max" : [
                0.6796737909317017,
                0.762404203414917,
                0.6796737909317017
            ],
            "min" : [
                -0.6796737909317017,
                -0.05099307745695114,
                -0.6796737909317017
            ],
            "type" : "VEC3"
        },
        {
            "bufferView" : 4,
            "componentType" : 5126,
            "count" : 772,
            "type" : "VEC3"
        },
        {
            "bufferView" : 5,
            "componentType" : 5123,
            "count" : 4416,
            "type" : "SCALAR"
        },
        {
            "bufferView" : 6,
            "componentType" : 5126,
            "count" : 434,
            "max" : [
                0.6876212954521179,
                -0.046875275671482086,
                0.7003422379493713
            ],
            "min" : [
                -0.6876212954521179,
                -0.42971286177635193,
                -0.7003422379493713
            ],
            "type" : "VEC3"
        },
        {
            "bufferView" : 7,
            "componentType" : 5126,
            "count" : 434,
            "type" : "VEC3"
        },
        {
            "bufferView" : 8,
            "componentType" : 5123,
            "count" : 2304,
            "type" : "SCALAR"
        }
    ],
    "bufferViews" : [
        {
            "buffer" : 0,
            "byteLength" : 12288,
            "byteOffset" : 0
        },
        {
            "buffer" : 0,
            "byteLength" : 12288,
            "byteOffset" : 12288
        },
        {
            "buffer" : 0,
            "byteLength" : 12288,
            "byteOffset" : 24576
        },
        {
            "buffer" : 0,
            "byteLength" : 9264,
            "byteOffset" : 36864
        },
        {
            "buffer" : 0,
            "byteLength" : 9264,
            "byteOffset" : 46128
        },
        {
            "buffer" : 0,
            "byteLength" : 8832,
            "byteOffset" : 55392
        },
        {
            "buffer" : 0,
            "byteLength" : 5208,
            "byteOffset" : 64224
        },
        {
            "buffer" : 0,
            "byteLength" : 5208,
            "byteOffset" : 69432
        },
        {
            "buffer" : 0,
            "byteLength" : 4608,
            "byteOffset" : 74640
        }
    ],
    "buffers" : [
        {
            "byteLength" : 79248,
            "uri" : "data:application/octet-stream;base64,"
        }
    ]
}
