{
    "asset" : {
        "generator" : "Khronos glTF Blender I/O v1.3.48",
        "version" : "2.0"
    },
    "scene" : 0,
    "scenes" : [
        {
            "name" : "Scene",
            "nodes" : [
                0
            ]
        }
    ],
    "nodes" : [
        {
            "mesh" : 0,
            "name" : "cheongsam"
        }
    ],
    "materials" : [
        {
            "doubleSided" : true,
            "emissiveFactor" : [
                0,
                0,
                0
            ],
            "name" : "cheongsam.001",
            "pbrMetallicRoughness" : {
                "baseColorFactor" : [
                    0.3756698668003082,
                    0.02943507395684719,
                    0.022750595584511757,
                    1
                ],
                "metallicFactor" : 0,
                "roughnessFactor" : 0.800000011920929
            }
        },
        {
            "doubleSided" : true,
            "emissiveFactor" : [
                0,
                0,
                0
            ],
            "name" : "cheongsam2.001",
            "pbrMetallicRoughness" : {
                "baseColorFactor" : [
                    0.6150745749473572,
                    0.20652607083320618,
                    0.17965330183506012,
                    1
                ],
                "metallicFactor" : 0,
                "roughnessFactor" : 0.800000011920929
            }
        }
    ],
    "meshes" : [
        {
            "name" : "cheongsam",
            "primitives" : [
                {
                    "attributes" : {
                        "POSITION" : 0,
                        "NORMAL" : 1
                    },
                    "indices" : 2,
                    "material" : 0
                },
                {
                    "attributes" : {
                        "POSITION" : 3,
                        "NORMAL" : 4
                    },
                    "indices" : 5,
                    "material" : 1
                }
            ]
        }
    ],
    "accessors" : [
        {
            "bufferView" : 0,
            "componentType" : 5126,
            "count" : 705,
            "max" : [
                0.6796739101409912,
                0.7997947931289673,
                0.6796739101409912
            ],
            "min" : [
                -0.6796739101409912,
                -0.6374589204788208,
                -0.6796739101409912
            ],
            "type" : "VEC3"
        },
        {
            "bufferView" : 1,
            "componentType" : 5126,
            "count" : 705,
            "type" : "VEC3"
        },
        {
            "bufferView" : 2,
            "componentType" : 5123,
            "count" : 3648,
            "type" : "SCALAR"
        },
        {
            "bufferView" : 3,
            "componentType" : 5126,
            "count" : 471,
            "max" : [
                0.6796739101409912,
                0.800967812538147,
                0.6796739101409912
            ],
            "min" : [
                -0.6796739101409912,
                -0.6374589204788208,
                -0.6796739101409912
            ],
            "type" : "VEC3"
        },
        {
            "bufferView" : 4,
            "componentType" : 5126,
            "count" : 471,
            "type" : "VEC3"
        },
        {
            "bufferView" : 5,
            "componentType" : 5123,
            "count" : 1872,
            "type" : "SCALAR"
        }
    ],
    "bufferViews" : [
        {
            "buffer" : 0,
            "byteLength" : 8460,
            "byteOffset" : 0
        },
        {
            "buffer" : 0,
            "byteLength" : 8460,
            "byteOffset" : 8460
        },
        {
            "buffer" : 0,
            "byteLength" : 7296,
            "byteOffset" : 16920
        },
        {
            "buffer" : 0,
            "byteLength" : 5652,
            "byteOffset" : 24216
        },
        {
            "buffer" : 0,
            "byteLength" : 5652,
            "byteOffset" : 29868
        },
        {
            "buffer" : 0,
            "byteLength" : 3744,
            "byteOffset" : 35520
        }
    ],
    "buffers" : [
        {
            "byteLength" : 39264,
            "uri" : "data:application/octet-stream;base64,"
        }
    ]
}
