{
    "asset" : {
        "generator" : "Khronos glTF Blender I/O v1.3.48",
        "version" : "2.0"
    },
    "scene" : 0,
    "scenes" : [
        {
            "name" : "Scene",
            "nodes" : [
                0
            ]
        }
    ],
    "nodes" : [
        {
            "mesh" : 0,
            "name" : "bruce_lee_clothes"
        }
    ],
    "materials" : [
        {
            "doubleSided" : true,
            "emissiveFactor" : [
                0,
                0,
                0
            ],
            "name" : "cloth_yellow",
            "pbrMetallicRoughness" : {
                "baseColorFactor" : [
                    0.7872158288955688,
                    0.5301061272621155,
                    0.05284643545746803,
                    1
                ],
                "metallicFactor" : 0,
                "roughnessFactor" : 0.800000011920929
            }
        },
        {
            "doubleSided" : true,
            "emissiveFactor" : [
                0,
                0,
                0
            ],
            "name" : "cloth_black",
            "pbrMetallicRoughness" : {
                "baseColorFactor" : [
                    0.0055908081121742725,
                    0.0055908081121742725,
                    0.0055908081121742725,
                    1
                ],
                "metallicFactor" : 0,
                "roughnessFactor" : 0.800000011920929
            }
        }
    ],
    "meshes" : [
        {
            "name" : "bruce_lee_clothes",
            "primitives" : [
                {
                    "attributes" : {
                        "POSITION" : 0,
                        "NORMAL" : 1
                    },
                    "indices" : 2,
                    "material" : 0
                },
                {
                    "attributes" : {
                        "POSITION" : 3,
                        "NORMAL" : 4
                    },
                    "indices" : 5,
                    "material" : 1
                }
            ]
        }
    ],
    "accessors" : [
        {
            "bufferView" : 0,
            "componentType" : 5126,
            "count" : 818,
            "max" : [
                0.6370500922203064,
                0.7472906708717346,
                0.6785706877708435
            ],
            "min" : [
                -0.6370501518249512,
                -0.6352329254150391,
                -0.6785801649093628
            ],
            "type" : "VEC3"
        },
        {
            "bufferView" : 1,
            "componentType" : 5126,
            "count" : 818,
            "type" : "VEC3"
        },
        {
            "bufferView" : 2,
            "componentType" : 5123,
            "count" : 3648,
            "type" : "SCALAR"
        },
        {
            "bufferView" : 3,
            "componentType" : 5126,
            "count" : 329,
            "max" : [
                0.6805665493011475,
                0.7472906708717346,
                0.24067732691764832
            ],
            "min" : [
                -0.6805664896965027,
                -0.6507843732833862,
                -0.2502387762069702
            ],
            "type" : "VEC3"
        },
        {
            "bufferView" : 4,
            "componentType" : 5126,
            "count" : 329,
            "type" : "VEC3"
        },
        {
            "bufferView" : 5,
            "componentType" : 5123,
            "count" : 1344,
            "type" : "SCALAR"
        }
    ],
    "bufferViews" : [
        {
            "buffer" : 0,
            "byteLength" : 9816,
            "byteOffset" : 0
        },
        {
            "buffer" : 0,
            "byteLength" : 9816,
            "byteOffset" : 9816
        },
        {
            "buffer" : 0,
            "byteLength" : 7296,
            "byteOffset" : 19632
        },
        {
            "buffer" : 0,
            "byteLength" : 3948,
            "byteOffset" : 26928
        },
        {
            "buffer" : 0,
            "byteLength" : 3948,
            "byteOffset" : 30876
        },
        {
            "buffer" : 0,
            "byteLength" : 2688,
            "byteOffset" : 34824
        }
    ],
    "buffers" : [
        {
            "byteLength" : 37512,
            "uri" : "data:application/octet-stream;base64,"
        }
    ]
}
