{
    "asset" : {
        "generator" : "Khronos glTF Blender I/O v1.3.48",
        "version" : "2.0"
    },
    "scene" : 0,
    "scenes" : [
        {
            "name" : "Scene",
            "nodes" : [
                0
            ]
        }
    ],
    "nodes" : [
        {
            "mesh" : 0,
            "name" : "Ipad"
        }
    ],
    "materials" : [
        {
            "doubleSided" : true,
            "emissiveFactor" : [
                0,
                0,
                0
            ],
            "name" : "metal",
            "pbrMetallicRoughness" : {
                "baseColorFactor" : [
                    0.8411499857902527,
                    0.8411499857902527,
                    0.8411499857902527,
                    1
                ],
                "metallicFactor" : 0,
                "roughnessFactor" : 0.5
            }
        },
        {
            "doubleSided" : true,
            "emissiveFactor" : [
                0,
                0,
                0
            ],
            "name" : "metal_2",
            "pbrMetallicRoughness" : {
                "baseColorFactor" : [
                    0.007189000025391579,
                    0.007189000025391579,
                    0.007189000025391579,
                    1
                ],
                "metallicFactor" : 0,
                "roughnessFactor" : 0.5
            }
        },
        {
            "doubleSided" : true,
            "emissiveFactor" : [
                0,
                0,
                0
            ],
            "name" : "screen",
            "pbrMetallicRoughness" : {
                "baseColorFactor" : [
                    0.38433700799942017,
                    0.38433700799942017,
                    0.38433700799942017,
                    1
                ],
                "metallicFactor" : 0,
                "roughnessFactor" : 0
            }
        }
    ],
    "meshes" : [
        {
            "name" : "Ipad",
            "primitives" : [
                {
                    "attributes" : {
                        "POSITION" : 0,
                        "NORMAL" : 1,
                        "TEXCOORD_0" : 2
                    },
                    "indices" : 3,
                    "material" : 0
                },
                {
                    "attributes" : {
                        "POSITION" : 4,
                        "NORMAL" : 5,
                        "TEXCOORD_0" : 6
                    },
                    "indices" : 7,
                    "material" : 1
                },
                {
                    "attributes" : {
                        "POSITION" : 8,
                        "NORMAL" : 9,
                        "TEXCOORD_0" : 10
                    },
                    "indices" : 11,
                    "material" : 2
                }
            ]
        }
    ],
    "accessors" : [
        {
            "bufferView" : 0,
            "componentType" : 5126,
            "count" : 321,
            "max" : [
                0.1990029364824295,
                0.3506016135215759,
                0.010979674756526947
            ],
            "min" : [
                -0.1990029364824295,
                -0.2131732851266861,
                -2.4905782325390646e-08
            ],
            "type" : "VEC3"
        },
        {
            "bufferView" : 1,
            "componentType" : 5126,
            "count" : 321,
            "type" : "VEC3"
        },
        {
            "bufferView" : 2,
            "componentType" : 5126,
            "count" : 321,
            "type" : "VEC2"
        },
        {
            "bufferView" : 3,
            "componentType" : 5123,
            "count" : 1356,
            "type" : "SCALAR"
        },
        {
            "bufferView" : 4,
            "componentType" : 5126,
            "count" : 342,
            "max" : [
                0.1990029364824295,
                0.3506016135215759,
                0.012038452550768852
            ],
            "min" : [
                -0.1990029364824295,
                -0.2131732851266861,
                -0.0039474680088460445
            ],
            "type" : "VEC3"
        },
        {
            "bufferView" : 5,
            "componentType" : 5126,
            "count" : 342,
            "type" : "VEC3"
        },
        {
            "bufferView" : 6,
            "componentType" : 5126,
            "count" : 342,
            "type" : "VEC2"
        },
        {
            "bufferView" : 7,
            "componentType" : 5123,
            "count" : 1380,
            "type" : "SCALAR"
        },
        {
            "bufferView" : 8,
            "componentType" : 5126,
            "count" : 132,
            "max" : [
                0.1990029364824295,
                0.3506016135215759,
                0.011653417721390724
            ],
            "min" : [
                -0.1990029364824295,
                -0.2131732851266861,
                0.010979627259075642
            ],
            "type" : "VEC3"
        },
        {
            "bufferView" : 9,
            "componentType" : 5126,
            "count" : 132,
            "type" : "VEC3"
        },
        {
            "bufferView" : 10,
            "componentType" : 5126,
            "count" : 132,
            "type" : "VEC2"
        },
        {
            "bufferView" : 11,
            "componentType" : 5123,
            "count" : 408,
            "type" : "SCALAR"
        }
    ],
    "bufferViews" : [
        {
            "buffer" : 0,
            "byteLength" : 3852,
            "byteOffset" : 0
        },
        {
            "buffer" : 0,
            "byteLength" : 3852,
            "byteOffset" : 3852
        },
        {
            "buffer" : 0,
            "byteLength" : 2568,
            "byteOffset" : 7704
        },
        {
            "buffer" : 0,
            "byteLength" : 2712,
            "byteOffset" : 10272
        },
        {
            "buffer" : 0,
            "byteLength" : 4104,
            "byteOffset" : 12984
        },
        {
            "buffer" : 0,
            "byteLength" : 4104,
            "byteOffset" : 17088
        },
        {
            "buffer" : 0,
            "byteLength" : 2736,
            "byteOffset" : 21192
        },
        {
            "buffer" : 0,
            "byteLength" : 2760,
            "byteOffset" : 23928
        },
        {
            "buffer" : 0,
            "byteLength" : 1584,
            "byteOffset" : 26688
        },
        {
            "buffer" : 0,
            "byteLength" : 1584,
            "byteOffset" : 28272
        },
        {
            "buffer" : 0,
            "byteLength" : 1056,
            "byteOffset" : 29856
        },
        {
            "buffer" : 0,
            "byteLength" : 816,
            "byteOffset" : 30912
        }
    ],
    "buffers" : [
        {
            "byteLength" : 31728,
            "uri" : "data:application/octet-stream;base64,"
        }
    ]
}
