{
    "asset" : {
        "generator" : "Khronos glTF Blender I/O v1.3.48",
        "version" : "2.0"
    },
    "scene" : 0,
    "scenes" : [
        {
            "name" : "Scene",
            "nodes" : [
                0
            ]
        }
    ],
    "nodes" : [
        {
            "mesh" : 0,
            "name" : "rubber_ducky"
        }
    ],
    "materials" : [
        {
            "doubleSided" : true,
            "emissiveFactor" : [
                0,
                0,
                0
            ],
            "name" : "rubber_ducky.001",
            "pbrMetallicRoughness" : {
                "baseColorFactor" : [
                    0.799102783203125,
                    0.5271152257919312,
                    0.15292617678642273,
                    1
                ],
                "metallicFactor" : 0,
                "roughnessFactor" : 0.800000011920929
            }
        },
        {
            "doubleSided" : true,
            "emissiveFactor" : [
                0,
                0,
                0
            ],
            "name" : "rubber_ducky2.001",
            "pbrMetallicRoughness" : {
                "baseColorFactor" : [
                    0.799102783203125,
                    0.13188107311725616,
                    0.13188107311725616,
                    1
                ],
                "metallicFactor" : 0,
                "roughnessFactor" : 0.800000011920929
            }
        },
        {
            "doubleSided" : true,
            "emissiveFactor" : [
                0,
                0,
                0
            ],
            "name" : "rubber_ducky3.001",
            "pbrMetallicRoughness" : {
                "baseColorFactor" : [
                    0.00900834146887064,
                    0.00900834146887064,
                    0.00900834146887064,
                    1
                ],
                "metallicFactor" : 0,
                "roughnessFactor" : 0.800000011920929
            }
        },
        {
            "doubleSided" : true,
            "emissiveFactor" : [
                0,
                0,
                0
            ],
            "name" : "rubber_ducky4.001",
            "pbrMetallicRoughness" : {
                "baseColorFactor" : [
                    0.8005372881889343,
                    0.8005372881889343,
                    0.8005372881889343,
                    1
                ],
                "metallicFactor" : 0,
                "roughnessFactor" : 0.800000011920929
            }
        }
    ],
    "meshes" : [
        {
            "name" : "rubber_ducky",
            "primitives" : [
                {
                    "attributes" : {
                        "POSITION" : 0,
                        "NORMAL" : 1
                    },
                    "indices" : 2,
                    "material" : 0
                },
                {
                    "attributes" : {
                        "POSITION" : 3,
                        "NORMAL" : 4
                    },
                    "indices" : 5,
                    "material" : 1
                },
                {
                    "attributes" : {
                        "POSITION" : 6,
                        "NORMAL" : 7
                    },
                    "indices" : 8,
                    "material" : 2
                },
                {
                    "attributes" : {
                        "POSITION" : 9,
                        "NORMAL" : 10
                    },
                    "indices" : 11,
                    "material" : 3
                }
            ]
        }
    ],
    "accessors" : [
        {
            "bufferView" : 0,
            "componentType" : 5126,
            "count" : 221,
            "max" : [
                0.11212249100208282,
                0.2980743944644928,
                0.10110308974981308
            ],
            "min" : [
                -0.11212249845266342,
                -0.022567741572856903,
                -0.27141550183296204
            ],
            "type" : "VEC3"
        },
        {
            "bufferView" : 1,
            "componentType" : 5126,
            "count" : 221,
            "type" : "VEC3"
        },
        {
            "bufferView" : 2,
            "componentType" : 5123,
            "count" : 1296,
            "type" : "SCALAR"
        },
        {
            "bufferView" : 3,
            "componentType" : 5126,
            "count" : 121,
            "max" : [
                0.03633115068078041,
                0.2397737354040146,
                0.1320096254348755
            ],
            "min" : [
                -0.03633115068078041,
                0.17891480028629303,
                0.060308787971735
            ],
            "type" : "VEC3"
        },
        {
            "bufferView" : 4,
            "componentType" : 5126,
            "count" : 121,
            "type" : "VEC3"
        },
        {
            "bufferView" : 5,
            "componentType" : 5123,
            "count" : 696,
            "type" : "SCALAR"
        },
        {
            "bufferView" : 6,
            "componentType" : 5126,
            "count" : 194,
            "max" : [
                0.04467429593205452,
                0.2585337162017822,
                0.06300415843725204
            ],
            "min" : [
                -0.04467429593205452,
                0.23039302229881287,
                0.03368299454450607
            ],
            "type" : "VEC3"
        },
        {
            "bufferView" : 7,
            "componentType" : 5126,
            "count" : 194,
            "type" : "VEC3"
        },
        {
            "bufferView" : 8,
            "componentType" : 5123,
            "count" : 1104,
            "type" : "SCALAR"
        },
        {
            "bufferView" : 9,
            "componentType" : 5126,
            "count" : 18,
            "max" : [
                0.0446324460208416,
                0.25600093603134155,
                0.0590519942343235
            ],
            "min" : [
                -0.0446324460208416,
                0.24628274142742157,
                0.04898102581501007
            ],
            "type" : "VEC3"
        },
        {
            "bufferView" : 10,
            "componentType" : 5126,
            "count" : 18,
            "type" : "VEC3"
        },
        {
            "bufferView" : 11,
            "componentType" : 5123,
            "count" : 48,
            "type" : "SCALAR"
        }
    ],
    "bufferViews" : [
        {
            "buffer" : 0,
            "byteLength" : 2652,
            "byteOffset" : 0
        },
        {
            "buffer" : 0,
            "byteLength" : 2652,
            "byteOffset" : 2652
        },
        {
            "buffer" : 0,
            "byteLength" : 2592,
            "byteOffset" : 5304
        },
        {
            "buffer" : 0,
            "byteLength" : 1452,
            "byteOffset" : 7896
        },
        {
            "buffer" : 0,
            "byteLength" : 1452,
            "byteOffset" : 9348
        },
        {
            "buffer" : 0,
            "byteLength" : 1392,
            "byteOffset" : 10800
        },
        {
            "buffer" : 0,
            "byteLength" : 2328,
            "byteOffset" : 12192
        },
        {
            "buffer" : 0,
            "byteLength" : 2328,
            "byteOffset" : 14520
        },
        {
            "buffer" : 0,
            "byteLength" : 2208,
            "byteOffset" : 16848
        },
        {
            "buffer" : 0,
            "byteLength" : 216,
            "byteOffset" : 19056
        },
        {
            "buffer" : 0,
            "byteLength" : 216,
            "byteOffset" : 19272
        },
        {
            "buffer" : 0,
            "byteLength" : 96,
            "byteOffset" : 19488
        }
    ],
    "buffers" : [
        {
            "byteLength" : 19584,
            "uri" : "data:application/octet-stream;base64,"
        }
    ]
}
