{
    "asset" : {
        "generator" : "Khronos glTF Blender I/O v1.3.48",
        "version" : "2.0"
    },
    "scene" : 0,
    "scenes" : [
        {
            "name" : "Scene",
            "nodes" : [
                0
            ]
        }
    ],
    "nodes" : [
        {
            "mesh" : 0,
            "name" : "umai_bo"
        }
    ],
    "materials" : [
        {
            "doubleSided" : true,
            "emissiveFactor" : [
                0,
                0,
                0
            ],
            "name" : "snack2",
            "pbrMetallicRoughness" : {
                "baseColorFactor" : [
                    0.5486106276512146,
                    0.03765905648469925,
                    0.03446345403790474,
                    1
                ],
                "metallicFactor" : 0,
                "roughnessFactor" : 0.800000011920929
            }
        },
        {
            "doubleSided" : true,
            "emissiveFactor" : [
                0,
                0,
                0
            ],
            "name" : "snack",
            "pbrMetallicRoughness" : {
                "baseColorFactor" : [
                    0.7481180429458618,
                    0.6601173281669617,
                    0.27693066000938416,
                    1
                ],
                "metallicFactor" : 0,
                "roughnessFactor" : 0.800000011920929
            }
        },
        {
            "doubleSided" : true,
            "emissiveFactor" : [
                0,
                0,
                0
            ],
            "name" : "snack3",
            "pbrMetallicRoughness" : {
                "baseColorFactor" : [
                    0.8546761870384216,
                    0.8546761870384216,
                    0.8546761870384216,
                    1
                ],
                "metallicFactor" : 0,
                "roughnessFactor" : 0.800000011920929
            }
        },
        {
            "doubleSided" : true,
            "emissiveFactor" : [
                0,
                0,
                0
            ],
            "name" : "snack4",
            "pbrMetallicRoughness" : {
                "baseColorFactor" : [
                    0.15862847864627838,
                    0.1749444156885147,
                    0.5486106276512146,
                    1
                ],
                "metallicFactor" : 0,
                "roughnessFactor" : 0.800000011920929
            }
        }
    ],
    "meshes" : [
        {
            "name" : "umai_bo",
            "primitives" : [
                {
                    "attributes" : {
                        "POSITION" : 0,
                        "NORMAL" : 1
                    },
                    "indices" : 2,
                    "material" : 0
                },
                {
                    "attributes" : {
                        "POSITION" : 3,
                        "NORMAL" : 4
                    },
                    "indices" : 5,
                    "material" : 1
                },
                {
                    "attributes" : {
                        "POSITION" : 6,
                        "NORMAL" : 7
                    },
                    "indices" : 8,
                    "material" : 2
                },
                {
                    "attributes" : {
                        "POSITION" : 9,
                        "NORMAL" : 10
                    },
                    "indices" : 11,
                    "material" : 3
                }
            ]
        }
    ],
    "accessors" : [
        {
            "bufferView" : 0,
            "componentType" : 5126,
            "count" : 319,
            "max" : [
                0.7858048677444458,
                -0.09325895458459854,
                0.06176120042800903
            ],
            "min" : [
                0.677619218826294,
                -0.2012401670217514,
                -0.3170623481273651
            ],
            "type" : "VEC3"
        },
        {
            "bufferView" : 1,
            "componentType" : 5126,
            "count" : 319,
            "type" : "VEC3"
        },
        {
            "bufferView" : 2,
            "componentType" : 5123,
            "count" : 1572,
            "type" : "SCALAR"
        },
        {
            "bufferView" : 3,
            "componentType" : 5126,
            "count" : 153,
            "max" : [
                0.7781428098678589,
                -0.10097658634185791,
                0.2632644772529602
            ],
            "min" : [
                0.6852813363075256,
                -0.19383811950683594,
                -0.13125884532928467
            ],
            "type" : "VEC3"
        },
        {
            "bufferView" : 4,
            "componentType" : 5126,
            "count" : 153,
            "type" : "VEC3"
        },
        {
            "bufferView" : 5,
            "componentType" : 5123,
            "count" : 720,
            "type" : "SCALAR"
        },
        {
            "bufferView" : 6,
            "componentType" : 5126,
            "count" : 48,
            "max" : [
                0.7837983965873718,
                -0.09635743498802185,
                0.0474461205303669
            ],
            "min" : [
                0.6796257495880127,
                -0.20033326745033264,
                0.02191985957324505
            ],
            "type" : "VEC3"
        },
        {
            "bufferView" : 7,
            "componentType" : 5126,
            "count" : 48,
            "type" : "VEC3"
        },
        {
            "bufferView" : 8,
            "componentType" : 5123,
            "count" : 192,
            "type" : "SCALAR"
        },
        {
            "bufferView" : 9,
            "componentType" : 5126,
            "count" : 64,
            "max" : [
                0.7781428098678589,
                -0.10097658634185791,
                -0.019177734851837158
            ],
            "min" : [
                0.6852813363075256,
                -0.19383811950683594,
                -0.24270032346248627
            ],
            "type" : "VEC3"
        },
        {
            "bufferView" : 10,
            "componentType" : 5126,
            "count" : 64,
            "type" : "VEC3"
        },
        {
            "bufferView" : 11,
            "componentType" : 5123,
            "count" : 144,
            "type" : "SCALAR"
        }
    ],
    "bufferViews" : [
        {
            "buffer" : 0,
            "byteLength" : 3828,
            "byteOffset" : 0
        },
        {
            "buffer" : 0,
            "byteLength" : 3828,
            "byteOffset" : 3828
        },
        {
            "buffer" : 0,
            "byteLength" : 3144,
            "byteOffset" : 7656
        },
        {
            "buffer" : 0,
            "byteLength" : 1836,
            "byteOffset" : 10800
        },
        {
            "buffer" : 0,
            "byteLength" : 1836,
            "byteOffset" : 12636
        },
        {
            "buffer" : 0,
            "byteLength" : 1440,
            "byteOffset" : 14472
        },
        {
            "buffer" : 0,
            "byteLength" : 576,
            "byteOffset" : 15912
        },
        {
            "buffer" : 0,
            "byteLength" : 576,
            "byteOffset" : 16488
        },
        {
            "buffer" : 0,
            "byteLength" : 384,
            "byteOffset" : 17064
        },
        {
            "buffer" : 0,
            "byteLength" : 768,
            "byteOffset" : 17448
        },
        {
            "buffer" : 0,
            "byteLength" : 768,
            "byteOffset" : 18216
        },
        {
            "buffer" : 0,
            "byteLength" : 288,
            "byteOffset" : 18984
        }
    ],
    "buffers" : [
        {
            "byteLength" : 19272,
            "uri" : "data:application/octet-stream;base64,"
        }
    ]
}
