{
    "asset" : {
        "generator" : "Khronos glTF Blender I/O v1.3.48",
        "version" : "2.0"
    },
    "scene" : 0,
    "scenes" : [
        {
            "name" : "Scene",
            "nodes" : [
                0
            ]
        }
    ],
    "nodes" : [
        {
            "mesh" : 0,
            "name" : "bracelet"
        }
    ],
    "materials" : [
        {
            "doubleSided" : true,
            "emissiveFactor" : [
                0,
                0,
                0
            ],
            "name" : "bracelet2.001",
            "pbrMetallicRoughness" : {
                "baseColorFactor" : [
                    0.8139256238937378,
                    0.034517087042331696,
                    0.024405108764767647,
                    1
                ],
                "metallicFactor" : 0,
                "roughnessFactor" : 0
            }
        },
        {
            "doubleSided" : true,
            "emissiveFactor" : [
                0,
                0,
                0
            ],
            "name" : "bracelet.001",
            "pbrMetallicRoughness" : {
                "baseColorFactor" : [
                    0,
                    0,
                    0,
                    1
                ],
                "metallicFactor" : 0,
                "roughnessFactor" : 0
            }
        },
        {
            "doubleSided" : true,
            "emissiveFactor" : [
                0,
                0,
                0
            ],
            "name" : "bracelet3.001",
            "pbrMetallicRoughness" : {
                "baseColorFactor" : [
                    0.8548600077629089,
                    0.8548600077629089,
                    0.8548600077629089,
                    1
                ],
                "metallicFactor" : 0,
                "roughnessFactor" : 0
            }
        }
    ],
    "meshes" : [
        {
            "name" : "bracelet",
            "primitives" : [
                {
                    "attributes" : {
                        "POSITION" : 0,
                        "NORMAL" : 1
                    },
                    "indices" : 2,
                    "material" : 0
                },
                {
                    "attributes" : {
                        "POSITION" : 3,
                        "NORMAL" : 4
                    },
                    "indices" : 5,
                    "material" : 1
                },
                {
                    "attributes" : {
                        "POSITION" : 6,
                        "NORMAL" : 7
                    },
                    "indices" : 8,
                    "material" : 2
                }
            ]
        }
    ],
    "accessors" : [
        {
            "bufferView" : 0,
            "componentType" : 5126,
            "count" : 42,
            "max" : [
                0.7681548595428467,
                0.38918569684028625,
                -0.02289152517914772
            ],
            "min" : [
                0.7020672559738159,
                0.3231416940689087,
                -0.11787974834442139
            ],
            "type" : "VEC3"
        },
        {
            "bufferView" : 1,
            "componentType" : 5126,
            "count" : 42,
            "type" : "VEC3"
        },
        {
            "bufferView" : 2,
            "componentType" : 5123,
            "count" : 240,
            "type" : "SCALAR"
        },
        {
            "bufferView" : 3,
            "componentType" : 5126,
            "count" : 208,
            "max" : [
                0.7439044117927551,
                0.39018142223358154,
                0.079274483025074
            ],
            "min" : [
                0.49500906467437744,
                0.2500985562801361,
                -0.2342357635498047
            ],
            "type" : "VEC3"
        },
        {
            "bufferView" : 4,
            "componentType" : 5126,
            "count" : 208,
            "type" : "VEC3"
        },
        {
            "bufferView" : 5,
            "componentType" : 5123,
            "count" : 1152,
            "type" : "SCALAR"
        },
        {
            "bufferView" : 6,
            "componentType" : 5126,
            "count" : 52,
            "max" : [
                0.6268917322158813,
                0.3460097312927246,
                0.07401827722787857
            ],
            "min" : [
                0.5576818585395813,
                0.27331462502479553,
                -0.2043432891368866
            ],
            "type" : "VEC3"
        },
        {
            "bufferView" : 7,
            "componentType" : 5126,
            "count" : 52,
            "type" : "VEC3"
        },
        {
            "bufferView" : 8,
            "componentType" : 5123,
            "count" : 288,
            "type" : "SCALAR"
        }
    ],
    "bufferViews" : [
        {
            "buffer" : 0,
            "byteLength" : 504,
            "byteOffset" : 0
        },
        {
            "buffer" : 0,
            "byteLength" : 504,
            "byteOffset" : 504
        },
        {
            "buffer" : 0,
            "byteLength" : 480,
            "byteOffset" : 1008
        },
        {
            "buffer" : 0,
            "byteLength" : 2496,
            "byteOffset" : 1488
        },
        {
            "buffer" : 0,
            "byteLength" : 2496,
            "byteOffset" : 3984
        },
        {
            "buffer" : 0,
            "byteLength" : 2304,
            "byteOffset" : 6480
        },
        {
            "buffer" : 0,
            "byteLength" : 624,
            "byteOffset" : 8784
        },
        {
            "buffer" : 0,
            "byteLength" : 624,
            "byteOffset" : 9408
        },
        {
            "buffer" : 0,
            "byteLength" : 576,
            "byteOffset" : 10032
        }
    ],
    "buffers" : [
        {
            "byteLength" : 10608,
            "uri" : "data:application/octet-stream;base64,"
        }
    ]
}
