{
    "asset" : {
        "generator" : "Khronos glTF Blender I/O v1.3.48",
        "version" : "2.0"
    },
    "scene" : 0,
    "scenes" : [
        {
            "name" : "Scene",
            "nodes" : [
                0
            ]
        }
    ],
    "nodes" : [
        {
            "mesh" : 0,
            "name" : "hand_bag"
        }
    ],
    "materials" : [
        {
            "doubleSided" : true,
            "emissiveFactor" : [
                0,
                0,
                0
            ],
            "name" : "hand_bag2.001",
            "pbrMetallicRoughness" : {
                "baseColorFactor" : [
                    0.6150766611099243,
                    0.32014894485473633,
                    0.13082720339298248,
                    1
                ],
                "metallicFactor" : 0,
                "roughnessFactor" : 0.5
            }
        },
        {
            "doubleSided" : true,
            "emissiveFactor" : [
                0,
                0,
                0
            ],
            "name" : "hand_bag.001",
            "pbrMetallicRoughness" : {
                "baseColorFactor" : [
                    0.006649361457675695,
                    0.05357353016734123,
                    0.10649796575307846,
                    1
                ],
                "metallicFactor" : 0,
                "roughnessFactor" : 0
            }
        }
    ],
    "meshes" : [
        {
            "name" : "hand_bag",
            "primitives" : [
                {
                    "attributes" : {
                        "POSITION" : 0,
                        "NORMAL" : 1
                    },
                    "indices" : 2,
                    "material" : 0
                },
                {
                    "attributes" : {
                        "POSITION" : 3,
                        "NORMAL" : 4
                    },
                    "indices" : 5,
                    "material" : 1
                }
            ]
        }
    ],
    "accessors" : [
        {
            "bufferView" : 0,
            "componentType" : 5126,
            "count" : 1212,
            "max" : [
                0.3060523569583893,
                0.5176885724067688,
                0.11338374763727188
            ],
            "min" : [
                -0.2900807857513428,
                -0.30990391969680786,
                -0.11338356137275696
            ],
            "type" : "VEC3"
        },
        {
            "bufferView" : 1,
            "componentType" : 5126,
            "count" : 1212,
            "type" : "VEC3"
        },
        {
            "bufferView" : 2,
            "componentType" : 5123,
            "count" : 7104,
            "type" : "SCALAR"
        },
        {
            "bufferView" : 3,
            "componentType" : 5126,
            "count" : 570,
            "max" : [
                0.3494822382926941,
                0.02664763107895851,
                0.13144369423389435
            ],
            "min" : [
                -0.3335106670856476,
                -0.5674266815185547,
                -0.13144345581531525
            ],
            "type" : "VEC3"
        },
        {
            "bufferView" : 4,
            "componentType" : 5126,
            "count" : 570,
            "type" : "VEC3"
        },
        {
            "bufferView" : 5,
            "componentType" : 5123,
            "count" : 3264,
            "type" : "SCALAR"
        }
    ],
    "bufferViews" : [
        {
            "buffer" : 0,
            "byteLength" : 14544,
            "byteOffset" : 0
        },
        {
            "buffer" : 0,
            "byteLength" : 14544,
            "byteOffset" : 14544
        },
        {
            "buffer" : 0,
            "byteLength" : 14208,
            "byteOffset" : 29088
        },
        {
            "buffer" : 0,
            "byteLength" : 6840,
            "byteOffset" : 43296
        },
        {
            "buffer" : 0,
            "byteLength" : 6840,
            "byteOffset" : 50136
        },
        {
            "buffer" : 0,
            "byteLength" : 6528,
            "byteOffset" : 56976
        }
    ],
    "buffers" : [
        {
            "byteLength" : 63504,
            "uri" : "data:application/octet-stream;base64,"
        }
    ]
}
