{
    "asset" : {
        "generator" : "Khronos glTF Blender I/O v1.3.48",
        "version" : "2.0"
    },
    "scene" : 0,
    "scenes" : [
        {
            "name" : "Scene",
            "nodes" : [
                0
            ]
        }
    ],
    "nodes" : [
        {
            "mesh" : 0,
            "name" : "iphone"
        }
    ],
    "materials" : [
        {
            "doubleSided" : true,
            "emissiveFactor" : [
                0,
                0,
                0
            ],
            "name" : "metal",
            "pbrMetallicRoughness" : {
                "baseColorFactor" : [
                    0.8411499857902527,
                    0.8411499857902527,
                    0.8411499857902527,
                    1
                ],
                "metallicFactor" : 0,
                "roughnessFactor" : 0.5
            }
        },
        {
            "doubleSided" : true,
            "emissiveFactor" : [
                0,
                0,
                0
            ],
            "name" : "metal_2",
            "pbrMetallicRoughness" : {
                "baseColorFactor" : [
                    0.007189000025391579,
                    0.007189000025391579,
                    0.007189000025391579,
                    1
                ],
                "metallicFactor" : 0,
                "roughnessFactor" : 0.5
            }
        },
        {
            "doubleSided" : true,
            "emissiveFactor" : [
                0,
                0,
                0
            ],
            "name" : "metal_2.001",
            "pbrMetallicRoughness" : {
                "baseColorFactor" : [
                    0,
                    0,
                    0,
                    1
                ],
                "metallicFactor" : 0,
                "roughnessFactor" : 0
            }
        }
    ],
    "meshes" : [
        {
            "name" : "iphone",
            "primitives" : [
                {
                    "attributes" : {
                        "POSITION" : 0,
                        "NORMAL" : 1,
                        "TEXCOORD_0" : 2
                    },
                    "indices" : 3,
                    "material" : 0
                },
                {
                    "attributes" : {
                        "POSITION" : 4,
                        "NORMAL" : 5,
                        "TEXCOORD_0" : 6
                    },
                    "indices" : 7,
                    "material" : 1
                },
                {
                    "attributes" : {
                        "POSITION" : 8,
                        "NORMAL" : 9,
                        "TEXCOORD_0" : 10
                    },
                    "indices" : 11,
                    "material" : 2
                }
            ]
        }
    ],
    "accessors" : [
        {
            "bufferView" : 0,
            "componentType" : 5126,
            "count" : 271,
            "max" : [
                0.09299042820930481,
                0.1783350110054016,
                0.00865405797958374
            ],
            "min" : [
                -0.09299042820930481,
                -0.1783350110054016,
                -0.011244331486523151
            ],
            "type" : "VEC3"
        },
        {
            "bufferView" : 1,
            "componentType" : 5126,
            "count" : 271,
            "type" : "VEC3"
        },
        {
            "bufferView" : 2,
            "componentType" : 5126,
            "count" : 271,
            "type" : "VEC2"
        },
        {
            "bufferView" : 3,
            "componentType" : 5123,
            "count" : 1356,
            "type" : "SCALAR"
        },
        {
            "bufferView" : 4,
            "componentType" : 5126,
            "count" : 464,
            "max" : [
                0.09235385060310364,
                0.17711418867111206,
                0.00865405797958374
            ],
            "min" : [
                -0.09235385060310364,
                -0.17711418867111206,
                -0.0123750614002347
            ],
            "type" : "VEC3"
        },
        {
            "bufferView" : 5,
            "componentType" : 5126,
            "count" : 464,
            "type" : "VEC3"
        },
        {
            "bufferView" : 6,
            "componentType" : 5126,
            "count" : 464,
            "type" : "VEC2"
        },
        {
            "bufferView" : 7,
            "componentType" : 5123,
            "count" : 1656,
            "type" : "SCALAR"
        },
        {
            "bufferView" : 8,
            "componentType" : 5126,
            "count" : 9,
            "max" : [
                0.04073329269886017,
                0.17711418867111206,
                0.008654057048261166
            ],
            "min" : [
                -0.04073329269886017,
                0.1666051149368286,
                0.008654056116938591
            ],
            "type" : "VEC3"
        },
        {
            "bufferView" : 9,
            "componentType" : 5126,
            "count" : 9,
            "type" : "VEC3"
        },
        {
            "bufferView" : 10,
            "componentType" : 5126,
            "count" : 9,
            "type" : "VEC2"
        },
        {
            "bufferView" : 11,
            "componentType" : 5123,
            "count" : 24,
            "type" : "SCALAR"
        }
    ],
    "bufferViews" : [
        {
            "buffer" : 0,
            "byteLength" : 3252,
            "byteOffset" : 0
        },
        {
            "buffer" : 0,
            "byteLength" : 3252,
            "byteOffset" : 3252
        },
        {
            "buffer" : 0,
            "byteLength" : 2168,
            "byteOffset" : 6504
        },
        {
            "buffer" : 0,
            "byteLength" : 2712,
            "byteOffset" : 8672
        },
        {
            "buffer" : 0,
            "byteLength" : 5568,
            "byteOffset" : 11384
        },
        {
            "buffer" : 0,
            "byteLength" : 5568,
            "byteOffset" : 16952
        },
        {
            "buffer" : 0,
            "byteLength" : 3712,
            "byteOffset" : 22520
        },
        {
            "buffer" : 0,
            "byteLength" : 3312,
            "byteOffset" : 26232
        },
        {
            "buffer" : 0,
            "byteLength" : 108,
            "byteOffset" : 29544
        },
        {
            "buffer" : 0,
            "byteLength" : 108,
            "byteOffset" : 29652
        },
        {
            "buffer" : 0,
            "byteLength" : 72,
            "byteOffset" : 29760
        },
        {
            "buffer" : 0,
            "byteLength" : 48,
            "byteOffset" : 29832
        }
    ],
    "buffers" : [
        {
            "byteLength" : 29880,
            "uri" : "data:application/octet-stream;base64,"
        }
    ]
}
