{
    "asset" : {
        "generator" : "Khronos glTF Blender I/O v1.3.48",
        "version" : "2.0"
    },
    "scene" : 0,
    "scenes" : [
        {
            "name" : "Scene",
            "nodes" : [
                0
            ]
        }
    ],
    "nodes" : [
        {
            "mesh" : 0,
            "name" : "book",
            "rotation" : [
                -0.7071068286895752,
                0,
                0,
                0.7071068286895752
            ],
            "scale" : [
                1.5388059616088867,
                1.5388059616088867,
                1.5388059616088867
            ]
        }
    ],
    "materials" : [
        {
            "doubleSided" : true,
            "emissiveFactor" : [
                0,
                0,
                0
            ],
            "name" : "book2.001",
            "pbrMetallicRoughness" : {
                "baseColorFactor" : [
                    0.17880937457084656,
                    0.028098473325371742,
                    0.024892671033740044,
                    1
                ],
                "metallicFactor" : 0,
                "roughnessFactor" : 0.800000011920929
            }
        },
        {
            "doubleSided" : true,
            "emissiveFactor" : [
                0,
                0,
                0
            ],
            "name" : "book.001",
            "pbrMetallicRoughness" : {
                "baseColorFactor" : [
                    0.8274485468864441,
                    0.8274485468864441,
                    0.8274485468864441,
                    1
                ],
                "metallicFactor" : 0,
                "roughnessFactor" : 0.800000011920929
            }
        },
        {
            "doubleSided" : true,
            "emissiveFactor" : [
                0,
                0,
                0
            ],
            "name" : "book3.001",
            "pbrMetallicRoughness" : {
                "baseColorFactor" : [
                    0.01220516487956047,
                    0.01220516487956047,
                    0.01220516487956047,
                    1
                ],
                "metallicFactor" : 0,
                "roughnessFactor" : 0.800000011920929
            }
        }
    ],
    "meshes" : [
        {
            "name" : "book",
            "primitives" : [
                {
                    "attributes" : {
                        "POSITION" : 0,
                        "NORMAL" : 1
                    },
                    "indices" : 2,
                    "material" : 0
                },
                {
                    "attributes" : {
                        "POSITION" : 3,
                        "NORMAL" : 4
                    },
                    "indices" : 5,
                    "material" : 1
                },
                {
                    "attributes" : {
                        "POSITION" : 6,
                        "NORMAL" : 7
                    },
                    "indices" : 8,
                    "material" : 2
                }
            ]
        }
    ],
    "accessors" : [
        {
            "bufferView" : 0,
            "componentType" : 5126,
            "count" : 196,
            "max" : [
                0.23398613929748535,
                0.052538760006427765,
                0.43528735637664795
            ],
            "min" : [
                -0.30622342228889465,
                -0.05253876745700836,
                -0.2757205367088318
            ],
            "type" : "VEC3"
        },
        {
            "bufferView" : 1,
            "componentType" : 5126,
            "count" : 196,
            "type" : "VEC3"
        },
        {
            "bufferView" : 2,
            "componentType" : 5123,
            "count" : 540,
            "type" : "SCALAR"
        },
        {
            "bufferView" : 3,
            "componentType" : 5126,
            "count" : 45,
            "max" : [
                0.21551501750946045,
                0.045611672103405,
                0.43528735637664795
            ],
            "min" : [
                -0.29617708921432495,
                -0.0456116758286953,
                -0.2661585807800293
            ],
            "type" : "VEC3"
        },
        {
            "bufferView" : 4,
            "componentType" : 5126,
            "count" : 45,
            "type" : "VEC3"
        },
        {
            "bufferView" : 5,
            "componentType" : 5123,
            "count" : 144,
            "type" : "SCALAR"
        },
        {
            "bufferView" : 6,
            "componentType" : 5126,
            "count" : 46,
            "max" : [
                0.23398613929748535,
                0.052538733929395676,
                0.3167860209941864
            ],
            "min" : [
                -0.30622342228889465,
                -0.05253863334655762,
                0.19828468561172485
            ],
            "type" : "VEC3"
        },
        {
            "bufferView" : 7,
            "componentType" : 5126,
            "count" : 46,
            "type" : "VEC3"
        },
        {
            "bufferView" : 8,
            "componentType" : 5123,
            "count" : 96,
            "type" : "SCALAR"
        }
    ],
    "bufferViews" : [
        {
            "buffer" : 0,
            "byteLength" : 2352,
            "byteOffset" : 0
        },
        {
            "buffer" : 0,
            "byteLength" : 2352,
            "byteOffset" : 2352
        },
        {
            "buffer" : 0,
            "byteLength" : 1080,
            "byteOffset" : 4704
        },
        {
            "buffer" : 0,
            "byteLength" : 540,
            "byteOffset" : 5784
        },
        {
            "buffer" : 0,
            "byteLength" : 540,
            "byteOffset" : 6324
        },
        {
            "buffer" : 0,
            "byteLength" : 288,
            "byteOffset" : 6864
        },
        {
            "buffer" : 0,
            "byteLength" : 552,
            "byteOffset" : 7152
        },
        {
            "buffer" : 0,
            "byteLength" : 552,
            "byteOffset" : 7704
        },
        {
            "buffer" : 0,
            "byteLength" : 192,
            "byteOffset" : 8256
        }
    ],
    "buffers" : [
        {
            "byteLength" : 8448,
            "uri" : "data:application/octet-stream;base64,"
        }
    ]
}
