{
    "asset" : {
        "generator" : "Khronos glTF Blender I/O v1.3.48",
        "version" : "2.0"
    },
    "scene" : 0,
    "scenes" : [
        {
            "name" : "Scene",
            "nodes" : [
                0
            ]
        }
    ],
    "nodes" : [
        {
            "mesh" : 0,
            "name" : "beard_goatee"
        }
    ],
    "materials" : [
        {
            "doubleSided" : true,
            "emissiveFactor" : [
                0,
                0,
                0
            ],
            "name" : "hair_black",
            "pbrMetallicRoughness" : {
                "baseColorFactor" : [
                    0.02720111608505249,
                    0.022669028490781784,
                    0.01982937753200531,
                    1
                ],
                "metallicFactor" : 0,
                "roughnessFactor" : 0.5
            }
        }
    ],
    "meshes" : [
        {
            "name" : "Cube.025",
            "primitives" : [
                {
                    "attributes" : {
                        "POSITION" : 0,
                        "NORMAL" : 1
                    },
                    "indices" : 2,
                    "material" : 0
                }
            ]
        }
    ],
    "accessors" : [
        {
            "bufferView" : 0,
            "componentType" : 5126,
            "count" : 370,
            "max" : [
                0.4073218107223511,
                1.2476013898849487,
                0.7924297451972961
            ],
            "min" : [
                -0.4073218107223511,
                0.7563583850860596,
                0.34489905834198
            ],
            "type" : "VEC3"
        },
        {
            "bufferView" : 1,
            "componentType" : 5126,
            "count" : 370,
            "type" : "VEC3"
        },
        {
            "bufferView" : 2,
            "componentType" : 5123,
            "count" : 1344,
            "type" : "SCALAR"
        }
    ],
    "bufferViews" : [
        {
            "buffer" : 0,
            "byteLength" : 4440,
            "byteOffset" : 0
        },
        {
            "buffer" : 0,
            "byteLength" : 4440,
            "byteOffset" : 4440
        },
        {
            "buffer" : 0,
            "byteLength" : 2688,
            "byteOffset" : 8880
        }
    ],
    "buffers" : [
        {
            "byteLength" : 11568,
            "uri" : "data:application/octet-stream;base64,"
        }
    ]
}
