{
    "asset" : {
        "generator" : "Khronos glTF Blender I/O v1.3.48",
        "version" : "2.0"
    },
    "scene" : 0,
    "scenes" : [
        {
            "name" : "Scene",
            "nodes" : [
                0
            ]
        }
    ],
    "nodes" : [
        {
            "mesh" : 0,
            "name" : "santa_beard"
        }
    ],
    "materials" : [
        {
            "doubleSided" : true,
            "emissiveFactor" : [
                0,
                0,
                0
            ],
            "name" : "hair_white2",
            "pbrMetallicRoughness" : {
                "baseColorFactor" : [
                    0.8005177974700928,
                    0.8005177974700928,
                    0.8005177974700928,
                    1
                ],
                "metallicFactor" : 0,
                "roughnessFactor" : 0.5
            }
        }
    ],
    "meshes" : [
        {
            "name" : "santa_beard",
            "primitives" : [
                {
                    "attributes" : {
                        "POSITION" : 0,
                        "NORMAL" : 1
                    },
                    "indices" : 2,
                    "material" : 0
                }
            ]
        }
    ],
    "accessors" : [
        {
            "bufferView" : 0,
            "componentType" : 5126,
            "count" : 1146,
            "max" : [
                0.9639893770217896,
                1.4343875646591187,
                0.9532389044761658
            ],
            "min" : [
                -0.9639893770217896,
                0.10401811450719833,
                -0.19753476977348328
            ],
            "type" : "VEC3"
        },
        {
            "bufferView" : 1,
            "componentType" : 5126,
            "count" : 1146,
            "type" : "VEC3"
        },
        {
            "bufferView" : 2,
            "componentType" : 5123,
            "count" : 5232,
            "type" : "SCALAR"
        }
    ],
    "bufferViews" : [
        {
            "buffer" : 0,
            "byteLength" : 13752,
            "byteOffset" : 0
        },
        {
            "buffer" : 0,
            "byteLength" : 13752,
            "byteOffset" : 13752
        },
        {
            "buffer" : 0,
            "byteLength" : 10464,
            "byteOffset" : 27504
        }
    ],
    "buffers" : [
        {
            "byteLength" : 37968,
            "uri" : "data:application/octet-stream;base64,"
        }
    ]
}
