{
    "asset" : {
        "generator" : "Khronos glTF Blender I/O v1.3.48",
        "version" : "2.0"
    },
    "scene" : 0,
    "scenes" : [
        {
            "name" : "Scene",
            "nodes" : [
                0
            ]
        }
    ],
    "nodes" : [
        {
            "mesh" : 0,
            "name" : "geta"
        }
    ],
    "materials" : [
        {
            "doubleSided" : true,
            "emissiveFactor" : [
                0,
                0,
                0
            ],
            "name" : "shoes2.002",
            "pbrMetallicRoughness" : {
                "baseColorFactor" : [
                    0.01465651486068964,
                    0.01465651486068964,
                    0.01465651486068964,
                    1
                ],
                "metallicFactor" : 0,
                "roughnessFactor" : 0.10000000149011612
            }
        },
        {
            "doubleSided" : true,
            "emissiveFactor" : [
                0,
                0,
                0
            ],
            "name" : "shoes_wood",
            "pbrMetallicRoughness" : {
                "baseColorFactor" : [
                    0.6615182757377625,
                    0.49997708201408386,
                    0.34671667218208313,
                    1
                ],
                "metallicFactor" : 0,
                "roughnessFactor" : 0.800000011920929
            }
        }
    ],
    "meshes" : [
        {
            "name" : "geta",
            "primitives" : [
                {
                    "attributes" : {
                        "POSITION" : 0,
                        "NORMAL" : 1
                    },
                    "indices" : 2,
                    "material" : 0
                },
                {
                    "attributes" : {
                        "POSITION" : 3,
                        "NORMAL" : 4
                    },
                    "indices" : 5,
                    "material" : 1
                }
            ]
        }
    ],
    "accessors" : [
        {
            "bufferView" : 0,
            "componentType" : 5126,
            "count" : 1118,
            "max" : [
                0.3900325894355774,
                -0.7056419849395752,
                0.24732215702533722
            ],
            "min" : [
                -0.3900325894355774,
                -0.7851153016090393,
                -0.13069315254688263
            ],
            "type" : "VEC3"
        },
        {
            "bufferView" : 1,
            "componentType" : 5126,
            "count" : 1118,
            "type" : "VEC3"
        },
        {
            "bufferView" : 2,
            "componentType" : 5123,
            "count" : 6336,
            "type" : "SCALAR"
        },
        {
            "bufferView" : 3,
            "componentType" : 5126,
            "count" : 3524,
            "max" : [
                0.40901219844818115,
                -0.7777962684631348,
                0.3161904811859131
            ],
            "min" : [
                -0.40901219844818115,
                -0.9115167856216431,
                -0.2633534371852875
            ],
            "type" : "VEC3"
        },
        {
            "bufferView" : 4,
            "componentType" : 5126,
            "count" : 3524,
            "type" : "VEC3"
        },
        {
            "bufferView" : 5,
            "componentType" : 5123,
            "count" : 21120,
            "type" : "SCALAR"
        }
    ],
    "bufferViews" : [
        {
            "buffer" : 0,
            "byteLength" : 13416,
            "byteOffset" : 0
        },
        {
            "buffer" : 0,
            "byteLength" : 13416,
            "byteOffset" : 13416
        },
        {
            "buffer" : 0,
            "byteLength" : 12672,
            "byteOffset" : 26832
        },
        {
            "buffer" : 0,
            "byteLength" : 42288,
            "byteOffset" : 39504
        },
        {
            "buffer" : 0,
            "byteLength" : 42288,
            "byteOffset" : 81792
        },
        {
            "buffer" : 0,
            "byteLength" : 42240,
            "byteOffset" : 124080
        }
    ],
    "buffers" : [
        {
            "byteLength" : 166320,
            "uri" : "data:application/octet-stream;base64,"
        }
    ]
}
