{
    "asset" : {
        "generator" : "Khronos glTF Blender I/O v1.3.48",
        "version" : "2.0"
    },
    "scene" : 0,
    "scenes" : [
        {
            "name" : "Scene",
            "nodes" : [
                0
            ]
        }
    ],
    "nodes" : [
        {
            "mesh" : 0,
            "name" : "fluffly_boots"
        }
    ],
    "materials" : [
        {
            "doubleSided" : true,
            "emissiveFactor" : [
                0,
                0,
                0
            ],
            "name" : "shoes_white",
            "pbrMetallicRoughness" : {
                "baseColorFactor" : [
                    0.8274403810501099,
                    0.8274403810501099,
                    0.8274403810501099,
                    1
                ],
                "metallicFactor" : 0,
                "roughnessFactor" : 0.800000011920929
            }
        },
        {
            "doubleSided" : true,
            "emissiveFactor" : [
                0,
                0,
                0
            ],
            "name" : "shoes_pink",
            "pbrMetallicRoughness" : {
                "baseColorFactor" : [
                    0.7482980489730835,
                    0.4401001036167145,
                    0.6067167520523071,
                    1
                ],
                "metallicFactor" : 0,
                "roughnessFactor" : 0.800000011920929
            }
        }
    ],
    "meshes" : [
        {
            "name" : "fluffly_boots",
            "primitives" : [
                {
                    "attributes" : {
                        "POSITION" : 0,
                        "NORMAL" : 1
                    },
                    "indices" : 2,
                    "material" : 0
                },
                {
                    "attributes" : {
                        "POSITION" : 3,
                        "NORMAL" : 4
                    },
                    "indices" : 5,
                    "material" : 1
                }
            ]
        }
    ],
    "accessors" : [
        {
            "bufferView" : 0,
            "componentType" : 5126,
            "count" : 1092,
            "max" : [
                0.39145997166633606,
                -0.5321459770202637,
                0.21553942561149597
            ],
            "min" : [
                -0.39145997166633606,
                -0.8228802680969238,
                -0.24186724424362183
            ],
            "type" : "VEC3"
        },
        {
            "bufferView" : 1,
            "componentType" : 5126,
            "count" : 1092,
            "type" : "VEC3"
        },
        {
            "bufferView" : 2,
            "componentType" : 5123,
            "count" : 6528,
            "type" : "SCALAR"
        },
        {
            "bufferView" : 3,
            "componentType" : 5126,
            "count" : 2350,
            "max" : [
                0.4200288951396942,
                -0.5304718017578125,
                0.10330590605735779
            ],
            "min" : [
                -0.4200288951396942,
                -0.690734326839447,
                -0.26868361234664917
            ],
            "type" : "VEC3"
        },
        {
            "bufferView" : 4,
            "componentType" : 5126,
            "count" : 2350,
            "type" : "VEC3"
        },
        {
            "bufferView" : 5,
            "componentType" : 5123,
            "count" : 11280,
            "type" : "SCALAR"
        }
    ],
    "bufferViews" : [
        {
            "buffer" : 0,
            "byteLength" : 13104,
            "byteOffset" : 0
        },
        {
            "buffer" : 0,
            "byteLength" : 13104,
            "byteOffset" : 13104
        },
        {
            "buffer" : 0,
            "byteLength" : 13056,
            "byteOffset" : 26208
        },
        {
            "buffer" : 0,
            "byteLength" : 28200,
            "byteOffset" : 39264
        },
        {
            "buffer" : 0,
            "byteLength" : 28200,
            "byteOffset" : 67464
        },
        {
            "buffer" : 0,
            "byteLength" : 22560,
            "byteOffset" : 95664
        }
    ],
    "buffers" : [
        {
            "byteLength" : 118224,
            "uri" : "data:application/octet-stream;base64,"
        }
    ]
}
