{
    "asset" : {
        "generator" : "Khronos glTF Blender I/O v1.3.48",
        "version" : "2.0"
    },
    "scene" : 0,
    "scenes" : [
        {
            "name" : "Scene",
            "nodes" : [
                0
            ]
        }
    ],
    "nodes" : [
        {
            "mesh" : 0,
            "name" : "beach_sandal"
        }
    ],
    "materials" : [
        {
            "doubleSided" : true,
            "emissiveFactor" : [
                0,
                0,
                0
            ],
            "name" : "shoes_white",
            "pbrMetallicRoughness" : {
                "baseColorFactor" : [
                    0.8274403810501099,
                    0.8274403810501099,
                    0.8274403810501099,
                    1
                ],
                "metallicFactor" : 0,
                "roughnessFactor" : 0.800000011920929
            }
        },
        {
            "doubleSided" : true,
            "emissiveFactor" : [
                0,
                0,
                0
            ],
            "name" : "shoes2",
            "pbrMetallicRoughness" : {
                "baseColorFactor" : [
                    0.01465651486068964,
                    0.01465651486068964,
                    0.01465651486068964,
                    1
                ],
                "metallicFactor" : 0,
                "roughnessFactor" : 0.10000000149011612
            }
        }
    ],
    "meshes" : [
        {
            "name" : "beach_sandal",
            "primitives" : [
                {
                    "attributes" : {
                        "POSITION" : 0,
                        "NORMAL" : 1
                    },
                    "indices" : 2,
                    "material" : 0
                },
                {
                    "attributes" : {
                        "POSITION" : 3,
                        "NORMAL" : 4
                    },
                    "indices" : 5,
                    "material" : 1
                }
            ]
        }
    ],
    "accessors" : [
        {
            "bufferView" : 0,
            "componentType" : 5126,
            "count" : 1790,
            "max" : [
                0.3779047727584839,
                -0.7684763073921204,
                0.2952460050582886
            ],
            "min" : [
                -0.3779047727584839,
                -0.8224770426750183,
                -0.23155654966831207
            ],
            "type" : "VEC3"
        },
        {
            "bufferView" : 1,
            "componentType" : 5126,
            "count" : 1790,
            "type" : "VEC3"
        },
        {
            "bufferView" : 2,
            "componentType" : 5123,
            "count" : 10368,
            "type" : "SCALAR"
        },
        {
            "bufferView" : 3,
            "componentType" : 5126,
            "count" : 1118,
            "max" : [
                0.3699217140674591,
                -0.7056419849395752,
                0.25206273794174194
            ],
            "min" : [
                -0.3699217140674591,
                -0.7827147841453552,
                -0.10668247938156128
            ],
            "type" : "VEC3"
        },
        {
            "bufferView" : 4,
            "componentType" : 5126,
            "count" : 1118,
            "type" : "VEC3"
        },
        {
            "bufferView" : 5,
            "componentType" : 5123,
            "count" : 6336,
            "type" : "SCALAR"
        }
    ],
    "bufferViews" : [
        {
            "buffer" : 0,
            "byteLength" : 21480,
            "byteOffset" : 0
        },
        {
            "buffer" : 0,
            "byteLength" : 21480,
            "byteOffset" : 21480
        },
        {
            "buffer" : 0,
            "byteLength" : 20736,
            "byteOffset" : 42960
        },
        {
            "buffer" : 0,
            "byteLength" : 13416,
            "byteOffset" : 63696
        },
        {
            "buffer" : 0,
            "byteLength" : 13416,
            "byteOffset" : 77112
        },
        {
            "buffer" : 0,
            "byteLength" : 12672,
            "byteOffset" : 90528
        }
    ],
    "buffers" : [
        {
            "byteLength" : 103200,
            "uri" : "data:application/octet-stream;base64,"
        }
    ]
}
