{
    "asset" : {
        "generator" : "Khronos glTF Blender I/O v1.3.48",
        "version" : "2.0"
    },
    "scene" : 0,
    "scenes" : [
        {
            "name" : "Scene",
            "nodes" : [
                0
            ]
        }
    ],
    "nodes" : [
        {
            "mesh" : 0,
            "name" : "crocs"
        }
    ],
    "materials" : [
        {
            "doubleSided" : true,
            "emissiveFactor" : [
                0,
                0,
                0
            ],
            "name" : "shoes_orange",
            "pbrMetallicRoughness" : {
                "baseColorFactor" : [
                    0.5923259258270264,
                    0.32513806223869324,
                    0.10592875629663467,
                    1
                ],
                "metallicFactor" : 0,
                "roughnessFactor" : 0.800000011920929
            }
        }
    ],
    "meshes" : [
        {
            "name" : "crocs",
            "primitives" : [
                {
                    "attributes" : {
                        "POSITION" : 0,
                        "NORMAL" : 1
                    },
                    "indices" : 2,
                    "material" : 0
                }
            ]
        }
    ],
    "accessors" : [
        {
            "bufferView" : 0,
            "componentType" : 5126,
            "count" : 1920,
            "max" : [
                0.375087708234787,
                -0.651945173740387,
                0.28238388895988464
            ],
            "min" : [
                -0.375087708234787,
                -0.8178536891937256,
                -0.22215287387371063
            ],
            "type" : "VEC3"
        },
        {
            "bufferView" : 1,
            "componentType" : 5126,
            "count" : 1920,
            "type" : "VEC3"
        },
        {
            "bufferView" : 2,
            "componentType" : 5123,
            "count" : 11856,
            "type" : "SCALAR"
        }
    ],
    "bufferViews" : [
        {
            "buffer" : 0,
            "byteLength" : 23040,
            "byteOffset" : 0
        },
        {
            "buffer" : 0,
            "byteLength" : 23040,
            "byteOffset" : 23040
        },
        {
            "buffer" : 0,
            "byteLength" : 23712,
            "byteOffset" : 46080
        }
    ],
    "buffers" : [
        {
            "byteLength" : 69792,
            "uri" : "data:application/octet-stream;base64,"
        }
    ]
}
