{
    "asset" : {
        "generator" : "Khronos glTF Blender I/O v1.3.48",
        "version" : "2.0"
    },
    "scene" : 0,
    "scenes" : [
        {
            "name" : "Scene",
            "nodes" : [
                0
            ]
        }
    ],
    "nodes" : [
        {
            "mesh" : 0,
            "name" : "rocket_shoes"
        }
    ],
    "materials" : [
        {
            "doubleSided" : true,
            "emissiveFactor" : [
                0,
                0,
                0
            ],
            "name" : "shoes_red",
            "pbrMetallicRoughness" : {
                "baseColorFactor" : [
                    0.7482980489730835,
                    0.029182905331254005,
                    0.026027105748653412,
                    1
                ],
                "metallicFactor" : 0,
                "roughnessFactor" : 0.800000011920929
            }
        },
        {
            "doubleSided" : true,
            "emissiveFactor" : [
                0,
                0,
                0
            ],
            "name" : "shoes.002",
            "pbrMetallicRoughness" : {
                "baseColorFactor" : [
                    0.054480284452438354,
                    0.054480284452438354,
                    0.054480284452438354,
                    1
                ],
                "metallicFactor" : 0,
                "roughnessFactor" : 0.800000011920929
            }
        },
        {
            "doubleSided" : true,
            "emissiveFactor" : [
                0,
                0,
                0
            ],
            "name" : "shoes_white.002",
            "pbrMetallicRoughness" : {
                "baseColorFactor" : [
                    0.8274403810501099,
                    0.8274403810501099,
                    0.8274403810501099,
                    1
                ],
                "metallicFactor" : 0,
                "roughnessFactor" : 0.800000011920929
            }
        }
    ],
    "meshes" : [
        {
            "name" : "rocket_shoes",
            "primitives" : [
                {
                    "attributes" : {
                        "POSITION" : 0,
                        "NORMAL" : 1
                    },
                    "indices" : 2,
                    "material" : 0
                },
                {
                    "attributes" : {
                        "POSITION" : 3,
                        "NORMAL" : 4
                    },
                    "indices" : 5,
                    "material" : 1
                },
                {
                    "attributes" : {
                        "POSITION" : 6,
                        "NORMAL" : 7
                    },
                    "indices" : 8,
                    "material" : 2
                }
            ]
        }
    ],
    "accessors" : [
        {
            "bufferView" : 0,
            "componentType" : 5126,
            "count" : 2786,
            "max" : [
                0.4723721146583557,
                -0.6449992656707764,
                0.3243463635444641
            ],
            "min" : [
                -0.4723721146583557,
                -0.823161244392395,
                -0.23407770693302155
            ],
            "type" : "VEC3"
        },
        {
            "bufferView" : 1,
            "componentType" : 5126,
            "count" : 2786,
            "type" : "VEC3"
        },
        {
            "bufferView" : 2,
            "componentType" : 5123,
            "count" : 15936,
            "type" : "SCALAR"
        },
        {
            "bufferView" : 3,
            "componentType" : 5126,
            "count" : 594,
            "max" : [
                0.333884596824646,
                -0.5869659781455994,
                -0.02959529682993889
            ],
            "min" : [
                -0.333884596824646,
                -0.765303373336792,
                -0.21895582973957062
            ],
            "type" : "VEC3"
        },
        {
            "bufferView" : 4,
            "componentType" : 5126,
            "count" : 594,
            "type" : "VEC3"
        },
        {
            "bufferView" : 5,
            "componentType" : 5123,
            "count" : 3264,
            "type" : "SCALAR"
        },
        {
            "bufferView" : 6,
            "componentType" : 5126,
            "count" : 976,
            "max" : [
                0.37073594331741333,
                -0.5975417494773865,
                0.3242109715938568
            ],
            "min" : [
                -0.37073594331741333,
                -0.8132076263427734,
                -0.23292286694049835
            ],
            "type" : "VEC3"
        },
        {
            "bufferView" : 7,
            "componentType" : 5126,
            "count" : 976,
            "type" : "VEC3"
        },
        {
            "bufferView" : 8,
            "componentType" : 5123,
            "count" : 4992,
            "type" : "SCALAR"
        }
    ],
    "bufferViews" : [
        {
            "buffer" : 0,
            "byteLength" : 33432,
            "byteOffset" : 0
        },
        {
            "buffer" : 0,
            "byteLength" : 33432,
            "byteOffset" : 33432
        },
        {
            "buffer" : 0,
            "byteLength" : 31872,
            "byteOffset" : 66864
        },
        {
            "buffer" : 0,
            "byteLength" : 7128,
            "byteOffset" : 98736
        },
        {
            "buffer" : 0,
            "byteLength" : 7128,
            "byteOffset" : 105864
        },
        {
            "buffer" : 0,
            "byteLength" : 6528,
            "byteOffset" : 112992
        },
        {
            "buffer" : 0,
            "byteLength" : 11712,
            "byteOffset" : 119520
        },
        {
            "buffer" : 0,
            "byteLength" : 11712,
            "byteOffset" : 131232
        },
        {
            "buffer" : 0,
            "byteLength" : 9984,
            "byteOffset" : 142944
        }
    ],
    "buffers" : [
        {
            "byteLength" : 152928,
            "uri" : "data:application/octet-stream;base64,"
        }
    ]
}
