{
    "asset" : {
        "generator" : "Khronos glTF Blender I/O v1.3.48",
        "version" : "2.0"
    },
    "scene" : 0,
    "scenes" : [
        {
            "name" : "Scene",
            "nodes" : [
                0
            ]
        }
    ],
    "nodes" : [
        {
            "mesh" : 0,
            "name" : "boots"
        }
    ],
    "materials" : [
        {
            "doubleSided" : true,
            "emissiveFactor" : [
                0,
                0,
                0
            ],
            "name" : "shoes_brown.001",
            "pbrMetallicRoughness" : {
                "baseColorFactor" : [
                    0.025376146659255028,
                    0.01326481532305479,
                    0.00608845567330718,
                    1
                ],
                "metallicFactor" : 0,
                "roughnessFactor" : 0.800000011920929
            }
        },
        {
            "doubleSided" : true,
            "emissiveFactor" : [
                0,
                0,
                0
            ],
            "name" : "shoes2.001",
            "pbrMetallicRoughness" : {
                "baseColorFactor" : [
                    0.01465651486068964,
                    0.01465651486068964,
                    0.01465651486068964,
                    1
                ],
                "metallicFactor" : 0,
                "roughnessFactor" : 0.10000000149011612
            }
        },
        {
            "doubleSided" : true,
            "emissiveFactor" : [
                0,
                0,
                0
            ],
            "name" : "laces.001",
            "pbrMetallicRoughness" : {
                "baseColorFactor" : [
                    0.4574447572231293,
                    0.4574447572231293,
                    0.4574447572231293,
                    1
                ],
                "metallicFactor" : 0,
                "roughnessFactor" : 0.800000011920929
            }
        }
    ],
    "meshes" : [
        {
            "name" : "boots",
            "primitives" : [
                {
                    "attributes" : {
                        "POSITION" : 0,
                        "NORMAL" : 1
                    },
                    "indices" : 2,
                    "material" : 0
                },
                {
                    "attributes" : {
                        "POSITION" : 3,
                        "NORMAL" : 4
                    },
                    "indices" : 5,
                    "material" : 1
                },
                {
                    "attributes" : {
                        "POSITION" : 6,
                        "NORMAL" : 7
                    },
                    "indices" : 8,
                    "material" : 2
                }
            ]
        }
    ],
    "accessors" : [
        {
            "bufferView" : 0,
            "componentType" : 5126,
            "count" : 1170,
            "max" : [
                0.3719872832298279,
                -0.6186887621879578,
                0.21785856783390045
            ],
            "min" : [
                -0.3719872832298279,
                -0.822792649269104,
                -0.20215864479541779
            ],
            "type" : "VEC3"
        },
        {
            "bufferView" : 1,
            "componentType" : 5126,
            "count" : 1170,
            "type" : "VEC3"
        },
        {
            "bufferView" : 2,
            "componentType" : 5123,
            "count" : 6816,
            "type" : "SCALAR"
        },
        {
            "bufferView" : 3,
            "componentType" : 5126,
            "count" : 258,
            "max" : [
                0.36913010478019714,
                -0.6552990674972534,
                0.21785856783390045
            ],
            "min" : [
                -0.36913010478019714,
                -0.7934631109237671,
                0.06084733456373215
            ],
            "type" : "VEC3"
        },
        {
            "bufferView" : 4,
            "componentType" : 5126,
            "count" : 258,
            "type" : "VEC3"
        },
        {
            "bufferView" : 5,
            "componentType" : 5123,
            "count" : 1344,
            "type" : "SCALAR"
        },
        {
            "bufferView" : 6,
            "componentType" : 5126,
            "count" : 11200,
            "max" : [
                0.30288612842559814,
                -0.621865451335907,
                0.06764132529497147
            ],
            "min" : [
                -0.30288612842559814,
                -0.6713375449180603,
                -0.08311066776514053
            ],
            "type" : "VEC3"
        },
        {
            "bufferView" : 7,
            "componentType" : 5126,
            "count" : 11200,
            "type" : "VEC3"
        },
        {
            "bufferView" : 8,
            "componentType" : 5123,
            "count" : 64512,
            "type" : "SCALAR"
        }
    ],
    "bufferViews" : [
        {
            "buffer" : 0,
            "byteLength" : 14040,
            "byteOffset" : 0
        },
        {
            "buffer" : 0,
            "byteLength" : 14040,
            "byteOffset" : 14040
        },
        {
            "buffer" : 0,
            "byteLength" : 13632,
            "byteOffset" : 28080
        },
        {
            "buffer" : 0,
            "byteLength" : 3096,
            "byteOffset" : 41712
        },
        {
            "buffer" : 0,
            "byteLength" : 3096,
            "byteOffset" : 44808
        },
        {
            "buffer" : 0,
            "byteLength" : 2688,
            "byteOffset" : 47904
        },
        {
            "buffer" : 0,
            "byteLength" : 134400,
            "byteOffset" : 50592
        },
        {
            "buffer" : 0,
            "byteLength" : 134400,
            "byteOffset" : 184992
        },
        {
            "buffer" : 0,
            "byteLength" : 129024,
            "byteOffset" : 319392
        }
    ],
    "buffers" : [
        {
            "byteLength" : 448416,
            "uri" : "data:application/octet-stream;base64,"
        }
    ]
}
