{
    "asset" : {
        "generator" : "Khronos glTF Blender I/O v1.3.48",
        "version" : "2.0"
    },
    "scene" : 0,
    "scenes" : [
        {
            "name" : "Scene",
            "nodes" : [
                0
            ]
        }
    ],
    "nodes" : [
        {
            "mesh" : 0,
            "name" : "rollerblade"
        }
    ],
    "materials" : [
        {
            "doubleSided" : true,
            "emissiveFactor" : [
                0,
                0,
                0
            ],
            "name" : "shoes.002",
            "pbrMetallicRoughness" : {
                "baseColorFactor" : [
                    0.054480284452438354,
                    0.054480284452438354,
                    0.054480284452438354,
                    1
                ],
                "metallicFactor" : 0,
                "roughnessFactor" : 0.800000011920929
            }
        },
        {
            "doubleSided" : true,
            "emissiveFactor" : [
                0,
                0,
                0
            ],
            "name" : "shoes_yellow",
            "pbrMetallicRoughness" : {
                "baseColorFactor" : [
                    0.6496461629867554,
                    0.41643205285072327,
                    0.08322896808385849,
                    1
                ],
                "metallicFactor" : 0,
                "roughnessFactor" : 0.800000011920929
            }
        }
    ],
    "meshes" : [
        {
            "name" : "rollerblade",
            "primitives" : [
                {
                    "attributes" : {
                        "POSITION" : 0,
                        "NORMAL" : 1
                    },
                    "indices" : 2,
                    "material" : 0
                },
                {
                    "attributes" : {
                        "POSITION" : 3,
                        "NORMAL" : 4
                    },
                    "indices" : 5,
                    "material" : 1
                }
            ]
        }
    ],
    "accessors" : [
        {
            "bufferView" : 0,
            "componentType" : 5126,
            "count" : 5142,
            "max" : [
                0.3444390892982483,
                -0.5655041337013245,
                0.26797595620155334
            ],
            "min" : [
                -0.3444390594959259,
                -0.9569457769393921,
                -0.2403486669063568
            ],
            "type" : "VEC3"
        },
        {
            "bufferView" : 1,
            "componentType" : 5126,
            "count" : 5142,
            "type" : "VEC3"
        },
        {
            "bufferView" : 2,
            "componentType" : 5123,
            "count" : 28608,
            "type" : "SCALAR"
        },
        {
            "bufferView" : 3,
            "componentType" : 5126,
            "count" : 1032,
            "max" : [
                0.3402225375175476,
                -0.5784499049186707,
                0.25923508405685425
            ],
            "min" : [
                -0.3402225971221924,
                -0.9502553343772888,
                -0.2316078245639801
            ],
            "type" : "VEC3"
        },
        {
            "bufferView" : 4,
            "componentType" : 5126,
            "count" : 1032,
            "type" : "VEC3"
        },
        {
            "bufferView" : 5,
            "componentType" : 5123,
            "count" : 4128,
            "type" : "SCALAR"
        }
    ],
    "bufferViews" : [
        {
            "buffer" : 0,
            "byteLength" : 61704,
            "byteOffset" : 0
        },
        {
            "buffer" : 0,
            "byteLength" : 61704,
            "byteOffset" : 61704
        },
        {
            "buffer" : 0,
            "byteLength" : 57216,
            "byteOffset" : 123408
        },
        {
            "buffer" : 0,
            "byteLength" : 12384,
            "byteOffset" : 180624
        },
        {
            "buffer" : 0,
            "byteLength" : 12384,
            "byteOffset" : 193008
        },
        {
            "buffer" : 0,
            "byteLength" : 8256,
            "byteOffset" : 205392
        }
    ],
    "buffers" : [
        {
            "byteLength" : 213648,
            "uri" : "data:application/octet-stream;base64,"
        }
    ]
}
