{
    "asset" : {
        "generator" : "Khronos glTF Blender I/O v1.3.48",
        "version" : "2.0"
    },
    "scene" : 0,
    "scenes" : [
        {
            "name" : "Scene",
            "nodes" : [
                0
            ]
        }
    ],
    "nodes" : [
        {
            "mesh" : 0,
            "name" : "scuba_boots"
        }
    ],
    "materials" : [
        {
            "doubleSided" : true,
            "emissiveFactor" : [
                0,
                0,
                0
            ],
            "name" : "shoes.001",
            "pbrMetallicRoughness" : {
                "baseColorFactor" : [
                    0.054480284452438354,
                    0.054480284452438354,
                    0.054480284452438354,
                    1
                ],
                "metallicFactor" : 0,
                "roughnessFactor" : 0.800000011920929
            }
        }
    ],
    "meshes" : [
        {
            "name" : "scuba_boots",
            "primitives" : [
                {
                    "attributes" : {
                        "POSITION" : 0,
                        "NORMAL" : 1
                    },
                    "indices" : 2,
                    "material" : 0
                }
            ]
        }
    ],
    "accessors" : [
        {
            "bufferView" : 0,
            "componentType" : 5126,
            "count" : 2372,
            "max" : [
                0.37462395429611206,
                -0.5869659781455994,
                0.3243463635444641
            ],
            "min" : [
                -0.37462395429611206,
                -0.823161244392395,
                -0.18099592626094818
            ],
            "type" : "VEC3"
        },
        {
            "bufferView" : 1,
            "componentType" : 5126,
            "count" : 2372,
            "type" : "VEC3"
        },
        {
            "bufferView" : 2,
            "componentType" : 5123,
            "count" : 14208,
            "type" : "SCALAR"
        }
    ],
    "bufferViews" : [
        {
            "buffer" : 0,
            "byteLength" : 28464,
            "byteOffset" : 0
        },
        {
            "buffer" : 0,
            "byteLength" : 28464,
            "byteOffset" : 28464
        },
        {
            "buffer" : 0,
            "byteLength" : 28416,
            "byteOffset" : 56928
        }
    ],
    "buffers" : [
        {
            "byteLength" : 85344,
            "uri" : "data:application/octet-stream;base64,"
        }
    ]
}
