{
    "asset" : {
        "generator" : "Khronos glTF Blender I/O v1.3.48",
        "version" : "2.0"
    },
    "scene" : 0,
    "scenes" : [
        {
            "name" : "Scene",
            "nodes" : [
                0
            ]
        }
    ],
    "nodes" : [
        {
            "mesh" : 0,
            "name" : "tank_top"
        }
    ],
    "materials" : [
        {
            "doubleSided" : true,
            "emissiveFactor" : [
                0,
                0,
                0
            ],
            "name" : "tank_top.001",
            "pbrMetallicRoughness" : {
                "baseColorFactor" : [
                    0.006362622603774071,
                    0.006362622603774071,
                    0.006362622603774071,
                    1
                ],
                "metallicFactor" : 0,
                "roughnessFactor" : 0.800000011920929
            }
        },
        {
            "doubleSided" : true,
            "emissiveFactor" : [
                0,
                0,
                0
            ],
            "name" : "tank_top2.001",
            "pbrMetallicRoughness" : {
                "baseColorFactor" : [
                    0.7872813940048218,
                    0.7872813940048218,
                    0.7872813940048218,
                    1
                ],
                "metallicFactor" : 0,
                "roughnessFactor" : 0.800000011920929
            }
        }
    ],
    "meshes" : [
        {
            "name" : "tank_top",
            "primitives" : [
                {
                    "attributes" : {
                        "POSITION" : 0,
                        "NORMAL" : 1
                    },
                    "indices" : 2,
                    "material" : 0
                },
                {
                    "attributes" : {
                        "POSITION" : 3,
                        "NORMAL" : 4
                    },
                    "indices" : 5,
                    "material" : 1
                }
            ]
        }
    ],
    "accessors" : [
        {
            "bufferView" : 0,
            "componentType" : 5126,
            "count" : 366,
            "max" : [
                0.6796739101409912,
                0.7069129943847656,
                0.6796739101409912
            ],
            "min" : [
                -0.6796739101409912,
                -0.05099308118224144,
                -0.6796739101409912
            ],
            "type" : "VEC3"
        },
        {
            "bufferView" : 1,
            "componentType" : 5126,
            "count" : 366,
            "type" : "VEC3"
        },
        {
            "bufferView" : 2,
            "componentType" : 5123,
            "count" : 1728,
            "type" : "SCALAR"
        },
        {
            "bufferView" : 3,
            "componentType" : 5126,
            "count" : 192,
            "max" : [
                0.6727595329284668,
                0.7497762441635132,
                0.46706029772758484
            ],
            "min" : [
                -0.672759473323822,
                0.03505394235253334,
                -0.3204215466976166
            ],
            "type" : "VEC3"
        },
        {
            "bufferView" : 4,
            "componentType" : 5126,
            "count" : 192,
            "type" : "VEC3"
        },
        {
            "bufferView" : 5,
            "componentType" : 5123,
            "count" : 768,
            "type" : "SCALAR"
        }
    ],
    "bufferViews" : [
        {
            "buffer" : 0,
            "byteLength" : 4392,
            "byteOffset" : 0
        },
        {
            "buffer" : 0,
            "byteLength" : 4392,
            "byteOffset" : 4392
        },
        {
            "buffer" : 0,
            "byteLength" : 3456,
            "byteOffset" : 8784
        },
        {
            "buffer" : 0,
            "byteLength" : 2304,
            "byteOffset" : 12240
        },
        {
            "buffer" : 0,
            "byteLength" : 2304,
            "byteOffset" : 14544
        },
        {
            "buffer" : 0,
            "byteLength" : 1536,
            "byteOffset" : 16848
        }
    ],
    "buffers" : [
        {
            "byteLength" : 18384,
            "uri" : "data:application/octet-stream;base64,"
        }
    ]
}
