{
    "asset" : {
        "generator" : "Khronos glTF Blender I/O v1.3.48",
        "version" : "2.0"
    },
    "scene" : 0,
    "scenes" : [
        {
            "name" : "Scene",
            "nodes" : [
                0
            ]
        }
    ],
    "nodes" : [
        {
            "mesh" : 0,
            "name" : "striped_shirt"
        }
    ],
    "materials" : [
        {
            "doubleSided" : true,
            "emissiveFactor" : [
                0,
                0,
                0
            ],
            "name" : "shirt3.001",
            "pbrMetallicRoughness" : {
                "baseColorFactor" : [
                    0.1729431003332138,
                    0.17040251195430756,
                    0.2737651765346527,
                    1
                ],
                "metallicFactor" : 0,
                "roughnessFactor" : 0.800000011920929
            }
        },
        {
            "doubleSided" : true,
            "emissiveFactor" : [
                0,
                0,
                0
            ],
            "name" : "shirt4.001",
            "pbrMetallicRoughness" : {
                "baseColorFactor" : [
                    0.5063124299049377,
                    0.5760024785995483,
                    0.698084831237793,
                    1
                ],
                "metallicFactor" : 0,
                "roughnessFactor" : 0.800000011920929
            }
        }
    ],
    "meshes" : [
        {
            "name" : "striped_shirt",
            "primitives" : [
                {
                    "attributes" : {
                        "POSITION" : 0,
                        "NORMAL" : 1
                    },
                    "indices" : 2,
                    "material" : 0
                },
                {
                    "attributes" : {
                        "POSITION" : 3,
                        "NORMAL" : 4
                    },
                    "indices" : 5,
                    "material" : 1
                }
            ]
        }
    ],
    "accessors" : [
        {
            "bufferView" : 0,
            "componentType" : 5126,
            "count" : 371,
            "max" : [
                0.6835210919380188,
                0.6682047247886658,
                0.6719793081283569
            ],
            "min" : [
                -0.6835210919380188,
                -0.05099540203809738,
                -0.6888527274131775
            ],
            "type" : "VEC3"
        },
        {
            "bufferView" : 1,
            "componentType" : 5126,
            "count" : 371,
            "type" : "VEC3"
        },
        {
            "bufferView" : 2,
            "componentType" : 5123,
            "count" : 960,
            "type" : "SCALAR"
        },
        {
            "bufferView" : 3,
            "componentType" : 5126,
            "count" : 822,
            "max" : [
                0.6835210919380188,
                0.8221930265426636,
                0.6867757439613342
            ],
            "min" : [
                -0.6835210919380188,
                -0.051002394407987595,
                -0.6835852861404419
            ],
            "type" : "VEC3"
        },
        {
            "bufferView" : 4,
            "componentType" : 5126,
            "count" : 822,
            "type" : "VEC3"
        },
        {
            "bufferView" : 5,
            "componentType" : 5123,
            "count" : 2892,
            "type" : "SCALAR"
        }
    ],
    "bufferViews" : [
        {
            "buffer" : 0,
            "byteLength" : 4452,
            "byteOffset" : 0
        },
        {
            "buffer" : 0,
            "byteLength" : 4452,
            "byteOffset" : 4452
        },
        {
            "buffer" : 0,
            "byteLength" : 1920,
            "byteOffset" : 8904
        },
        {
            "buffer" : 0,
            "byteLength" : 9864,
            "byteOffset" : 10824
        },
        {
            "buffer" : 0,
            "byteLength" : 9864,
            "byteOffset" : 20688
        },
        {
            "buffer" : 0,
            "byteLength" : 5784,
            "byteOffset" : 30552
        }
    ],
    "buffers" : [
        {
            "byteLength" : 36336,
            "uri" : "data:application/octet-stream;base64,"
        }
    ]
}
