{
    "asset" : {
        "generator" : "Khronos glTF Blender I/O v1.3.48",
        "version" : "2.0"
    },
    "scene" : 0,
    "scenes" : [
        {
            "name" : "Scene",
            "nodes" : [
                0
            ]
        }
    ],
    "nodes" : [
        {
            "mesh" : 0,
            "name" : "hoodie"
        }
    ],
    "materials" : [
        {
            "doubleSided" : true,
            "emissiveFactor" : [
                0,
                0,
                0
            ],
            "name" : "hoodie.001",
            "pbrMetallicRoughness" : {
                "baseColorFactor" : [
                    0.008066456764936447,
                    0.008066456764936447,
                    0.008066456764936447,
                    1
                ],
                "metallicFactor" : 0,
                "roughnessFactor" : 0.800000011920929
            }
        },
        {
            "doubleSided" : true,
            "emissiveFactor" : [
                0,
                0,
                0
            ],
            "name" : "hoodie2.001",
            "pbrMetallicRoughness" : {
                "baseColorFactor" : [
                    0.8005352020263672,
                    0.8005352020263672,
                    0.8005352020263672,
                    1
                ],
                "metallicFactor" : 0,
                "roughnessFactor" : 0.800000011920929
            }
        }
    ],
    "meshes" : [
        {
            "name" : "hoodie",
            "primitives" : [
                {
                    "attributes" : {
                        "POSITION" : 0,
                        "NORMAL" : 1
                    },
                    "indices" : 2,
                    "material" : 0
                },
                {
                    "attributes" : {
                        "POSITION" : 3,
                        "NORMAL" : 4
                    },
                    "indices" : 5,
                    "material" : 1
                }
            ]
        }
    ],
    "accessors" : [
        {
            "bufferView" : 0,
            "componentType" : 5126,
            "count" : 1151,
            "max" : [
                0.6835210919380188,
                0.7333463430404663,
                0.6950627565383911
            ],
            "min" : [
                -0.6835210919380188,
                -0.0510023832321167,
                -0.7608199119567871
            ],
            "type" : "VEC3"
        },
        {
            "bufferView" : 1,
            "componentType" : 5126,
            "count" : 1151,
            "type" : "VEC3"
        },
        {
            "bufferView" : 2,
            "componentType" : 5123,
            "count" : 5904,
            "type" : "SCALAR"
        },
        {
            "bufferView" : 3,
            "componentType" : 5126,
            "count" : 18,
            "max" : [
                0.4013673663139343,
                0.3208393454551697,
                0.5171490907669067
            ],
            "min" : [
                -0.4013673663139343,
                0.2989614009857178,
                0.49100422859191895
            ],
            "type" : "VEC3"
        },
        {
            "bufferView" : 4,
            "componentType" : 5126,
            "count" : 18,
            "type" : "VEC3"
        },
        {
            "bufferView" : 5,
            "componentType" : 5123,
            "count" : 48,
            "type" : "SCALAR"
        }
    ],
    "bufferViews" : [
        {
            "buffer" : 0,
            "byteLength" : 13812,
            "byteOffset" : 0
        },
        {
            "buffer" : 0,
            "byteLength" : 13812,
            "byteOffset" : 13812
        },
        {
            "buffer" : 0,
            "byteLength" : 11808,
            "byteOffset" : 27624
        },
        {
            "buffer" : 0,
            "byteLength" : 216,
            "byteOffset" : 39432
        },
        {
            "buffer" : 0,
            "byteLength" : 216,
            "byteOffset" : 39648
        },
        {
            "buffer" : 0,
            "byteLength" : 96,
            "byteOffset" : 39864
        }
    ],
    "buffers" : [
        {
            "byteLength" : 39960,
            "uri" : "data:application/octet-stream;base64,"
        }
    ]
}
