{
    "asset" : {
        "generator" : "Khronos glTF Blender I/O v1.3.48",
        "version" : "2.0"
    },
    "scene" : 0,
    "scenes" : [
        {
            "name" : "Scene",
            "nodes" : [
                0
            ]
        }
    ],
    "nodes" : [
        {
            "mesh" : 0,
            "name" : "sweater"
        }
    ],
    "materials" : [
        {
            "doubleSided" : true,
            "emissiveFactor" : [
                0,
                0,
                0
            ],
            "name" : "sweater",
            "pbrMetallicRoughness" : {
                "baseColorFactor" : [
                    0.34231361746788025,
                    0.32744961977005005,
                    0.23859567940235138,
                    1
                ],
                "metallicFactor" : 0,
                "roughnessFactor" : 0.800000011920929
            }
        }
    ],
    "meshes" : [
        {
            "name" : "Cube.013",
            "primitives" : [
                {
                    "attributes" : {
                        "POSITION" : 0,
                        "NORMAL" : 1
                    },
                    "indices" : 2,
                    "material" : 0
                }
            ]
        }
    ],
    "accessors" : [
        {
            "bufferView" : 0,
            "componentType" : 5126,
            "count" : 809,
            "max" : [
                0.6796739101409912,
                0.7624042630195618,
                0.6796739101409912
            ],
            "min" : [
                -0.6796739101409912,
                -0.05099308118224144,
                -0.6796739101409912
            ],
            "type" : "VEC3"
        },
        {
            "bufferView" : 1,
            "componentType" : 5126,
            "count" : 809,
            "type" : "VEC3"
        },
        {
            "bufferView" : 2,
            "componentType" : 5123,
            "count" : 4416,
            "type" : "SCALAR"
        }
    ],
    "bufferViews" : [
        {
            "buffer" : 0,
            "byteLength" : 9708,
            "byteOffset" : 0
        },
        {
            "buffer" : 0,
            "byteLength" : 9708,
            "byteOffset" : 9708
        },
        {
            "buffer" : 0,
            "byteLength" : 8832,
            "byteOffset" : 19416
        }
    ],
    "buffers" : [
        {
            "byteLength" : 28248,
            "uri" : "data:application/octet-stream;base64,"
        }
    ]
}
