{
    "asset" : {
        "generator" : "Khronos glTF Blender I/O v1.3.48",
        "version" : "2.0"
    },
    "scene" : 0,
    "scenes" : [
        {
            "name" : "Scene",
            "nodes" : [
                0
            ]
        }
    ],
    "nodes" : [
        {
            "mesh" : 0,
            "name" : "psychedlic_shirt"
        }
    ],
    "materials" : [
        {
            "doubleSided" : true,
            "emissiveFactor" : [
                0,
                0,
                0
            ],
            "name" : "psychedlic_shirt.001",
            "pbrMetallicRoughness" : {
                "baseColorFactor" : [
                    0.799102783203125,
                    0.1275358498096466,
                    0.514518678188324,
                    1
                ],
                "metallicFactor" : 0,
                "roughnessFactor" : 0.800000011920929
            }
        },
        {
            "doubleSided" : true,
            "emissiveFactor" : [
                0,
                0,
                0
            ],
            "name" : "psychedlic_shirt4.001",
            "pbrMetallicRoughness" : {
                "baseColorFactor" : [
                    0.1818542331457138,
                    0.30768412351608276,
                    0.5276240706443787,
                    1
                ],
                "metallicFactor" : 0,
                "roughnessFactor" : 0.800000011920929
            }
        },
        {
            "doubleSided" : true,
            "emissiveFactor" : [
                0,
                0,
                0
            ],
            "name" : "psychedlic_shirt5.001",
            "pbrMetallicRoughness" : {
                "baseColorFactor" : [
                    0.5703718662261963,
                    0.40092334151268005,
                    0.02810228429734707,
                    1
                ],
                "metallicFactor" : 0,
                "roughnessFactor" : 0.800000011920929
            }
        },
        {
            "doubleSided" : true,
            "emissiveFactor" : [
                0,
                0,
                0
            ],
            "name" : "psychedlic_shirt3.001",
            "pbrMetallicRoughness" : {
                "baseColorFactor" : [
                    0.8139235377311707,
                    0.8139235377311707,
                    0.8139235377311707,
                    1
                ],
                "metallicFactor" : 0,
                "roughnessFactor" : 0.800000011920929
            }
        },
        {
            "doubleSided" : true,
            "emissiveFactor" : [
                0,
                0,
                0
            ],
            "name" : "psychedlic_shirt2.001",
            "pbrMetallicRoughness" : {
                "baseColorFactor" : [
                    0.010011308826506138,
                    0.010011308826506138,
                    0.010011308826506138,
                    1
                ],
                "metallicFactor" : 0,
                "roughnessFactor" : 0.800000011920929
            }
        }
    ],
    "meshes" : [
        {
            "name" : "psychedlic_shirt",
            "primitives" : [
                {
                    "attributes" : {
                        "POSITION" : 0,
                        "NORMAL" : 1
                    },
                    "indices" : 2,
                    "material" : 0
                },
                {
                    "attributes" : {
                        "POSITION" : 3,
                        "NORMAL" : 4
                    },
                    "indices" : 5,
                    "material" : 1
                },
                {
                    "attributes" : {
                        "POSITION" : 6,
                        "NORMAL" : 7
                    },
                    "indices" : 8,
                    "material" : 2
                },
                {
                    "attributes" : {
                        "POSITION" : 9,
                        "NORMAL" : 10
                    },
                    "indices" : 11,
                    "material" : 3
                },
                {
                    "attributes" : {
                        "POSITION" : 12,
                        "NORMAL" : 13
                    },
                    "indices" : 14,
                    "material" : 4
                }
            ]
        }
    ],
    "accessors" : [
        {
            "bufferView" : 0,
            "componentType" : 5126,
            "count" : 557,
            "max" : [
                0.6796739101409912,
                0.7175421118736267,
                0.6996950507164001
            ],
            "min" : [
                -0.6796739101409912,
                -0.05099773779511452,
                -0.6796739101409912
            ],
            "type" : "VEC3"
        },
        {
            "bufferView" : 1,
            "componentType" : 5126,
            "count" : 557,
            "type" : "VEC3"
        },
        {
            "bufferView" : 2,
            "componentType" : 5123,
            "count" : 2688,
            "type" : "SCALAR"
        },
        {
            "bufferView" : 3,
            "componentType" : 5126,
            "count" : 396,
            "max" : [
                0.5820640325546265,
                0.7072942852973938,
                0.689691960811615
            ],
            "min" : [
                -0.5820640325546265,
                0.06743136048316956,
                -0.2133924663066864
            ],
            "type" : "VEC3"
        },
        {
            "bufferView" : 4,
            "componentType" : 5126,
            "count" : 396,
            "type" : "VEC3"
        },
        {
            "bufferView" : 5,
            "componentType" : 5123,
            "count" : 1536,
            "type" : "SCALAR"
        },
        {
            "bufferView" : 6,
            "componentType" : 5126,
            "count" : 174,
            "max" : [
                0.1952449232339859,
                0.4646834433078766,
                0.674106240272522
            ],
            "min" : [
                -0.1952449381351471,
                0.10458850860595703,
                0.5230631828308105
            ],
            "type" : "VEC3"
        },
        {
            "bufferView" : 7,
            "componentType" : 5126,
            "count" : 174,
            "type" : "VEC3"
        },
        {
            "bufferView" : 8,
            "componentType" : 5123,
            "count" : 624,
            "type" : "SCALAR"
        },
        {
            "bufferView" : 9,
            "componentType" : 5126,
            "count" : 389,
            "max" : [
                0.6796739101409912,
                0.7353662848472595,
                0.6996950507164001
            ],
            "min" : [
                -0.6796739101409912,
                -0.08004368841648102,
                -0.6796739101409912
            ],
            "type" : "VEC3"
        },
        {
            "bufferView" : 10,
            "componentType" : 5126,
            "count" : 389,
            "type" : "VEC3"
        },
        {
            "bufferView" : 11,
            "componentType" : 5123,
            "count" : 1536,
            "type" : "SCALAR"
        },
        {
            "bufferView" : 12,
            "componentType" : 5126,
            "count" : 150,
            "max" : [
                0.2971678376197815,
                0.54127436876297,
                0.6882709860801697
            ],
            "min" : [
                -0.2971678376197815,
                0.04404440149664879,
                0.4842190146446228
            ],
            "type" : "VEC3"
        },
        {
            "bufferView" : 13,
            "componentType" : 5126,
            "count" : 150,
            "type" : "VEC3"
        },
        {
            "bufferView" : 14,
            "componentType" : 5123,
            "count" : 576,
            "type" : "SCALAR"
        }
    ],
    "bufferViews" : [
        {
            "buffer" : 0,
            "byteLength" : 6684,
            "byteOffset" : 0
        },
        {
            "buffer" : 0,
            "byteLength" : 6684,
            "byteOffset" : 6684
        },
        {
            "buffer" : 0,
            "byteLength" : 5376,
            "byteOffset" : 13368
        },
        {
            "buffer" : 0,
            "byteLength" : 4752,
            "byteOffset" : 18744
        },
        {
            "buffer" : 0,
            "byteLength" : 4752,
            "byteOffset" : 23496
        },
        {
            "buffer" : 0,
            "byteLength" : 3072,
            "byteOffset" : 28248
        },
        {
            "buffer" : 0,
            "byteLength" : 2088,
            "byteOffset" : 31320
        },
        {
            "buffer" : 0,
            "byteLength" : 2088,
            "byteOffset" : 33408
        },
        {
            "buffer" : 0,
            "byteLength" : 1248,
            "byteOffset" : 35496
        },
        {
            "buffer" : 0,
            "byteLength" : 4668,
            "byteOffset" : 36744
        },
        {
            "buffer" : 0,
            "byteLength" : 4668,
            "byteOffset" : 41412
        },
        {
            "buffer" : 0,
            "byteLength" : 3072,
            "byteOffset" : 46080
        },
        {
            "buffer" : 0,
            "byteLength" : 1800,
            "byteOffset" : 49152
        },
        {
            "buffer" : 0,
            "byteLength" : 1800,
            "byteOffset" : 50952
        },
        {
            "buffer" : 0,
            "byteLength" : 1152,
            "byteOffset" : 52752
        }
    ],
    "buffers" : [
        {
            "byteLength" : 53904,
            "uri" : "data:application/octet-stream;base64,"
        }
    ]
}
