{
    "asset" : {
        "generator" : "Khronos glTF Blender I/O v1.3.48",
        "version" : "2.0"
    },
    "scene" : 0,
    "scenes" : [
        {
            "name" : "Scene",
            "nodes" : [
                0
            ]
        }
    ],
    "nodes" : [
        {
            "mesh" : 0,
            "name" : "shirt_camo"
        }
    ],
    "materials" : [
        {
            "doubleSided" : true,
            "emissiveFactor" : [
                0,
                0,
                0
            ],
            "name" : "shirt_camo.001",
            "pbrMetallicRoughness" : {
                "baseColorFactor" : [
                    0.1125744879245758,
                    0.1423569619655609,
                    0.04326953738927841,
                    1
                ],
                "metallicFactor" : 0,
                "roughnessFactor" : 0.800000011920929
            }
        },
        {
            "doubleSided" : true,
            "emissiveFactor" : [
                0,
                0,
                0
            ],
            "name" : "shirt_camo_2.001",
            "pbrMetallicRoughness" : {
                "baseColorFactor" : [
                    0.3843008875846863,
                    0.28675389289855957,
                    0.10132276266813278,
                    1
                ],
                "metallicFactor" : 0,
                "roughnessFactor" : 0.800000011920929
            }
        },
        {
            "doubleSided" : true,
            "emissiveFactor" : [
                0,
                0,
                0
            ],
            "name" : "shirt_camo_3.001",
            "pbrMetallicRoughness" : {
                "baseColorFactor" : [
                    0.029080290347337723,
                    0.022813191637396812,
                    0.0100796427577734,
                    1
                ],
                "metallicFactor" : 0,
                "roughnessFactor" : 0.800000011920929
            }
        }
    ],
    "meshes" : [
        {
            "name" : "shirt_camo",
            "primitives" : [
                {
                    "attributes" : {
                        "POSITION" : 0,
                        "NORMAL" : 1
                    },
                    "indices" : 2,
                    "material" : 0
                },
                {
                    "attributes" : {
                        "POSITION" : 3,
                        "NORMAL" : 4
                    },
                    "indices" : 5,
                    "material" : 1
                },
                {
                    "attributes" : {
                        "POSITION" : 6,
                        "NORMAL" : 7
                    },
                    "indices" : 8,
                    "material" : 2
                }
            ]
        }
    ],
    "accessors" : [
        {
            "bufferView" : 0,
            "componentType" : 5126,
            "count" : 257,
            "max" : [
                0.6950627565383911,
                0.8221930265426636,
                0.6950627565383911
            ],
            "min" : [
                -0.6950627565383911,
                -0.051002394407987595,
                -0.6950627565383911
            ],
            "type" : "VEC3"
        },
        {
            "bufferView" : 1,
            "componentType" : 5126,
            "count" : 257,
            "type" : "VEC3"
        },
        {
            "bufferView" : 2,
            "componentType" : 5123,
            "count" : 954,
            "type" : "SCALAR"
        },
        {
            "bufferView" : 3,
            "componentType" : 5126,
            "count" : 1592,
            "max" : [
                0.6777451634407043,
                0.5769281387329102,
                0.6985552906990051
            ],
            "min" : [
                -0.6781814694404602,
                -0.02193474769592285,
                -0.6776881814002991
            ],
            "type" : "VEC3"
        },
        {
            "bufferView" : 4,
            "componentType" : 5126,
            "count" : 1592,
            "type" : "VEC3"
        },
        {
            "bufferView" : 5,
            "componentType" : 5123,
            "count" : 6804,
            "type" : "SCALAR"
        },
        {
            "bufferView" : 6,
            "componentType" : 5126,
            "count" : 832,
            "max" : [
                0.6862344145774841,
                0.527908205986023,
                0.6985552906990051
            ],
            "min" : [
                -0.6866707801818848,
                -0.020280450582504272,
                -0.6456909775733948
            ],
            "type" : "VEC3"
        },
        {
            "bufferView" : 7,
            "componentType" : 5126,
            "count" : 832,
            "type" : "VEC3"
        },
        {
            "bufferView" : 8,
            "componentType" : 5123,
            "count" : 3516,
            "type" : "SCALAR"
        }
    ],
    "bufferViews" : [
        {
            "buffer" : 0,
            "byteLength" : 3084,
            "byteOffset" : 0
        },
        {
            "buffer" : 0,
            "byteLength" : 3084,
            "byteOffset" : 3084
        },
        {
            "buffer" : 0,
            "byteLength" : 1908,
            "byteOffset" : 6168
        },
        {
            "buffer" : 0,
            "byteLength" : 19104,
            "byteOffset" : 8076
        },
        {
            "buffer" : 0,
            "byteLength" : 19104,
            "byteOffset" : 27180
        },
        {
            "buffer" : 0,
            "byteLength" : 13608,
            "byteOffset" : 46284
        },
        {
            "buffer" : 0,
            "byteLength" : 9984,
            "byteOffset" : 59892
        },
        {
            "buffer" : 0,
            "byteLength" : 9984,
            "byteOffset" : 69876
        },
        {
            "buffer" : 0,
            "byteLength" : 7032,
            "byteOffset" : 79860
        }
    ],
    "buffers" : [
        {
            "byteLength" : 86892,
            "uri" : "data:application/octet-stream;base64,"
        }
    ]
}
