{
    "asset" : {
        "generator" : "Khronos glTF Blender I/O v1.3.48",
        "version" : "2.0"
    },
    "scene" : 0,
    "scenes" : [
        {
            "name" : "Scene",
            "nodes" : [
                0
            ]
        }
    ],
    "nodes" : [
        {
            "mesh" : 0,
            "name" : "leather_jacket"
        }
    ],
    "materials" : [
        {
            "doubleSided" : true,
            "emissiveFactor" : [
                0,
                0,
                0
            ],
            "name" : "jacket.001",
            "pbrMetallicRoughness" : {
                "baseColorFactor" : [
                    0.01465725339949131,
                    0.01465725339949131,
                    0.01465725339949131,
                    1
                ],
                "metallicFactor" : 0,
                "roughnessFactor" : 0.20000000298023224
            }
        }
    ],
    "meshes" : [
        {
            "name" : "leather_jacket",
            "primitives" : [
                {
                    "attributes" : {
                        "POSITION" : 0,
                        "NORMAL" : 1
                    },
                    "indices" : 2,
                    "material" : 0
                }
            ]
        }
    ],
    "accessors" : [
        {
            "bufferView" : 0,
            "componentType" : 5126,
            "count" : 4302,
            "max" : [
                0.6761319637298584,
                0.7641872763633728,
                0.714000940322876
            ],
            "min" : [
                -0.6761321425437927,
                -0.1311255842447281,
                -0.6761321425437927
            ],
            "type" : "VEC3"
        },
        {
            "bufferView" : 1,
            "componentType" : 5126,
            "count" : 4302,
            "type" : "VEC3"
        },
        {
            "bufferView" : 2,
            "componentType" : 5123,
            "count" : 25824,
            "type" : "SCALAR"
        }
    ],
    "bufferViews" : [
        {
            "buffer" : 0,
            "byteLength" : 51624,
            "byteOffset" : 0
        },
        {
            "buffer" : 0,
            "byteLength" : 51624,
            "byteOffset" : 51624
        },
        {
            "buffer" : 0,
            "byteLength" : 51648,
            "byteOffset" : 103248
        }
    ],
    "buffers" : [
        {
            "byteLength" : 154896,
            "uri" : "data:application/octet-stream;base64,"
        }
    ]
}
