{
    "asset" : {
        "generator" : "Khronos glTF Blender I/O v1.3.48",
        "version" : "2.0"
    },
    "scene" : 0,
    "scenes" : [
        {
            "name" : "Scene",
            "nodes" : [
                0
            ]
        }
    ],
    "nodes" : [
        {
            "mesh" : 0,
            "name" : "turtle_neck"
        }
    ],
    "materials" : [
        {
            "doubleSided" : true,
            "emissiveFactor" : [
                0,
                0,
                0
            ],
            "name" : "turtle_neck",
            "pbrMetallicRoughness" : {
                "baseColorFactor" : [
                    0.799102783203125,
                    0.2788942754268646,
                    0.09305897355079651,
                    1
                ],
                "metallicFactor" : 0,
                "roughnessFactor" : 0.800000011920929
            }
        }
    ],
    "meshes" : [
        {
            "name" : "Cube.012",
            "primitives" : [
                {
                    "attributes" : {
                        "POSITION" : 0,
                        "NORMAL" : 1
                    },
                    "indices" : 2,
                    "material" : 0
                }
            ]
        }
    ],
    "accessors" : [
        {
            "bufferView" : 0,
            "componentType" : 5126,
            "count" : 810,
            "max" : [
                0.6796739101409912,
                0.800967812538147,
                0.6796739101409912
            ],
            "min" : [
                -0.6796739101409912,
                -0.05099308118224144,
                -0.6796739101409912
            ],
            "type" : "VEC3"
        },
        {
            "bufferView" : 1,
            "componentType" : 5126,
            "count" : 810,
            "type" : "VEC3"
        },
        {
            "bufferView" : 2,
            "componentType" : 5123,
            "count" : 4224,
            "type" : "SCALAR"
        }
    ],
    "bufferViews" : [
        {
            "buffer" : 0,
            "byteLength" : 9720,
            "byteOffset" : 0
        },
        {
            "buffer" : 0,
            "byteLength" : 9720,
            "byteOffset" : 9720
        },
        {
            "buffer" : 0,
            "byteLength" : 8448,
            "byteOffset" : 19440
        }
    ],
    "buffers" : [
        {
            "byteLength" : 27888,
            "uri" : "data:application/octet-stream;base64,"
        }
    ]
}
