{
    "asset" : {
        "generator" : "Khronos glTF Blender I/O v1.3.48",
        "version" : "2.0"
    },
    "scene" : 0,
    "scenes" : [
        {
            "name" : "Scene",
            "nodes" : [
                0
            ]
        }
    ],
    "nodes" : [
        {
            "mesh" : 0,
            "name" : "jason_mask"
        }
    ],
    "materials" : [
        {
            "doubleSided" : true,
            "emissiveFactor" : [
                0,
                0,
                0
            ],
            "name" : "mask_white",
            "pbrMetallicRoughness" : {
                "baseColorFactor" : [
                    0.7104532718658447,
                    0.603247880935669,
                    0.42118197679519653,
                    1
                ],
                "metallicFactor" : 0,
                "roughnessFactor" : 0.800000011920929
            }
        },
        {
            "doubleSided" : true,
            "emissiveFactor" : [
                0,
                0,
                0
            ],
            "name" : "mask_black",
            "pbrMetallicRoughness" : {
                "baseColorFactor" : [
                    0.012200543656945229,
                    0.011741159483790398,
                    0.010423935949802399,
                    1
                ],
                "metallicFactor" : 0,
                "roughnessFactor" : 0.800000011920929
            }
        },
        {
            "doubleSided" : true,
            "emissiveFactor" : [
                0,
                0,
                0
            ],
            "name" : "mask_red",
            "pbrMetallicRoughness" : {
                "baseColorFactor" : [
                    0.7104532718658447,
                    0.07614000141620636,
                    0.0557934008538723,
                    1
                ],
                "metallicFactor" : 0,
                "roughnessFactor" : 0.800000011920929
            }
        }
    ],
    "meshes" : [
        {
            "name" : "jason_mask",
            "primitives" : [
                {
                    "attributes" : {
                        "POSITION" : 0,
                        "NORMAL" : 1
                    },
                    "indices" : 2,
                    "material" : 0
                },
                {
                    "attributes" : {
                        "POSITION" : 3,
                        "NORMAL" : 4
                    },
                    "indices" : 5,
                    "material" : 1
                },
                {
                    "attributes" : {
                        "POSITION" : 6,
                        "NORMAL" : 7
                    },
                    "indices" : 8,
                    "material" : 2
                }
            ]
        }
    ],
    "accessors" : [
        {
            "bufferView" : 0,
            "componentType" : 5126,
            "count" : 1452,
            "max" : [
                0.9306901693344116,
                2.749485969543457,
                1.116224765777588
            ],
            "min" : [
                -0.9306900501251221,
                0.7548224329948425,
                0.2279529869556427
            ],
            "type" : "VEC3"
        },
        {
            "bufferView" : 1,
            "componentType" : 5126,
            "count" : 1452,
            "type" : "VEC3"
        },
        {
            "bufferView" : 2,
            "componentType" : 5123,
            "count" : 8064,
            "type" : "SCALAR"
        },
        {
            "bufferView" : 3,
            "componentType" : 5126,
            "count" : 276,
            "max" : [
                1.00540292263031,
                2.8155598640441895,
                0.3105032742023468
            ],
            "min" : [
                -1.0054028034210205,
                1.6507563591003418,
                -1.1444016695022583
            ],
            "type" : "VEC3"
        },
        {
            "bufferView" : 4,
            "componentType" : 5126,
            "count" : 276,
            "type" : "VEC3"
        },
        {
            "bufferView" : 5,
            "componentType" : 5123,
            "count" : 1296,
            "type" : "SCALAR"
        },
        {
            "bufferView" : 6,
            "componentType" : 5126,
            "count" : 22,
            "max" : [
                0.1872207671403885,
                1.982413411140442,
                0.9427185654640198
            ],
            "min" : [
                -0.1872207671403885,
                1.8909693956375122,
                0.8540772199630737
            ],
            "type" : "VEC3"
        },
        {
            "bufferView" : 7,
            "componentType" : 5126,
            "count" : 22,
            "type" : "VEC3"
        },
        {
            "bufferView" : 8,
            "componentType" : 5123,
            "count" : 72,
            "type" : "SCALAR"
        }
    ],
    "bufferViews" : [
        {
            "buffer" : 0,
            "byteLength" : 17424,
            "byteOffset" : 0
        },
        {
            "buffer" : 0,
            "byteLength" : 17424,
            "byteOffset" : 17424
        },
        {
            "buffer" : 0,
            "byteLength" : 16128,
            "byteOffset" : 34848
        },
        {
            "buffer" : 0,
            "byteLength" : 3312,
            "byteOffset" : 50976
        },
        {
            "buffer" : 0,
            "byteLength" : 3312,
            "byteOffset" : 54288
        },
        {
            "buffer" : 0,
            "byteLength" : 2592,
            "byteOffset" : 57600
        },
        {
            "buffer" : 0,
            "byteLength" : 264,
            "byteOffset" : 60192
        },
        {
            "buffer" : 0,
            "byteLength" : 264,
            "byteOffset" : 60456
        },
        {
            "buffer" : 0,
            "byteLength" : 144,
            "byteOffset" : 60720
        }
    ],
    "buffers" : [
        {
            "byteLength" : 60864,
            "uri" : "data:application/octet-stream;base64,"
        }
    ]
}
