{
    "asset" : {
        "generator" : "Khronos glTF Blender I/O v1.3.48",
        "version" : "2.0"
    },
    "scene" : 0,
    "scenes" : [
        {
            "name" : "Scene",
            "nodes" : [
                0
            ]
        }
    ],
    "nodes" : [
        {
            "mesh" : 0,
            "name" : "love_eye"
        }
    ],
    "materials" : [
        {
            "doubleSided" : true,
            "emissiveFactor" : [
                0,
                0,
                0
            ],
            "name" : "eye2",
            "pbrMetallicRoughness" : {
                "baseColorFactor" : [
                    0.5457245707511902,
                    0.08650047332048416,
                    0.07618538290262222,
                    1
                ],
                "metallicFactor" : 0,
                "roughnessFactor" : 0.800000011920929
            }
        }
    ],
    "meshes" : [
        {
            "name" : "love_eye",
            "primitives" : [
                {
                    "attributes" : {
                        "POSITION" : 0,
                        "NORMAL" : 1
                    },
                    "indices" : 2,
                    "material" : 0
                }
            ]
        }
    ],
    "accessors" : [
        {
            "bufferView" : 0,
            "componentType" : 5126,
            "count" : 580,
            "max" : [
                0.47746017575263977,
                1.8148530721664429,
                0.9129207134246826
            ],
            "min" : [
                -0.47746017575263977,
                1.64790940284729,
                0.8160092234611511
            ],
            "type" : "VEC3"
        },
        {
            "bufferView" : 1,
            "componentType" : 5126,
            "count" : 580,
            "type" : "VEC3"
        },
        {
            "bufferView" : 2,
            "componentType" : 5123,
            "count" : 3456,
            "type" : "SCALAR"
        }
    ],
    "bufferViews" : [
        {
            "buffer" : 0,
            "byteLength" : 6960,
            "byteOffset" : 0
        },
        {
            "buffer" : 0,
            "byteLength" : 6960,
            "byteOffset" : 6960
        },
        {
            "buffer" : 0,
            "byteLength" : 6912,
            "byteOffset" : 13920
        }
    ],
    "buffers" : [
        {
            "byteLength" : 20832,
            "uri" : "data:application/octet-stream;base64,"
        }
    ]
}
