{
    "asset" : {
        "generator" : "Khronos glTF Blender I/O v1.3.48",
        "version" : "2.0"
    },
    "scene" : 0,
    "scenes" : [
        {
            "name" : "Scene",
            "nodes" : [
                0
            ]
        }
    ],
    "nodes" : [
        {
            "mesh" : 0,
            "name" : "eye_person_4"
        }
    ],
    "materials" : [
        {
            "doubleSided" : true,
            "emissiveFactor" : [
                0,
                0,
                0
            ],
            "name" : "eye.004",
            "pbrMetallicRoughness" : {
                "baseColorFactor" : [
                    0.010960097424685955,
                    0.008023192174732685,
                    0.006512089632451534,
                    1
                ],
                "metallicFactor" : 0,
                "roughnessFactor" : 0.800000011920929
            }
        }
    ],
    "meshes" : [
        {
            "name" : "eye_person_3",
            "primitives" : [
                {
                    "attributes" : {
                        "POSITION" : 0,
                        "NORMAL" : 1
                    },
                    "indices" : 2,
                    "material" : 0
                }
            ]
        }
    ],
    "accessors" : [
        {
            "bufferView" : 0,
            "componentType" : 5126,
            "count" : 580,
            "max" : [
                0.5765421390533447,
                1.81205153465271,
                0.8878932595252991
            ],
            "min" : [
                -0.5765421390533447,
                1.6870824098587036,
                0.7582272291183472
            ],
            "type" : "VEC3"
        },
        {
            "bufferView" : 1,
            "componentType" : 5126,
            "count" : 580,
            "type" : "VEC3"
        },
        {
            "bufferView" : 2,
            "componentType" : 5123,
            "count" : 3456,
            "type" : "SCALAR"
        }
    ],
    "bufferViews" : [
        {
            "buffer" : 0,
            "byteLength" : 6960,
            "byteOffset" : 0
        },
        {
            "buffer" : 0,
            "byteLength" : 6960,
            "byteOffset" : 6960
        },
        {
            "buffer" : 0,
            "byteLength" : 6912,
            "byteOffset" : 13920
        }
    ],
    "buffers" : [
        {
            "byteLength" : 20832,
            "uri" : "data:application/octet-stream;base64,"
        }
    ]
}
