{
    "asset" : {
        "generator" : "Khronos glTF Blender I/O v1.3.48",
        "version" : "2.0"
    },
    "scene" : 0,
    "scenes" : [
        {
            "name" : "Scene",
            "nodes" : [
                0
            ]
        }
    ],
    "nodes" : [
        {
            "mesh" : 0,
            "name" : "dot_eye.001"
        }
    ],
    "materials" : [
        {
            "doubleSided" : true,
            "emissiveFactor" : [
                0,
                0,
                0
            ],
            "name" : "eye.002",
            "pbrMetallicRoughness" : {
                "baseColorFactor" : [
                    0.010960097424685955,
                    0.008023192174732685,
                    0.006512089632451534,
                    1
                ],
                "metallicFactor" : 0,
                "roughnessFactor" : 0.800000011920929
            }
        }
    ],
    "meshes" : [
        {
            "name" : "dot_eye.001",
            "primitives" : [
                {
                    "attributes" : {
                        "POSITION" : 0,
                        "NORMAL" : 1
                    },
                    "indices" : 2,
                    "material" : 0
                }
            ]
        }
    ],
    "accessors" : [
        {
            "bufferView" : 0,
            "componentType" : 5126,
            "count" : 964,
            "max" : [
                0.4260734021663666,
                1.781031608581543,
                0.8753043413162231
            ],
            "min" : [
                -0.4260734021663666,
                1.6988592147827148,
                0.7902610301971436
            ],
            "type" : "VEC3"
        },
        {
            "bufferView" : 1,
            "componentType" : 5126,
            "count" : 964,
            "type" : "VEC3"
        },
        {
            "bufferView" : 2,
            "componentType" : 5123,
            "count" : 5760,
            "type" : "SCALAR"
        }
    ],
    "bufferViews" : [
        {
            "buffer" : 0,
            "byteLength" : 11568,
            "byteOffset" : 0
        },
        {
            "buffer" : 0,
            "byteLength" : 11568,
            "byteOffset" : 11568
        },
        {
            "buffer" : 0,
            "byteLength" : 11520,
            "byteOffset" : 23136
        }
    ],
    "buffers" : [
        {
            "byteLength" : 34656,
            "uri" : "data:application/octet-stream;base64,"
        }
    ]
}
