{
    "asset" : {
        "generator" : "Khronos glTF Blender I/O v1.3.48",
        "version" : "2.0"
    },
    "scene" : 0,
    "scenes" : [
        {
            "name" : "Scene",
            "nodes" : [
                0
            ]
        }
    ],
    "nodes" : [
        {
            "mesh" : 0,
            "name" : "anime_eye"
        }
    ],
    "materials" : [
        {
            "doubleSided" : true,
            "emissiveFactor" : [
                0,
                0,
                0
            ],
            "name" : "eye",
            "pbrMetallicRoughness" : {
                "baseColorFactor" : [
                    0.010960097424685955,
                    0.008023192174732685,
                    0.006512089632451534,
                    1
                ],
                "metallicFactor" : 0,
                "roughnessFactor" : 0.800000011920929
            }
        },
        {
            "doubleSided" : true,
            "emissiveFactor" : [
                0,
                0,
                0
            ],
            "name" : "eye3",
            "pbrMetallicRoughness" : {
                "baseColorFactor" : [
                    0.8387991189956665,
                    0.8387991189956665,
                    0.8387991189956665,
                    1
                ],
                "metallicFactor" : 0,
                "roughnessFactor" : 0.800000011920929
            }
        },
        {
            "doubleSided" : true,
            "emissiveFactor" : [
                0,
                0,
                0
            ],
            "name" : "eye4",
            "pbrMetallicRoughness" : {
                "baseColorFactor" : [
                    0.38642948865890503,
                    0.38642948865890503,
                    0.38642948865890503,
                    1
                ],
                "metallicFactor" : 0,
                "roughnessFactor" : 0.800000011920929
            }
        }
    ],
    "meshes" : [
        {
            "name" : "anime_eye",
            "primitives" : [
                {
                    "attributes" : {
                        "POSITION" : 0,
                        "NORMAL" : 1
                    },
                    "indices" : 2,
                    "material" : 0
                },
                {
                    "attributes" : {
                        "POSITION" : 3,
                        "NORMAL" : 4
                    },
                    "indices" : 5,
                    "material" : 1
                },
                {
                    "attributes" : {
                        "POSITION" : 6,
                        "NORMAL" : 7
                    },
                    "indices" : 8,
                    "material" : 2
                }
            ]
        }
    ],
    "accessors" : [
        {
            "bufferView" : 0,
            "componentType" : 5126,
            "count" : 1780,
            "max" : [
                0.7042424082756042,
                1.933152437210083,
                0.9228094816207886
            ],
            "min" : [
                -0.7042424082756042,
                1.5859763622283936,
                0.7335781455039978
            ],
            "type" : "VEC3"
        },
        {
            "bufferView" : 1,
            "componentType" : 5126,
            "count" : 1780,
            "type" : "VEC3"
        },
        {
            "bufferView" : 2,
            "componentType" : 5123,
            "count" : 8952,
            "type" : "SCALAR"
        },
        {
            "bufferView" : 3,
            "componentType" : 5126,
            "count" : 1246,
            "max" : [
                0.6130456328392029,
                1.9073450565338135,
                0.9080958366394043
            ],
            "min" : [
                -0.6130456328392029,
                1.594204306602478,
                0.7680151462554932
            ],
            "type" : "VEC3"
        },
        {
            "bufferView" : 4,
            "componentType" : 5126,
            "count" : 1246,
            "type" : "VEC3"
        },
        {
            "bufferView" : 5,
            "componentType" : 5123,
            "count" : 6864,
            "type" : "SCALAR"
        },
        {
            "bufferView" : 6,
            "componentType" : 5126,
            "count" : 90,
            "max" : [
                0.5231528282165527,
                1.8999754190444946,
                0.8826977014541626
            ],
            "min" : [
                -0.5231528282165527,
                1.7603458166122437,
                0.8020021319389343
            ],
            "type" : "VEC3"
        },
        {
            "bufferView" : 7,
            "componentType" : 5126,
            "count" : 90,
            "type" : "VEC3"
        },
        {
            "bufferView" : 8,
            "componentType" : 5123,
            "count" : 384,
            "type" : "SCALAR"
        }
    ],
    "bufferViews" : [
        {
            "buffer" : 0,
            "byteLength" : 21360,
            "byteOffset" : 0
        },
        {
            "buffer" : 0,
            "byteLength" : 21360,
            "byteOffset" : 21360
        },
        {
            "buffer" : 0,
            "byteLength" : 17904,
            "byteOffset" : 42720
        },
        {
            "buffer" : 0,
            "byteLength" : 14952,
            "byteOffset" : 60624
        },
        {
            "buffer" : 0,
            "byteLength" : 14952,
            "byteOffset" : 75576
        },
        {
            "buffer" : 0,
            "byteLength" : 13728,
            "byteOffset" : 90528
        },
        {
            "buffer" : 0,
            "byteLength" : 1080,
            "byteOffset" : 104256
        },
        {
            "buffer" : 0,
            "byteLength" : 1080,
            "byteOffset" : 105336
        },
        {
            "buffer" : 0,
            "byteLength" : 768,
            "byteOffset" : 106416
        }
    ],
    "buffers" : [
        {
            "byteLength" : 107184,
            "uri" : "data:application/octet-stream;base64,"
        }
    ]
}
