{
    "asset" : {
        "generator" : "Khronos glTF Blender I/O v1.3.48",
        "version" : "2.0"
    },
    "scene" : 0,
    "scenes" : [
        {
            "name" : "Scene",
            "nodes" : [
                0
            ]
        }
    ],
    "nodes" : [
        {
            "mesh" : 0,
            "name" : "panda_eye"
        }
    ],
    "materials" : [
        {
            "doubleSided" : true,
            "emissiveFactor" : [
                0,
                0,
                0
            ],
            "name" : "eye3.002",
            "pbrMetallicRoughness" : {
                "baseColorFactor" : [
                    0.8387991189956665,
                    0.8387991189956665,
                    0.8387991189956665,
                    1
                ],
                "metallicFactor" : 0,
                "roughnessFactor" : 0.800000011920929
            }
        },
        {
            "doubleSided" : true,
            "emissiveFactor" : [
                0,
                0,
                0
            ],
            "name" : "eye.002",
            "pbrMetallicRoughness" : {
                "baseColorFactor" : [
                    0.010960097424685955,
                    0.008023192174732685,
                    0.006512089632451534,
                    1
                ],
                "metallicFactor" : 0,
                "roughnessFactor" : 0.800000011920929
            }
        }
    ],
    "meshes" : [
        {
            "name" : "panda_eye",
            "primitives" : [
                {
                    "attributes" : {
                        "POSITION" : 0,
                        "NORMAL" : 1
                    },
                    "indices" : 2,
                    "material" : 0
                },
                {
                    "attributes" : {
                        "POSITION" : 3,
                        "NORMAL" : 4
                    },
                    "indices" : 5,
                    "material" : 1
                }
            ]
        }
    ],
    "accessors" : [
        {
            "bufferView" : 0,
            "componentType" : 5126,
            "count" : 898,
            "max" : [
                0.467159628868103,
                1.822117567062378,
                0.9041391611099243
            ],
            "min" : [
                -0.467159628868103,
                1.6577726602554321,
                0.7414459586143494
            ],
            "type" : "VEC3"
        },
        {
            "bufferView" : 1,
            "componentType" : 5126,
            "count" : 898,
            "type" : "VEC3"
        },
        {
            "bufferView" : 2,
            "componentType" : 5123,
            "count" : 5184,
            "type" : "SCALAR"
        },
        {
            "bufferView" : 3,
            "componentType" : 5126,
            "count" : 262,
            "max" : [
                0.6212080717086792,
                1.9077317714691162,
                0.9115325212478638
            ],
            "min" : [
                -0.6212080717086792,
                1.429230809211731,
                0.7495290040969849
            ],
            "type" : "VEC3"
        },
        {
            "bufferView" : 4,
            "componentType" : 5126,
            "count" : 262,
            "type" : "VEC3"
        },
        {
            "bufferView" : 5,
            "componentType" : 5123,
            "count" : 1344,
            "type" : "SCALAR"
        }
    ],
    "bufferViews" : [
        {
            "buffer" : 0,
            "byteLength" : 10776,
            "byteOffset" : 0
        },
        {
            "buffer" : 0,
            "byteLength" : 10776,
            "byteOffset" : 10776
        },
        {
            "buffer" : 0,
            "byteLength" : 10368,
            "byteOffset" : 21552
        },
        {
            "buffer" : 0,
            "byteLength" : 3144,
            "byteOffset" : 31920
        },
        {
            "buffer" : 0,
            "byteLength" : 3144,
            "byteOffset" : 35064
        },
        {
            "buffer" : 0,
            "byteLength" : 2688,
            "byteOffset" : 38208
        }
    ],
    "buffers" : [
        {
            "byteLength" : 40896,
            "uri" : "data:application/octet-stream;base64,"
        }
    ]
}
