{
    "asset" : {
        "generator" : "Khronos glTF Blender I/O v1.3.48",
        "version" : "2.0"
    },
    "scene" : 0,
    "scenes" : [
        {
            "name" : "Scene",
            "nodes" : [
                0
            ]
        }
    ],
    "nodes" : [
        {
            "mesh" : 0,
            "name" : "durian_hair_clip"
        }
    ],
    "materials" : [
        {
            "doubleSided" : true,
            "emissiveFactor" : [
                0,
                0,
                0
            ],
            "name" : "clip_green",
            "pbrMetallicRoughness" : {
                "baseColorFactor" : [
                    0.29701265692710876,
                    0.8000000715255737,
                    0.418375700712204,
                    1
                ],
                "metallicFactor" : 0,
                "roughnessFactor" : 0.800000011920929
            }
        },
        {
            "doubleSided" : true,
            "emissiveFactor" : [
                0,
                0,
                0
            ],
            "name" : "steel",
            "pbrMetallicRoughness" : {
                "baseColorFactor" : [
                    0.6035641431808472,
                    0.6035641431808472,
                    0.6035641431808472,
                    1
                ],
                "metallicFactor" : 0,
                "roughnessFactor" : 0
            }
        },
        {
            "doubleSided" : true,
            "emissiveFactor" : [
                0,
                0,
                0
            ],
            "name" : "clip_skin",
            "pbrMetallicRoughness" : {
                "baseColorFactor" : [
                    0.882621169090271,
                    0.7149735689163208,
                    0.517819881439209,
                    1
                ],
                "metallicFactor" : 0,
                "roughnessFactor" : 0.800000011920929
            }
        },
        {
            "doubleSided" : true,
            "emissiveFactor" : [
                0,
                0,
                0
            ],
            "name" : "clip_yellow",
            "pbrMetallicRoughness" : {
                "baseColorFactor" : [
                    0.7871232628822327,
                    0.7464699745178223,
                    0.17656248807907104,
                    1
                ],
                "metallicFactor" : 0,
                "roughnessFactor" : 0.800000011920929
            }
        },
        {
            "doubleSided" : true,
            "emissiveFactor" : [
                0,
                0,
                0
            ],
            "name" : "clip_green2",
            "pbrMetallicRoughness" : {
                "baseColorFactor" : [
                    0.24886128306388855,
                    0.4290168583393097,
                    0.1476382464170456,
                    1
                ],
                "metallicFactor" : 0,
                "roughnessFactor" : 0.800000011920929
            }
        }
    ],
    "meshes" : [
        {
            "name" : "durian_hair_clip",
            "primitives" : [
                {
                    "attributes" : {
                        "POSITION" : 0,
                        "NORMAL" : 1
                    },
                    "indices" : 2,
                    "material" : 0
                },
                {
                    "attributes" : {
                        "POSITION" : 3,
                        "NORMAL" : 4
                    },
                    "indices" : 5,
                    "material" : 1
                },
                {
                    "attributes" : {
                        "POSITION" : 6,
                        "NORMAL" : 7
                    },
                    "indices" : 8,
                    "material" : 2
                },
                {
                    "attributes" : {
                        "POSITION" : 9,
                        "NORMAL" : 10
                    },
                    "indices" : 11,
                    "material" : 3
                },
                {
                    "attributes" : {
                        "POSITION" : 12,
                        "NORMAL" : 13
                    },
                    "indices" : 14,
                    "material" : 4
                }
            ]
        }
    ],
    "accessors" : [
        {
            "bufferView" : 0,
            "componentType" : 5126,
            "count" : 207,
            "max" : [
                0.9117695689201355,
                2.582416296005249,
                0.34713995456695557
            ],
            "min" : [
                0.7180036902427673,
                2.3034415245056152,
                0.042793385684490204
            ],
            "type" : "VEC3"
        },
        {
            "bufferView" : 1,
            "componentType" : 5126,
            "count" : 207,
            "type" : "VEC3"
        },
        {
            "bufferView" : 2,
            "componentType" : 5123,
            "count" : 1224,
            "type" : "SCALAR"
        },
        {
            "bufferView" : 3,
            "componentType" : 5126,
            "count" : 57,
            "max" : [
                0.897260844707489,
                2.560391426086426,
                0.2953176498413086
            ],
            "min" : [
                0.7580851912498474,
                2.33669114112854,
                0.07428845763206482
            ],
            "type" : "VEC3"
        },
        {
            "bufferView" : 4,
            "componentType" : 5126,
            "count" : 57,
            "type" : "VEC3"
        },
        {
            "bufferView" : 5,
            "componentType" : 5123,
            "count" : 312,
            "type" : "SCALAR"
        },
        {
            "bufferView" : 6,
            "componentType" : 5126,
            "count" : 71,
            "max" : [
                0.8435518741607666,
                2.6531009674072266,
                0.1527835577726364
            ],
            "min" : [
                0.7551829814910889,
                2.5625641345977783,
                0.040172141045331955
            ],
            "type" : "VEC3"
        },
        {
            "bufferView" : 7,
            "componentType" : 5126,
            "count" : 71,
            "type" : "VEC3"
        },
        {
            "bufferView" : 8,
            "componentType" : 5123,
            "count" : 288,
            "type" : "SCALAR"
        },
        {
            "bufferView" : 9,
            "componentType" : 5126,
            "count" : 64,
            "max" : [
                0.8458222150802612,
                2.6552226543426514,
                0.14412587881088257
            ],
            "min" : [
                0.7754863500595093,
                2.5827717781066895,
                0.05883896350860596
            ],
            "type" : "VEC3"
        },
        {
            "bufferView" : 10,
            "componentType" : 5126,
            "count" : 64,
            "type" : "VEC3"
        },
        {
            "bufferView" : 11,
            "componentType" : 5123,
            "count" : 288,
            "type" : "SCALAR"
        },
        {
            "bufferView" : 12,
            "componentType" : 5126,
            "count" : 169,
            "max" : [
                0.8390131592750549,
                2.6493546962738037,
                0.15703658759593964
            ],
            "min" : [
                0.7325493097305298,
                2.541285514831543,
                0.0025919824838638306
            ],
            "type" : "VEC3"
        },
        {
            "bufferView" : 13,
            "componentType" : 5126,
            "count" : 169,
            "type" : "VEC3"
        },
        {
            "bufferView" : 14,
            "componentType" : 5123,
            "count" : 960,
            "type" : "SCALAR"
        }
    ],
    "bufferViews" : [
        {
            "buffer" : 0,
            "byteLength" : 2484,
            "byteOffset" : 0
        },
        {
            "buffer" : 0,
            "byteLength" : 2484,
            "byteOffset" : 2484
        },
        {
            "buffer" : 0,
            "byteLength" : 2448,
            "byteOffset" : 4968
        },
        {
            "buffer" : 0,
            "byteLength" : 684,
            "byteOffset" : 7416
        },
        {
            "buffer" : 0,
            "byteLength" : 684,
            "byteOffset" : 8100
        },
        {
            "buffer" : 0,
            "byteLength" : 624,
            "byteOffset" : 8784
        },
        {
            "buffer" : 0,
            "byteLength" : 852,
            "byteOffset" : 9408
        },
        {
            "buffer" : 0,
            "byteLength" : 852,
            "byteOffset" : 10260
        },
        {
            "buffer" : 0,
            "byteLength" : 576,
            "byteOffset" : 11112
        },
        {
            "buffer" : 0,
            "byteLength" : 768,
            "byteOffset" : 11688
        },
        {
            "buffer" : 0,
            "byteLength" : 768,
            "byteOffset" : 12456
        },
        {
            "buffer" : 0,
            "byteLength" : 576,
            "byteOffset" : 13224
        },
        {
            "buffer" : 0,
            "byteLength" : 2028,
            "byteOffset" : 13800
        },
        {
            "buffer" : 0,
            "byteLength" : 2028,
            "byteOffset" : 15828
        },
        {
            "buffer" : 0,
            "byteLength" : 1920,
            "byteOffset" : 17856
        }
    ],
    "buffers" : [
        {
            "byteLength" : 19776,
            "uri" : "data:application/octet-stream;base64,"
        }
    ]
}
