{
    "asset" : {
        "generator" : "Khronos glTF Blender I/O v1.3.48",
        "version" : "2.0"
    },
    "scene" : 0,
    "scenes" : [
        {
            "name" : "Scene",
            "nodes" : [
                0
            ]
        }
    ],
    "nodes" : [
        {
            "mesh" : 0,
            "name" : "hair_band"
        }
    ],
    "materials" : [
        {
            "doubleSided" : true,
            "emissiveFactor" : [
                0,
                0,
                0
            ],
            "name" : "hair_band_pink",
            "pbrMetallicRoughness" : {
                "baseColorFactor" : [
                    1,
                    0.22009418904781342,
                    0.8496583104133606,
                    1
                ],
                "metallicFactor" : 0,
                "roughnessFactor" : 0.800000011920929
            }
        },
        {
            "doubleSided" : true,
            "emissiveFactor" : [
                0,
                0,
                0
            ],
            "name" : "hair_band_white",
            "pbrMetallicRoughness" : {
                "baseColorFactor" : [
                    0.8684758543968201,
                    0.8684758543968201,
                    0.8684758543968201,
                    1
                ],
                "metallicFactor" : 0,
                "roughnessFactor" : 0.800000011920929
            }
        }
    ],
    "meshes" : [
        {
            "name" : "hair_band",
            "primitives" : [
                {
                    "attributes" : {
                        "POSITION" : 0,
                        "NORMAL" : 1
                    },
                    "indices" : 2,
                    "material" : 0
                },
                {
                    "attributes" : {
                        "POSITION" : 3,
                        "NORMAL" : 4
                    },
                    "indices" : 5,
                    "material" : 1
                }
            ]
        }
    ],
    "accessors" : [
        {
            "bufferView" : 0,
            "componentType" : 5126,
            "count" : 373,
            "max" : [
                1.1378238201141357,
                2.88814377784729,
                0.38040176033973694
            ],
            "min" : [
                -1.1378238201141357,
                1.4769072532653809,
                -0.21153667569160461
            ],
            "type" : "VEC3"
        },
        {
            "bufferView" : 1,
            "componentType" : 5126,
            "count" : 373,
            "type" : "VEC3"
        },
        {
            "bufferView" : 2,
            "componentType" : 5123,
            "count" : 1182,
            "type" : "SCALAR"
        },
        {
            "bufferView" : 3,
            "componentType" : 5126,
            "count" : 146,
            "max" : [
                1.106027364730835,
                2.8474254608154297,
                0.21082112193107605
            ],
            "min" : [
                -1.106027364730835,
                1.8616050481796265,
                -0.060882776975631714
            ],
            "type" : "VEC3"
        },
        {
            "bufferView" : 4,
            "componentType" : 5126,
            "count" : 146,
            "type" : "VEC3"
        },
        {
            "bufferView" : 5,
            "componentType" : 5123,
            "count" : 408,
            "type" : "SCALAR"
        }
    ],
    "bufferViews" : [
        {
            "buffer" : 0,
            "byteLength" : 4476,
            "byteOffset" : 0
        },
        {
            "buffer" : 0,
            "byteLength" : 4476,
            "byteOffset" : 4476
        },
        {
            "buffer" : 0,
            "byteLength" : 2364,
            "byteOffset" : 8952
        },
        {
            "buffer" : 0,
            "byteLength" : 1752,
            "byteOffset" : 11316
        },
        {
            "buffer" : 0,
            "byteLength" : 1752,
            "byteOffset" : 13068
        },
        {
            "buffer" : 0,
            "byteLength" : 816,
            "byteOffset" : 14820
        }
    ],
    "buffers" : [
        {
            "byteLength" : 15636,
            "uri" : "data:application/octet-stream;base64,"
        }
    ]
}
