{
    "asset" : {
        "generator" : "Khronos glTF Blender I/O v1.3.48",
        "version" : "2.0"
    },
    "scene" : 0,
    "scenes" : [
        {
            "name" : "Scene",
            "nodes" : [
                0
            ]
        }
    ],
    "nodes" : [
        {
            "mesh" : 0,
            "name" : "pearl_hair_clip"
        }
    ],
    "materials" : [
        {
            "doubleSided" : true,
            "emissiveFactor" : [
                0,
                0,
                0
            ],
            "name" : "steel2",
            "pbrMetallicRoughness" : {
                "baseColorFactor" : [
                    1,
                    1,
                    1,
                    1
                ],
                "metallicFactor" : 0,
                "roughnessFactor" : 0
            }
        },
        {
            "doubleSided" : true,
            "emissiveFactor" : [
                0,
                0,
                0
            ],
            "name" : "steel",
            "pbrMetallicRoughness" : {
                "baseColorFactor" : [
                    0.6035641431808472,
                    0.6035641431808472,
                    0.6035641431808472,
                    1
                ],
                "metallicFactor" : 0,
                "roughnessFactor" : 0
            }
        }
    ],
    "meshes" : [
        {
            "name" : "pearl_hair_clip",
            "primitives" : [
                {
                    "attributes" : {
                        "POSITION" : 0,
                        "NORMAL" : 1
                    },
                    "indices" : 2,
                    "material" : 0
                },
                {
                    "attributes" : {
                        "POSITION" : 3,
                        "NORMAL" : 4
                    },
                    "indices" : 5,
                    "material" : 1
                }
            ]
        }
    ],
    "accessors" : [
        {
            "bufferView" : 0,
            "componentType" : 5126,
            "count" : 1663,
            "max" : [
                0.9365254640579224,
                2.6384599208831787,
                0.25196024775505066
            ],
            "min" : [
                0.7047725915908813,
                2.33821964263916,
                -0.02071581967175007
            ],
            "type" : "VEC3"
        },
        {
            "bufferView" : 1,
            "componentType" : 5126,
            "count" : 1663,
            "type" : "VEC3"
        },
        {
            "bufferView" : 2,
            "componentType" : 5123,
            "count" : 9216,
            "type" : "SCALAR"
        },
        {
            "bufferView" : 3,
            "componentType" : 5126,
            "count" : 256,
            "max" : [
                0.916948676109314,
                2.6239449977874756,
                0.24823789298534393
            ],
            "min" : [
                0.6917080879211426,
                2.3153038024902344,
                -0.027936862781643867
            ],
            "type" : "VEC3"
        },
        {
            "bufferView" : 4,
            "componentType" : 5126,
            "count" : 256,
            "type" : "VEC3"
        },
        {
            "bufferView" : 5,
            "componentType" : 5123,
            "count" : 1536,
            "type" : "SCALAR"
        }
    ],
    "bufferViews" : [
        {
            "buffer" : 0,
            "byteLength" : 19956,
            "byteOffset" : 0
        },
        {
            "buffer" : 0,
            "byteLength" : 19956,
            "byteOffset" : 19956
        },
        {
            "buffer" : 0,
            "byteLength" : 18432,
            "byteOffset" : 39912
        },
        {
            "buffer" : 0,
            "byteLength" : 3072,
            "byteOffset" : 58344
        },
        {
            "buffer" : 0,
            "byteLength" : 3072,
            "byteOffset" : 61416
        },
        {
            "buffer" : 0,
            "byteLength" : 3072,
            "byteOffset" : 64488
        }
    ],
    "buffers" : [
        {
            "byteLength" : 67560,
            "uri" : "data:application/octet-stream;base64,"
        }
    ]
}
