{
    "asset" : {
        "generator" : "Khronos glTF Blender I/O v1.3.48",
        "version" : "2.0"
    },
    "scene" : 0,
    "scenes" : [
        {
            "name" : "Scene",
            "nodes" : [
                0
            ]
        }
    ],
    "nodes" : [
        {
            "mesh" : 0,
            "name" : "cat_head_hair_clip"
        }
    ],
    "materials" : [
        {
            "doubleSided" : true,
            "emissiveFactor" : [
                0,
                0,
                0
            ],
            "name" : "clip_gold",
            "pbrMetallicRoughness" : {
                "baseColorFactor" : [
                    0.7871224284172058,
                    0.6594623923301697,
                    0.3526681661605835,
                    1
                ],
                "metallicFactor" : 0,
                "roughnessFactor" : 0.20000000298023224
            }
        },
        {
            "doubleSided" : true,
            "emissiveFactor" : [
                0,
                0,
                0
            ],
            "name" : "clip_white",
            "pbrMetallicRoughness" : {
                "baseColorFactor" : [
                    1,
                    1,
                    1,
                    1
                ],
                "metallicFactor" : 0,
                "roughnessFactor" : 0.800000011920929
            }
        }
    ],
    "meshes" : [
        {
            "name" : "cat_head_hair_clip",
            "primitives" : [
                {
                    "attributes" : {
                        "POSITION" : 0,
                        "NORMAL" : 1
                    },
                    "indices" : 2,
                    "material" : 0
                },
                {
                    "attributes" : {
                        "POSITION" : 3,
                        "NORMAL" : 4
                    },
                    "indices" : 5,
                    "material" : 1
                }
            ]
        }
    ],
    "accessors" : [
        {
            "bufferView" : 0,
            "componentType" : 5126,
            "count" : 366,
            "max" : [
                0.9740347862243652,
                2.638587713241577,
                0.40539583563804626
            ],
            "min" : [
                0.7080592513084412,
                2.3814282417297363,
                -0.042812857776880264
            ],
            "type" : "VEC3"
        },
        {
            "bufferView" : 1,
            "componentType" : 5126,
            "count" : 366,
            "type" : "VEC3"
        },
        {
            "bufferView" : 2,
            "componentType" : 5123,
            "count" : 2160,
            "type" : "SCALAR"
        },
        {
            "bufferView" : 3,
            "componentType" : 5126,
            "count" : 98,
            "max" : [
                0.8662388324737549,
                2.5015640258789062,
                0.20523518323898315
            ],
            "min" : [
                0.82155841588974,
                2.4571964740753174,
                0.1604861468076706
            ],
            "type" : "VEC3"
        },
        {
            "bufferView" : 4,
            "componentType" : 5126,
            "count" : 98,
            "type" : "VEC3"
        },
        {
            "bufferView" : 5,
            "componentType" : 5123,
            "count" : 576,
            "type" : "SCALAR"
        }
    ],
    "bufferViews" : [
        {
            "buffer" : 0,
            "byteLength" : 4392,
            "byteOffset" : 0
        },
        {
            "buffer" : 0,
            "byteLength" : 4392,
            "byteOffset" : 4392
        },
        {
            "buffer" : 0,
            "byteLength" : 4320,
            "byteOffset" : 8784
        },
        {
            "buffer" : 0,
            "byteLength" : 1176,
            "byteOffset" : 13104
        },
        {
            "buffer" : 0,
            "byteLength" : 1176,
            "byteOffset" : 14280
        },
        {
            "buffer" : 0,
            "byteLength" : 1152,
            "byteOffset" : 15456
        }
    ],
    "buffers" : [
        {
            "byteLength" : 16608,
            "uri" : "data:application/octet-stream;base64,"
        }
    ]
}
