{
    "asset" : {
        "generator" : "Khronos glTF Blender I/O v1.3.48",
        "version" : "2.0"
    },
    "scene" : 0,
    "scenes" : [
        {
            "name" : "Scene",
            "nodes" : [
                0
            ]
        }
    ],
    "nodes" : [
        {
            "mesh" : 0,
            "name" : "hair_band_heart"
        }
    ],
    "materials" : [
        {
            "doubleSided" : true,
            "emissiveFactor" : [
                0,
                0,
                0
            ],
            "name" : "hair_band_white",
            "pbrMetallicRoughness" : {
                "baseColorFactor" : [
                    0.8684758543968201,
                    0.8684758543968201,
                    0.8684758543968201,
                    1
                ],
                "metallicFactor" : 0,
                "roughnessFactor" : 0.800000011920929
            }
        },
        {
            "doubleSided" : true,
            "emissiveFactor" : [
                0,
                0,
                0
            ],
            "name" : "hair_band_pink",
            "pbrMetallicRoughness" : {
                "baseColorFactor" : [
                    1,
                    0.22009418904781342,
                    0.8496583104133606,
                    1
                ],
                "metallicFactor" : 0,
                "roughnessFactor" : 0.800000011920929
            }
        }
    ],
    "meshes" : [
        {
            "name" : "hair_band_heart",
            "primitives" : [
                {
                    "attributes" : {
                        "POSITION" : 0,
                        "NORMAL" : 1
                    },
                    "indices" : 2,
                    "material" : 0
                },
                {
                    "attributes" : {
                        "POSITION" : 3,
                        "NORMAL" : 4
                    },
                    "indices" : 5,
                    "material" : 1
                }
            ]
        }
    ],
    "accessors" : [
        {
            "bufferView" : 0,
            "componentType" : 5126,
            "count" : 267,
            "max" : [
                1.1375970840454102,
                2.873225688934326,
                0.2882830500602722
            ],
            "min" : [
                -1.1375970840454102,
                1.478502869606018,
                -0.17653626203536987
            ],
            "type" : "VEC3"
        },
        {
            "bufferView" : 1,
            "componentType" : 5126,
            "count" : 267,
            "type" : "VEC3"
        },
        {
            "bufferView" : 2,
            "componentType" : 5123,
            "count" : 1590,
            "type" : "SCALAR"
        },
        {
            "bufferView" : 3,
            "componentType" : 5126,
            "count" : 258,
            "max" : [
                1.133547067642212,
                2.83669376373291,
                0.3907597064971924
            ],
            "min" : [
                0.6469834446907043,
                2.26737380027771,
                -0.06942903250455856
            ],
            "type" : "VEC3"
        },
        {
            "bufferView" : 4,
            "componentType" : 5126,
            "count" : 258,
            "type" : "VEC3"
        },
        {
            "bufferView" : 5,
            "componentType" : 5123,
            "count" : 1524,
            "type" : "SCALAR"
        }
    ],
    "bufferViews" : [
        {
            "buffer" : 0,
            "byteLength" : 3204,
            "byteOffset" : 0
        },
        {
            "buffer" : 0,
            "byteLength" : 3204,
            "byteOffset" : 3204
        },
        {
            "buffer" : 0,
            "byteLength" : 3180,
            "byteOffset" : 6408
        },
        {
            "buffer" : 0,
            "byteLength" : 3096,
            "byteOffset" : 9588
        },
        {
            "buffer" : 0,
            "byteLength" : 3096,
            "byteOffset" : 12684
        },
        {
            "buffer" : 0,
            "byteLength" : 3048,
            "byteOffset" : 15780
        }
    ],
    "buffers" : [
        {
            "byteLength" : 18828,
            "uri" : "data:application/octet-stream;base64,"
        }
    ]
}
