{
    "asset" : {
        "generator" : "Khronos glTF Blender I/O v1.3.48",
        "version" : "2.0"
    },
    "scene" : 0,
    "scenes" : [
        {
            "name" : "Scene",
            "nodes" : [
                0
            ]
        }
    ],
    "nodes" : [
        {
            "mesh" : 0,
            "name" : "dino_egg"
        }
    ],
    "materials" : [
        {
            "doubleSided" : true,
            "emissiveFactor" : [
                0,
                0,
                0
            ],
            "name" : "big_egg_3",
            "pbrMetallicRoughness" : {
                "baseColorFactor" : [
                    0.4624612629413605,
                    0.4419926702976227,
                    0.7104532718658447,
                    1
                ],
                "metallicFactor" : 0,
                "roughnessFactor" : 0.800000011920929
            }
        },
        {
            "doubleSided" : true,
            "emissiveFactor" : [
                0,
                0,
                0
            ],
            "name" : "big_egg",
            "pbrMetallicRoughness" : {
                "baseColorFactor" : [
                    0.7104532718658447,
                    0.6732637882232666,
                    0.5686195492744446,
                    1
                ],
                "metallicFactor" : 0,
                "roughnessFactor" : 0.800000011920929
            }
        },
        {
            "doubleSided" : true,
            "emissiveFactor" : [
                0,
                0,
                0
            ],
            "name" : "big_egg_4",
            "pbrMetallicRoughness" : {
                "baseColorFactor" : [
                    0.7104532718658447,
                    0.6357282996177673,
                    0.35761758685112,
                    1
                ],
                "metallicFactor" : 0,
                "roughnessFactor" : 0.800000011920929
            }
        },
        {
            "doubleSided" : true,
            "emissiveFactor" : [
                0,
                0,
                0
            ],
            "name" : "big_egg_2",
            "pbrMetallicRoughness" : {
                "baseColorFactor" : [
                    0.7104532718658447,
                    0.10836271196603775,
                    0.08305258303880692,
                    1
                ],
                "metallicFactor" : 0,
                "roughnessFactor" : 0.800000011920929
            }
        }
    ],
    "meshes" : [
        {
            "name" : "dino_egg",
            "primitives" : [
                {
                    "attributes" : {
                        "POSITION" : 0,
                        "NORMAL" : 1
                    },
                    "indices" : 2,
                    "material" : 0
                },
                {
                    "attributes" : {
                        "POSITION" : 3,
                        "NORMAL" : 4
                    },
                    "indices" : 5,
                    "material" : 1
                },
                {
                    "attributes" : {
                        "POSITION" : 6,
                        "NORMAL" : 7
                    },
                    "indices" : 8,
                    "material" : 2
                },
                {
                    "attributes" : {
                        "POSITION" : 9,
                        "NORMAL" : 10
                    },
                    "indices" : 11,
                    "material" : 3
                }
            ]
        }
    ],
    "accessors" : [
        {
            "bufferView" : 0,
            "componentType" : 5126,
            "count" : 64,
            "max" : [
                0.2154863476753235,
                0.3374191224575043,
                0.2154863476753235
            ],
            "min" : [
                -0.2154863476753235,
                -0.21889322996139526,
                -0.2154863476753235
            ],
            "type" : "VEC3"
        },
        {
            "bufferView" : 1,
            "componentType" : 5126,
            "count" : 64,
            "type" : "VEC3"
        },
        {
            "bufferView" : 2,
            "componentType" : 5123,
            "count" : 168,
            "type" : "SCALAR"
        },
        {
            "bufferView" : 3,
            "componentType" : 5126,
            "count" : 80,
            "max" : [
                0.20257669687271118,
                0.2783981263637543,
                0.20257669687271118
            ],
            "min" : [
                -0.20257669687271118,
                -0.1909532994031906,
                -0.20257669687271118
            ],
            "type" : "VEC3"
        },
        {
            "bufferView" : 4,
            "componentType" : 5126,
            "count" : 80,
            "type" : "VEC3"
        },
        {
            "bufferView" : 5,
            "componentType" : 5123,
            "count" : 240,
            "type" : "SCALAR"
        },
        {
            "bufferView" : 6,
            "componentType" : 5126,
            "count" : 64,
            "max" : [
                0.2154863476753235,
                0.3374191224575043,
                0.2154863476753235
            ],
            "min" : [
                -0.2154863476753235,
                -0.21889322996139526,
                -0.2154863476753235
            ],
            "type" : "VEC3"
        },
        {
            "bufferView" : 7,
            "componentType" : 5126,
            "count" : 64,
            "type" : "VEC3"
        },
        {
            "bufferView" : 8,
            "componentType" : 5123,
            "count" : 168,
            "type" : "SCALAR"
        },
        {
            "bufferView" : 9,
            "componentType" : 5126,
            "count" : 32,
            "max" : [
                0.2154863476753235,
                0.08332961052656174,
                0.2154863476753235
            ],
            "min" : [
                -0.2154863476753235,
                -0.05196094140410423,
                -0.2154863476753235
            ],
            "type" : "VEC3"
        },
        {
            "bufferView" : 10,
            "componentType" : 5126,
            "count" : 32,
            "type" : "VEC3"
        },
        {
            "bufferView" : 11,
            "componentType" : 5123,
            "count" : 96,
            "type" : "SCALAR"
        }
    ],
    "bufferViews" : [
        {
            "buffer" : 0,
            "byteLength" : 768,
            "byteOffset" : 0
        },
        {
            "buffer" : 0,
            "byteLength" : 768,
            "byteOffset" : 768
        },
        {
            "buffer" : 0,
            "byteLength" : 336,
            "byteOffset" : 1536
        },
        {
            "buffer" : 0,
            "byteLength" : 960,
            "byteOffset" : 1872
        },
        {
            "buffer" : 0,
            "byteLength" : 960,
            "byteOffset" : 2832
        },
        {
            "buffer" : 0,
            "byteLength" : 480,
            "byteOffset" : 3792
        },
        {
            "buffer" : 0,
            "byteLength" : 768,
            "byteOffset" : 4272
        },
        {
            "buffer" : 0,
            "byteLength" : 768,
            "byteOffset" : 5040
        },
        {
            "buffer" : 0,
            "byteLength" : 336,
            "byteOffset" : 5808
        },
        {
            "buffer" : 0,
            "byteLength" : 384,
            "byteOffset" : 6144
        },
        {
            "buffer" : 0,
            "byteLength" : 384,
            "byteOffset" : 6528
        },
        {
            "buffer" : 0,
            "byteLength" : 192,
            "byteOffset" : 6912
        }
    ],
    "buffers" : [
        {
            "byteLength" : 7104,
            "uri" : "data:application/octet-stream;base64,"
        }
    ]
}
