{
    "asset" : {
        "generator" : "Khronos glTF Blender I/O v1.3.48",
        "version" : "2.0"
    },
    "scene" : 0,
    "scenes" : [
        {
            "name" : "Scene",
            "nodes" : [
                0
            ]
        }
    ],
    "nodes" : [
        {
            "mesh" : 0,
            "name" : "duck"
        }
    ],
    "materials" : [
        {
            "doubleSided" : true,
            "emissiveFactor" : [
                0,
                0,
                0
            ],
            "name" : "duck1",
            "pbrMetallicRoughness" : {
                "baseColorFactor" : [
                    0.6129170060157776,
                    0.5963590145111084,
                    0.638251006603241,
                    1
                ],
                "metallicFactor" : 0,
                "roughnessFactor" : 0.5
            }
        },
        {
            "doubleSided" : true,
            "emissiveFactor" : [
                0,
                0,
                0
            ],
            "name" : "duck3",
            "pbrMetallicRoughness" : {
                "baseColorFactor" : [
                    0.6499810218811035,
                    0.42371800541877747,
                    0.026241999119520187,
                    1
                ],
                "metallicFactor" : 0,
                "roughnessFactor" : 0.5
            }
        },
        {
            "doubleSided" : true,
            "emissiveFactor" : [
                0,
                0,
                0
            ],
            "name" : "duck7",
            "pbrMetallicRoughness" : {
                "baseColorFactor" : [
                    0.0063680000603199005,
                    0.0063680000603199005,
                    0.0063680000603199005,
                    1
                ],
                "metallicFactor" : 0,
                "roughnessFactor" : 0.5
            }
        },
        {
            "doubleSided" : true,
            "emissiveFactor" : [
                0,
                0,
                0
            ],
            "name" : "duck4",
            "pbrMetallicRoughness" : {
                "baseColorFactor" : [
                    0.638247013092041,
                    0.20520800352096558,
                    0.07992299646139145,
                    1
                ],
                "metallicFactor" : 0,
                "roughnessFactor" : 0.5
            }
        }
    ],
    "meshes" : [
        {
            "name" : "duck",
            "primitives" : [
                {
                    "attributes" : {
                        "POSITION" : 0,
                        "NORMAL" : 1
                    },
                    "indices" : 2,
                    "material" : 0
                },
                {
                    "attributes" : {
                        "POSITION" : 3,
                        "NORMAL" : 4
                    },
                    "indices" : 5,
                    "material" : 1
                },
                {
                    "attributes" : {
                        "POSITION" : 6,
                        "NORMAL" : 7
                    },
                    "indices" : 8,
                    "material" : 2
                },
                {
                    "attributes" : {
                        "POSITION" : 9,
                        "NORMAL" : 10
                    },
                    "indices" : 11,
                    "material" : 3
                }
            ]
        }
    ],
    "accessors" : [
        {
            "bufferView" : 0,
            "componentType" : 5126,
            "count" : 717,
            "max" : [
                0.12233609706163406,
                0.5000140070915222,
                0.17231418192386627
            ],
            "min" : [
                -0.12233609706163406,
                0.0713464617729187,
                -0.28914767503738403
            ],
            "type" : "VEC3"
        },
        {
            "bufferView" : 1,
            "componentType" : 5126,
            "count" : 717,
            "type" : "VEC3"
        },
        {
            "bufferView" : 2,
            "componentType" : 5123,
            "count" : 4158,
            "type" : "SCALAR"
        },
        {
            "bufferView" : 3,
            "componentType" : 5126,
            "count" : 235,
            "max" : [
                0.028843998908996582,
                0.42917221784591675,
                0.23740139603614807
            ],
            "min" : [
                -0.028843998908996582,
                0.3565772473812103,
                0.13914939761161804
            ],
            "type" : "VEC3"
        },
        {
            "bufferView" : 4,
            "componentType" : 5126,
            "count" : 235,
            "type" : "VEC3"
        },
        {
            "bufferView" : 5,
            "componentType" : 5123,
            "count" : 1362,
            "type" : "SCALAR"
        },
        {
            "bufferView" : 6,
            "componentType" : 5126,
            "count" : 228,
            "max" : [
                0.04521018639206886,
                0.4734787046909332,
                0.12366905063390732
            ],
            "min" : [
                -0.04521018639206886,
                0.43903055787086487,
                0.09350012242794037
            ],
            "type" : "VEC3"
        },
        {
            "bufferView" : 7,
            "componentType" : 5126,
            "count" : 228,
            "type" : "VEC3"
        },
        {
            "bufferView" : 8,
            "componentType" : 5123,
            "count" : 1320,
            "type" : "SCALAR"
        },
        {
            "bufferView" : 9,
            "componentType" : 5126,
            "count" : 832,
            "max" : [
                0.11709041148424149,
                0.11013182997703552,
                0.02161695994436741
            ],
            "min" : [
                -0.11709041148424149,
                0.00019053411961067468,
                -0.12006012350320816
            ],
            "type" : "VEC3"
        },
        {
            "bufferView" : 10,
            "componentType" : 5126,
            "count" : 832,
            "type" : "VEC3"
        },
        {
            "bufferView" : 11,
            "componentType" : 5123,
            "count" : 4932,
            "type" : "SCALAR"
        }
    ],
    "bufferViews" : [
        {
            "buffer" : 0,
            "byteLength" : 8604,
            "byteOffset" : 0
        },
        {
            "buffer" : 0,
            "byteLength" : 8604,
            "byteOffset" : 8604
        },
        {
            "buffer" : 0,
            "byteLength" : 8316,
            "byteOffset" : 17208
        },
        {
            "buffer" : 0,
            "byteLength" : 2820,
            "byteOffset" : 25524
        },
        {
            "buffer" : 0,
            "byteLength" : 2820,
            "byteOffset" : 28344
        },
        {
            "buffer" : 0,
            "byteLength" : 2724,
            "byteOffset" : 31164
        },
        {
            "buffer" : 0,
            "byteLength" : 2736,
            "byteOffset" : 33888
        },
        {
            "buffer" : 0,
            "byteLength" : 2736,
            "byteOffset" : 36624
        },
        {
            "buffer" : 0,
            "byteLength" : 2640,
            "byteOffset" : 39360
        },
        {
            "buffer" : 0,
            "byteLength" : 9984,
            "byteOffset" : 42000
        },
        {
            "buffer" : 0,
            "byteLength" : 9984,
            "byteOffset" : 51984
        },
        {
            "buffer" : 0,
            "byteLength" : 9864,
            "byteOffset" : 61968
        }
    ],
    "buffers" : [
        {
            "byteLength" : 71832,
            "uri" : "data:application/octet-stream;base64,"
        }
    ]
}
