{
    "asset" : {
        "generator" : "Khronos glTF Blender I/O v1.3.48",
        "version" : "2.0"
    },
    "scene" : 0,
    "scenes" : [
        {
            "name" : "Scene",
            "nodes" : [
                0
            ]
        }
    ],
    "nodes" : [
        {
            "mesh" : 0,
            "name" : "chicken"
        }
    ],
    "materials" : [
        {
            "doubleSided" : true,
            "emissiveFactor" : [
                0,
                0,
                0
            ],
            "name" : "animal_white",
            "pbrMetallicRoughness" : {
                "baseColorFactor" : [
                    0.800000011920929,
                    0.800000011920929,
                    0.800000011920929,
                    1
                ],
                "metallicFactor" : 0,
                "roughnessFactor" : 0.800000011920929
            }
        },
        {
            "doubleSided" : true,
            "emissiveFactor" : [
                0,
                0,
                0
            ],
            "name" : "animal_red",
            "pbrMetallicRoughness" : {
                "baseColorFactor" : [
                    0.8000000715255737,
                    0.05239962041378021,
                    0.05239962041378021,
                    1
                ],
                "metallicFactor" : 0,
                "roughnessFactor" : 0.800000011920929
            }
        },
        {
            "doubleSided" : true,
            "emissiveFactor" : [
                0,
                0,
                0
            ],
            "name" : "animal_black",
            "pbrMetallicRoughness" : {
                "baseColorFactor" : [
                    0.007171535864472389,
                    0.007171535864472389,
                    0.007171535864472389,
                    1
                ],
                "metallicFactor" : 0,
                "roughnessFactor" : 0.800000011920929
            }
        },
        {
            "doubleSided" : true,
            "emissiveFactor" : [
                0,
                0,
                0
            ],
            "name" : "animal_pink",
            "pbrMetallicRoughness" : {
                "baseColorFactor" : [
                    0.8000000715255737,
                    0.498820960521698,
                    0.6866637468338013,
                    1
                ],
                "metallicFactor" : 0,
                "roughnessFactor" : 0.800000011920929
            }
        }
    ],
    "meshes" : [
        {
            "name" : "chicken",
            "primitives" : [
                {
                    "attributes" : {
                        "POSITION" : 0,
                        "NORMAL" : 1
                    },
                    "indices" : 2,
                    "material" : 0
                },
                {
                    "attributes" : {
                        "POSITION" : 3,
                        "NORMAL" : 4
                    },
                    "indices" : 5,
                    "material" : 1
                },
                {
                    "attributes" : {
                        "POSITION" : 6,
                        "NORMAL" : 7
                    },
                    "indices" : 8,
                    "material" : 2
                },
                {
                    "attributes" : {
                        "POSITION" : 9,
                        "NORMAL" : 10
                    },
                    "indices" : 11,
                    "material" : 3
                }
            ]
        }
    ],
    "accessors" : [
        {
            "bufferView" : 0,
            "componentType" : 5126,
            "count" : 513,
            "max" : [
                0.8523762822151184,
                -0.021815281361341476,
                0.07184728235006332
            ],
            "min" : [
                0.6870719790458679,
                -0.2577747404575348,
                -0.12567834556102753
            ],
            "type" : "VEC3"
        },
        {
            "bufferView" : 1,
            "componentType" : 5126,
            "count" : 513,
            "type" : "VEC3"
        },
        {
            "bufferView" : 2,
            "componentType" : 5123,
            "count" : 2754,
            "type" : "SCALAR"
        },
        {
            "bufferView" : 3,
            "componentType" : 5126,
            "count" : 39,
            "max" : [
                0.7768667936325073,
                -0.01376610342413187,
                0.06939491629600525
            ],
            "min" : [
                0.7625815272331238,
                -0.07125362008810043,
                0.045103125274181366
            ],
            "type" : "VEC3"
        },
        {
            "bufferView" : 4,
            "componentType" : 5126,
            "count" : 39,
            "type" : "VEC3"
        },
        {
            "bufferView" : 5,
            "componentType" : 5123,
            "count" : 168,
            "type" : "SCALAR"
        },
        {
            "bufferView" : 6,
            "componentType" : 5126,
            "count" : 30,
            "max" : [
                0.7812498211860657,
                -0.032831527292728424,
                0.04985487461090088
            ],
            "min" : [
                0.7581984996795654,
                -0.03807457163929939,
                0.044243987649679184
            ],
            "type" : "VEC3"
        },
        {
            "bufferView" : 7,
            "componentType" : 5126,
            "count" : 30,
            "type" : "VEC3"
        },
        {
            "bufferView" : 8,
            "componentType" : 5123,
            "count" : 96,
            "type" : "SCALAR"
        },
        {
            "bufferView" : 9,
            "componentType" : 5126,
            "count" : 226,
            "max" : [
                0.8259380459785461,
                -0.24829041957855225,
                0.0011366450926288962
            ],
            "min" : [
                0.713510274887085,
                -0.27014651894569397,
                -0.047580987215042114
            ],
            "type" : "VEC3"
        },
        {
            "bufferView" : 10,
            "componentType" : 5126,
            "count" : 226,
            "type" : "VEC3"
        },
        {
            "bufferView" : 11,
            "componentType" : 5123,
            "count" : 1296,
            "type" : "SCALAR"
        }
    ],
    "bufferViews" : [
        {
            "buffer" : 0,
            "byteLength" : 6156,
            "byteOffset" : 0
        },
        {
            "buffer" : 0,
            "byteLength" : 6156,
            "byteOffset" : 6156
        },
        {
            "buffer" : 0,
            "byteLength" : 5508,
            "byteOffset" : 12312
        },
        {
            "buffer" : 0,
            "byteLength" : 468,
            "byteOffset" : 17820
        },
        {
            "buffer" : 0,
            "byteLength" : 468,
            "byteOffset" : 18288
        },
        {
            "buffer" : 0,
            "byteLength" : 336,
            "byteOffset" : 18756
        },
        {
            "buffer" : 0,
            "byteLength" : 360,
            "byteOffset" : 19092
        },
        {
            "buffer" : 0,
            "byteLength" : 360,
            "byteOffset" : 19452
        },
        {
            "buffer" : 0,
            "byteLength" : 192,
            "byteOffset" : 19812
        },
        {
            "buffer" : 0,
            "byteLength" : 2712,
            "byteOffset" : 20004
        },
        {
            "buffer" : 0,
            "byteLength" : 2712,
            "byteOffset" : 22716
        },
        {
            "buffer" : 0,
            "byteLength" : 2592,
            "byteOffset" : 25428
        }
    ],
    "buffers" : [
        {
            "byteLength" : 28020,
            "uri" : "data:application/octet-stream;base64,"
        }
    ]
}
