{
    "asset" : {
        "generator" : "Khronos glTF Blender I/O v1.3.48",
        "version" : "2.0"
    },
    "scene" : 0,
    "scenes" : [
        {
            "name" : "Scene",
            "nodes" : [
                0
            ]
        }
    ],
    "nodes" : [
        {
            "mesh" : 0,
            "name" : "dog"
        }
    ],
    "materials" : [
        {
            "doubleSided" : true,
            "emissiveFactor" : [
                0,
                0,
                0
            ],
            "name" : "dog",
            "pbrMetallicRoughness" : {
                "baseColorFactor" : [
                    0.06678999960422516,
                    0.03517499938607216,
                    0.024328000843524933,
                    1
                ],
                "metallicFactor" : 0,
                "roughnessFactor" : 0.800000011920929
            }
        },
        {
            "doubleSided" : true,
            "emissiveFactor" : [
                0,
                0,
                0
            ],
            "name" : "dog2",
            "pbrMetallicRoughness" : {
                "baseColorFactor" : [
                    0.011080999858677387,
                    0.006783999968320131,
                    0.005204000044614077,
                    1
                ],
                "metallicFactor" : 0,
                "roughnessFactor" : 0.800000011920929
            }
        }
    ],
    "meshes" : [
        {
            "name" : "dog",
            "primitives" : [
                {
                    "attributes" : {
                        "POSITION" : 0,
                        "NORMAL" : 1
                    },
                    "indices" : 2,
                    "material" : 0
                },
                {
                    "attributes" : {
                        "POSITION" : 3,
                        "NORMAL" : 4
                    },
                    "indices" : 5,
                    "material" : 1
                }
            ]
        }
    ],
    "accessors" : [
        {
            "bufferView" : 0,
            "componentType" : 5126,
            "count" : 2110,
            "max" : [
                0.08297201991081238,
                0.38148659467697144,
                0.26658540964126587
            ],
            "min" : [
                -0.08297201991081238,
                -0.00025235116481781006,
                -0.22318626940250397
            ],
            "type" : "VEC3"
        },
        {
            "bufferView" : 1,
            "componentType" : 5126,
            "count" : 2110,
            "type" : "VEC3"
        },
        {
            "bufferView" : 2,
            "componentType" : 5123,
            "count" : 13164,
            "type" : "SCALAR"
        },
        {
            "bufferView" : 3,
            "componentType" : 5126,
            "count" : 68,
            "max" : [
                0.032351378351449966,
                0.34372061491012573,
                0.2302306592464447
            ],
            "min" : [
                -0.032351378351449966,
                0.329497754573822,
                0.2160077542066574
            ],
            "type" : "VEC3"
        },
        {
            "bufferView" : 4,
            "componentType" : 5126,
            "count" : 68,
            "type" : "VEC3"
        },
        {
            "bufferView" : 5,
            "componentType" : 5123,
            "count" : 384,
            "type" : "SCALAR"
        }
    ],
    "bufferViews" : [
        {
            "buffer" : 0,
            "byteLength" : 25320,
            "byteOffset" : 0
        },
        {
            "buffer" : 0,
            "byteLength" : 25320,
            "byteOffset" : 25320
        },
        {
            "buffer" : 0,
            "byteLength" : 26328,
            "byteOffset" : 50640
        },
        {
            "buffer" : 0,
            "byteLength" : 816,
            "byteOffset" : 76968
        },
        {
            "buffer" : 0,
            "byteLength" : 816,
            "byteOffset" : 77784
        },
        {
            "buffer" : 0,
            "byteLength" : 768,
            "byteOffset" : 78600
        }
    ],
    "buffers" : [
        {
            "byteLength" : 79368,
            "uri" : "data:application/octet-stream;base64,"
        }
    ]
}
