{
    "asset" : {
        "generator" : "Khronos glTF Blender I/O v1.3.48",
        "version" : "2.0"
    },
    "scene" : 0,
    "scenes" : [
        {
            "name" : "Scene",
            "nodes" : [
                0
            ]
        }
    ],
    "nodes" : [
        {
            "mesh" : 0,
            "name" : "dino"
        }
    ],
    "materials" : [
        {
            "doubleSided" : true,
            "emissiveFactor" : [
                0,
                0,
                0
            ],
            "name" : "animal_brown2",
            "pbrMetallicRoughness" : {
                "baseColorFactor" : [
                    0.1573622226715088,
                    0.06661747395992279,
                    0.056714776903390884,
                    1
                ],
                "metallicFactor" : 0,
                "roughnessFactor" : 0.800000011920929
            }
        },
        {
            "doubleSided" : true,
            "emissiveFactor" : [
                0,
                0,
                0
            ],
            "name" : "animal_brown",
            "pbrMetallicRoughness" : {
                "baseColorFactor" : [
                    0.04196657985448837,
                    0.01952771283686161,
                    0.016981955617666245,
                    1
                ],
                "metallicFactor" : 0,
                "roughnessFactor" : 0.800000011920929
            }
        }
    ],
    "meshes" : [
        {
            "name" : "dino",
            "primitives" : [
                {
                    "attributes" : {
                        "POSITION" : 0,
                        "NORMAL" : 1
                    },
                    "indices" : 2,
                    "material" : 0
                },
                {
                    "attributes" : {
                        "POSITION" : 3,
                        "NORMAL" : 4
                    },
                    "indices" : 5,
                    "material" : 1
                }
            ]
        }
    ],
    "accessors" : [
        {
            "bufferView" : 0,
            "componentType" : 5126,
            "count" : 698,
            "max" : [
                0.8898248672485352,
                -0.06773290783166885,
                0.31039464473724365
            ],
            "min" : [
                0.71645188331604,
                -0.19497224688529968,
                -0.4399230480194092
            ],
            "type" : "VEC3"
        },
        {
            "bufferView" : 1,
            "componentType" : 5126,
            "count" : 698,
            "type" : "VEC3"
        },
        {
            "bufferView" : 2,
            "componentType" : 5123,
            "count" : 3822,
            "type" : "SCALAR"
        },
        {
            "bufferView" : 3,
            "componentType" : 5126,
            "count" : 1208,
            "max" : [
                0.8984880447387695,
                -0.08554142713546753,
                0.2964811325073242
            ],
            "min" : [
                0.7077886462211609,
                -0.3523961901664734,
                -0.4398702383041382
            ],
            "type" : "VEC3"
        },
        {
            "bufferView" : 4,
            "componentType" : 5126,
            "count" : 1208,
            "type" : "VEC3"
        },
        {
            "bufferView" : 5,
            "componentType" : 5123,
            "count" : 6876,
            "type" : "SCALAR"
        }
    ],
    "bufferViews" : [
        {
            "buffer" : 0,
            "byteLength" : 8376,
            "byteOffset" : 0
        },
        {
            "buffer" : 0,
            "byteLength" : 8376,
            "byteOffset" : 8376
        },
        {
            "buffer" : 0,
            "byteLength" : 7644,
            "byteOffset" : 16752
        },
        {
            "buffer" : 0,
            "byteLength" : 14496,
            "byteOffset" : 24396
        },
        {
            "buffer" : 0,
            "byteLength" : 14496,
            "byteOffset" : 38892
        },
        {
            "buffer" : 0,
            "byteLength" : 13752,
            "byteOffset" : 53388
        }
    ],
    "buffers" : [
        {
            "byteLength" : 67140,
            "uri" : "data:application/octet-stream;base64,"
        }
    ]
}
