{
    "asset" : {
        "generator" : "Khronos glTF Blender I/O v1.3.48",
        "version" : "2.0"
    },
    "scene" : 0,
    "scenes" : [
        {
            "name" : "Scene",
            "nodes" : [
                0
            ]
        }
    ],
    "nodes" : [
        {
            "mesh" : 0,
            "name" : "pig_toy"
        }
    ],
    "materials" : [
        {
            "doubleSided" : true,
            "emissiveFactor" : [
                0,
                0,
                0
            ],
            "name" : "animal_pink",
            "pbrMetallicRoughness" : {
                "baseColorFactor" : [
                    0.8000000715255737,
                    0.498820960521698,
                    0.6866637468338013,
                    1
                ],
                "metallicFactor" : 0,
                "roughnessFactor" : 0.800000011920929
            }
        },
        {
            "doubleSided" : true,
            "emissiveFactor" : [
                0,
                0,
                0
            ],
            "name" : "animal_black",
            "pbrMetallicRoughness" : {
                "baseColorFactor" : [
                    0.007171535864472389,
                    0.007171535864472389,
                    0.007171535864472389,
                    1
                ],
                "metallicFactor" : 0,
                "roughnessFactor" : 0.800000011920929
            }
        }
    ],
    "meshes" : [
        {
            "name" : "pig_toy",
            "primitives" : [
                {
                    "attributes" : {
                        "POSITION" : 0,
                        "NORMAL" : 1
                    },
                    "indices" : 2,
                    "material" : 0
                },
                {
                    "attributes" : {
                        "POSITION" : 3,
                        "NORMAL" : 4
                    },
                    "indices" : 5,
                    "material" : 1
                }
            ]
        }
    ],
    "accessors" : [
        {
            "bufferView" : 0,
            "componentType" : 5126,
            "count" : 597,
            "max" : [
                0.8971914649009705,
                -0.053887344896793365,
                0.2551538646221161
            ],
            "min" : [
                0.6680225729942322,
                -0.30990517139434814,
                -0.2197732776403427
            ],
            "type" : "VEC3"
        },
        {
            "bufferView" : 1,
            "componentType" : 5126,
            "count" : 597,
            "type" : "VEC3"
        },
        {
            "bufferView" : 2,
            "componentType" : 5123,
            "count" : 3546,
            "type" : "SCALAR"
        },
        {
            "bufferView" : 3,
            "componentType" : 5126,
            "count" : 24,
            "max" : [
                0.8313583135604858,
                -0.14997917413711548,
                0.18087521195411682
            ],
            "min" : [
                0.7338557243347168,
                -0.16364982724189758,
                0.16902543604373932
            ],
            "type" : "VEC3"
        },
        {
            "bufferView" : 4,
            "componentType" : 5126,
            "count" : 24,
            "type" : "VEC3"
        },
        {
            "bufferView" : 5,
            "componentType" : 5123,
            "count" : 96,
            "type" : "SCALAR"
        }
    ],
    "bufferViews" : [
        {
            "buffer" : 0,
            "byteLength" : 7164,
            "byteOffset" : 0
        },
        {
            "buffer" : 0,
            "byteLength" : 7164,
            "byteOffset" : 7164
        },
        {
            "buffer" : 0,
            "byteLength" : 7092,
            "byteOffset" : 14328
        },
        {
            "buffer" : 0,
            "byteLength" : 288,
            "byteOffset" : 21420
        },
        {
            "buffer" : 0,
            "byteLength" : 288,
            "byteOffset" : 21708
        },
        {
            "buffer" : 0,
            "byteLength" : 192,
            "byteOffset" : 21996
        }
    ],
    "buffers" : [
        {
            "byteLength" : 22188,
            "uri" : "data:application/octet-stream;base64,"
        }
    ]
}
