{
    "asset" : {
        "generator" : "Khronos glTF Blender I/O v1.3.48",
        "version" : "2.0"
    },
    "scene" : 0,
    "scenes" : [
        {
            "name" : "Scene",
            "nodes" : [
                0
            ]
        }
    ],
    "nodes" : [
        {
            "mesh" : 0,
            "name" : "camel"
        }
    ],
    "materials" : [
        {
            "doubleSided" : true,
            "emissiveFactor" : [
                0,
                0,
                0
            ],
            "name" : "camel.001",
            "pbrMetallicRoughness" : {
                "baseColorFactor" : [
                    0.37549158930778503,
                    0.20762701332569122,
                    0.1454167366027832,
                    1
                ],
                "metallicFactor" : 0,
                "roughnessFactor" : 0.800000011920929
            }
        },
        {
            "doubleSided" : true,
            "emissiveFactor" : [
                0,
                0,
                0
            ],
            "name" : "animal_black.001",
            "pbrMetallicRoughness" : {
                "baseColorFactor" : [
                    0.007171535864472389,
                    0.007171535864472389,
                    0.007171535864472389,
                    1
                ],
                "metallicFactor" : 0,
                "roughnessFactor" : 0.800000011920929
            }
        }
    ],
    "meshes" : [
        {
            "name" : "camel.001",
            "primitives" : [
                {
                    "attributes" : {
                        "POSITION" : 0,
                        "NORMAL" : 1,
                        "TEXCOORD_0" : 2
                    },
                    "indices" : 3,
                    "material" : 0
                },
                {
                    "attributes" : {
                        "POSITION" : 4,
                        "NORMAL" : 5,
                        "TEXCOORD_0" : 6
                    },
                    "indices" : 7,
                    "material" : 1
                }
            ]
        }
    ],
    "accessors" : [
        {
            "bufferView" : 0,
            "componentType" : 5126,
            "count" : 894,
            "max" : [
                1.0522208213806152,
                0.3229605257511139,
                0.5868220925331116
            ],
            "min" : [
                0.8400943875312805,
                -0.3186089098453522,
                -0.22815701365470886
            ],
            "type" : "VEC3"
        },
        {
            "bufferView" : 1,
            "componentType" : 5126,
            "count" : 894,
            "type" : "VEC3"
        },
        {
            "bufferView" : 2,
            "componentType" : 5126,
            "count" : 894,
            "type" : "VEC2"
        },
        {
            "bufferView" : 3,
            "componentType" : 5123,
            "count" : 4566,
            "type" : "SCALAR"
        },
        {
            "bufferView" : 4,
            "componentType" : 5126,
            "count" : 52,
            "max" : [
                1.007479190826416,
                0.2920644283294678,
                0.4653930068016052
            ],
            "min" : [
                0.8848347663879395,
                0.25936102867126465,
                0.43069085478782654
            ],
            "type" : "VEC3"
        },
        {
            "bufferView" : 5,
            "componentType" : 5126,
            "count" : 52,
            "type" : "VEC3"
        },
        {
            "bufferView" : 6,
            "componentType" : 5126,
            "count" : 52,
            "type" : "VEC2"
        },
        {
            "bufferView" : 7,
            "componentType" : 5123,
            "count" : 288,
            "type" : "SCALAR"
        }
    ],
    "bufferViews" : [
        {
            "buffer" : 0,
            "byteLength" : 10728,
            "byteOffset" : 0
        },
        {
            "buffer" : 0,
            "byteLength" : 10728,
            "byteOffset" : 10728
        },
        {
            "buffer" : 0,
            "byteLength" : 7152,
            "byteOffset" : 21456
        },
        {
            "buffer" : 0,
            "byteLength" : 9132,
            "byteOffset" : 28608
        },
        {
            "buffer" : 0,
            "byteLength" : 624,
            "byteOffset" : 37740
        },
        {
            "buffer" : 0,
            "byteLength" : 624,
            "byteOffset" : 38364
        },
        {
            "buffer" : 0,
            "byteLength" : 416,
            "byteOffset" : 38988
        },
        {
            "buffer" : 0,
            "byteLength" : 576,
            "byteOffset" : 39404
        }
    ],
    "buffers" : [
        {
            "byteLength" : 39980,
            "uri" : "data:application/octet-stream;base64,"
        }
    ]
}
