{
    "asset" : {
        "generator" : "Khronos glTF Blender I/O v1.3.48",
        "version" : "2.0"
    },
    "scene" : 0,
    "scenes" : [
        {
            "name" : "Scene",
            "nodes" : [
                0
            ]
        }
    ],
    "nodes" : [
        {
            "mesh" : 0,
            "name" : "cat"
        }
    ],
    "materials" : [
        {
            "doubleSided" : true,
            "emissiveFactor" : [
                0,
                0,
                0
            ],
            "name" : "cat",
            "pbrMetallicRoughness" : {
                "baseColorFactor" : [
                    0.6037700176239014,
                    0.2338629961013794,
                    0.0727979987859726,
                    1
                ],
                "metallicFactor" : 0,
                "roughnessFactor" : 0.800000011920929
            }
        },
        {
            "doubleSided" : true,
            "emissiveFactor" : [
                0,
                0,
                0
            ],
            "name" : "cat1",
            "pbrMetallicRoughness" : {
                "baseColorFactor" : [
                    0.5704259872436523,
                    0.5704259872436523,
                    0.5704259872436523,
                    1
                ],
                "metallicFactor" : 0,
                "roughnessFactor" : 0.800000011920929
            }
        },
        {
            "doubleSided" : true,
            "emissiveFactor" : [
                0,
                0,
                0
            ],
            "name" : "cat2",
            "pbrMetallicRoughness" : {
                "baseColorFactor" : [
                    0.004238999914377928,
                    0.004238999914377928,
                    0.004238999914377928,
                    1
                ],
                "metallicFactor" : 0,
                "roughnessFactor" : 0.800000011920929
            }
        }
    ],
    "meshes" : [
        {
            "name" : "cat",
            "primitives" : [
                {
                    "attributes" : {
                        "POSITION" : 0,
                        "NORMAL" : 1
                    },
                    "indices" : 2,
                    "material" : 0
                },
                {
                    "attributes" : {
                        "POSITION" : 3,
                        "NORMAL" : 4
                    },
                    "indices" : 5,
                    "material" : 1
                },
                {
                    "attributes" : {
                        "POSITION" : 6,
                        "NORMAL" : 7
                    },
                    "indices" : 8,
                    "material" : 2
                }
            ]
        }
    ],
    "accessors" : [
        {
            "bufferView" : 0,
            "componentType" : 5126,
            "count" : 545,
            "max" : [
                0.07356025278568268,
                0.2951417863368988,
                0.20268581807613373
            ],
            "min" : [
                -0.07356025278568268,
                -0.0010718675330281258,
                -0.19554121792316437
            ],
            "type" : "VEC3"
        },
        {
            "bufferView" : 1,
            "componentType" : 5126,
            "count" : 545,
            "type" : "VEC3"
        },
        {
            "bufferView" : 2,
            "componentType" : 5123,
            "count" : 3132,
            "type" : "SCALAR"
        },
        {
            "bufferView" : 3,
            "componentType" : 5126,
            "count" : 153,
            "max" : [
                0.0586908757686615,
                0.29192042350769043,
                0.20268581807613373
            ],
            "min" : [
                -0.0586908757686615,
                -0.0017966164741665125,
                -0.22603735327720642
            ],
            "type" : "VEC3"
        },
        {
            "bufferView" : 4,
            "componentType" : 5126,
            "count" : 153,
            "type" : "VEC3"
        },
        {
            "bufferView" : 5,
            "componentType" : 5123,
            "count" : 660,
            "type" : "SCALAR"
        },
        {
            "bufferView" : 6,
            "componentType" : 5126,
            "count" : 54,
            "max" : [
                0.022653840482234955,
                0.24548037350177765,
                0.1885094791650772
            ],
            "min" : [
                -0.022653840482234955,
                0.23331105709075928,
                0.17616596817970276
            ],
            "type" : "VEC3"
        },
        {
            "bufferView" : 7,
            "componentType" : 5126,
            "count" : 54,
            "type" : "VEC3"
        },
        {
            "bufferView" : 8,
            "componentType" : 5123,
            "count" : 288,
            "type" : "SCALAR"
        }
    ],
    "bufferViews" : [
        {
            "buffer" : 0,
            "byteLength" : 6540,
            "byteOffset" : 0
        },
        {
            "buffer" : 0,
            "byteLength" : 6540,
            "byteOffset" : 6540
        },
        {
            "buffer" : 0,
            "byteLength" : 6264,
            "byteOffset" : 13080
        },
        {
            "buffer" : 0,
            "byteLength" : 1836,
            "byteOffset" : 19344
        },
        {
            "buffer" : 0,
            "byteLength" : 1836,
            "byteOffset" : 21180
        },
        {
            "buffer" : 0,
            "byteLength" : 1320,
            "byteOffset" : 23016
        },
        {
            "buffer" : 0,
            "byteLength" : 648,
            "byteOffset" : 24336
        },
        {
            "buffer" : 0,
            "byteLength" : 648,
            "byteOffset" : 24984
        },
        {
            "buffer" : 0,
            "byteLength" : 576,
            "byteOffset" : 25632
        }
    ],
    "buffers" : [
        {
            "byteLength" : 26208,
            "uri" : "data:application/octet-stream;base64,"
        }
    ]
}
