{
    "asset" : {
        "generator" : "Khronos glTF Blender I/O v1.3.48",
        "version" : "2.0"
    },
    "scene" : 0,
    "scenes" : [
        {
            "name" : "Scene",
            "nodes" : [
                0
            ]
        }
    ],
    "nodes" : [
        {
            "mesh" : 0,
            "name" : "gorilla"
        }
    ],
    "materials" : [
        {
            "doubleSided" : true,
            "emissiveFactor" : [
                0,
                0,
                0
            ],
            "name" : "gorilla",
            "pbrMetallicRoughness" : {
                "baseColorFactor" : [
                    0.046950001269578934,
                    0.046950001269578934,
                    0.046950001269578934,
                    1
                ],
                "metallicFactor" : 0,
                "roughnessFactor" : 0.5
            }
        },
        {
            "doubleSided" : true,
            "emissiveFactor" : [
                0,
                0,
                0
            ],
            "name" : "gorilla2",
            "pbrMetallicRoughness" : {
                "baseColorFactor" : [
                    0.2809770107269287,
                    0.2809770107269287,
                    0.2809770107269287,
                    1
                ],
                "metallicFactor" : 0,
                "roughnessFactor" : 0.5
            }
        }
    ],
    "meshes" : [
        {
            "name" : "gorilla",
            "primitives" : [
                {
                    "attributes" : {
                        "POSITION" : 0,
                        "NORMAL" : 1
                    },
                    "indices" : 2,
                    "material" : 0
                },
                {
                    "attributes" : {
                        "POSITION" : 3,
                        "NORMAL" : 4
                    },
                    "indices" : 5,
                    "material" : 1
                }
            ]
        }
    ],
    "accessors" : [
        {
            "bufferView" : 0,
            "componentType" : 5126,
            "count" : 1644,
            "max" : [
                0.22725655138492584,
                0.6610773801803589,
                0.11716552823781967
            ],
            "min" : [
                -0.22725655138492584,
                0.0002490783226676285,
                -0.10371612012386322
            ],
            "type" : "VEC3"
        },
        {
            "bufferView" : 1,
            "componentType" : 5126,
            "count" : 1644,
            "type" : "VEC3"
        },
        {
            "bufferView" : 2,
            "componentType" : 5123,
            "count" : 9456,
            "type" : "SCALAR"
        },
        {
            "bufferView" : 3,
            "componentType" : 5126,
            "count" : 244,
            "max" : [
                0.10524935275316238,
                0.5407313108444214,
                0.1156466007232666
            ],
            "min" : [
                -0.10524935275316238,
                0.17918230593204498,
                0.01005207933485508
            ],
            "type" : "VEC3"
        },
        {
            "bufferView" : 4,
            "componentType" : 5126,
            "count" : 244,
            "type" : "VEC3"
        },
        {
            "bufferView" : 5,
            "componentType" : 5123,
            "count" : 1116,
            "type" : "SCALAR"
        }
    ],
    "bufferViews" : [
        {
            "buffer" : 0,
            "byteLength" : 19728,
            "byteOffset" : 0
        },
        {
            "buffer" : 0,
            "byteLength" : 19728,
            "byteOffset" : 19728
        },
        {
            "buffer" : 0,
            "byteLength" : 18912,
            "byteOffset" : 39456
        },
        {
            "buffer" : 0,
            "byteLength" : 2928,
            "byteOffset" : 58368
        },
        {
            "buffer" : 0,
            "byteLength" : 2928,
            "byteOffset" : 61296
        },
        {
            "buffer" : 0,
            "byteLength" : 2232,
            "byteOffset" : 64224
        }
    ],
    "buffers" : [
        {
            "byteLength" : 66456,
            "uri" : "data:application/octet-stream;base64,"
        }
    ]
}
