{
    "asset" : {
        "generator" : "Khronos glTF Blender I/O v1.3.48",
        "version" : "2.0"
    },
    "scene" : 0,
    "scenes" : [
        {
            "name" : "Scene",
            "nodes" : [
                0
            ]
        }
    ],
    "nodes" : [
        {
            "mesh" : 0,
            "name" : "fish"
        }
    ],
    "materials" : [
        {
            "doubleSided" : true,
            "emissiveFactor" : [
                0,
                0,
                0
            ],
            "name" : "fish3",
            "pbrMetallicRoughness" : {
                "baseColorFactor" : [
                    0.7742159962654114,
                    0.7742159962654114,
                    0.7742159962654114,
                    1
                ],
                "metallicFactor" : 0,
                "roughnessFactor" : 0.5
            }
        },
        {
            "doubleSided" : true,
            "emissiveFactor" : [
                0,
                0,
                0
            ],
            "name" : "fish4",
            "pbrMetallicRoughness" : {
                "baseColorFactor" : [
                    0.029089000076055527,
                    0.029089000076055527,
                    0.029089000076055527,
                    1
                ],
                "metallicFactor" : 0,
                "roughnessFactor" : 0.5
            }
        },
        {
            "doubleSided" : true,
            "emissiveFactor" : [
                0,
                0,
                0
            ],
            "name" : "fish2",
            "pbrMetallicRoughness" : {
                "baseColorFactor" : [
                    0.800000011920929,
                    0.27798599004745483,
                    0.07374700158834457,
                    1
                ],
                "metallicFactor" : 0,
                "roughnessFactor" : 0.5
            }
        },
        {
            "doubleSided" : true,
            "emissiveFactor" : [
                0,
                0,
                0
            ],
            "name" : "fish",
            "pbrMetallicRoughness" : {
                "baseColorFactor" : [
                    0.800000011920929,
                    0.5283520221710205,
                    0.1522749960422516,
                    1
                ],
                "metallicFactor" : 0,
                "roughnessFactor" : 0.5
            }
        }
    ],
    "meshes" : [
        {
            "name" : "fish",
            "primitives" : [
                {
                    "attributes" : {
                        "POSITION" : 0,
                        "NORMAL" : 1
                    },
                    "indices" : 2,
                    "material" : 0
                },
                {
                    "attributes" : {
                        "POSITION" : 3,
                        "NORMAL" : 4
                    },
                    "indices" : 5,
                    "material" : 1
                },
                {
                    "attributes" : {
                        "POSITION" : 6,
                        "NORMAL" : 7
                    },
                    "indices" : 8,
                    "material" : 2
                },
                {
                    "attributes" : {
                        "POSITION" : 9,
                        "NORMAL" : 10
                    },
                    "indices" : 11,
                    "material" : 3
                }
            ]
        }
    ],
    "accessors" : [
        {
            "bufferView" : 0,
            "componentType" : 5126,
            "count" : 194,
            "max" : [
                0.06838852167129517,
                0.06815315037965775,
                0.10394667834043503
            ],
            "min" : [
                -0.06838852167129517,
                0.007133860606700182,
                0.04363252595067024
            ],
            "type" : "VEC3"
        },
        {
            "bufferView" : 1,
            "componentType" : 5126,
            "count" : 194,
            "type" : "VEC3"
        },
        {
            "bufferView" : 2,
            "componentType" : 5123,
            "count" : 1056,
            "type" : "SCALAR"
        },
        {
            "bufferView" : 3,
            "componentType" : 5126,
            "count" : 66,
            "max" : [
                0.06636708974838257,
                0.0642281323671341,
                0.10394667834043503
            ],
            "min" : [
                -0.06636708974838257,
                0.022118564695119858,
                0.07943744957447052
            ],
            "type" : "VEC3"
        },
        {
            "bufferView" : 4,
            "componentType" : 5126,
            "count" : 66,
            "type" : "VEC3"
        },
        {
            "bufferView" : 5,
            "componentType" : 5123,
            "count" : 288,
            "type" : "SCALAR"
        },
        {
            "bufferView" : 6,
            "componentType" : 5126,
            "count" : 243,
            "max" : [
                0.11433225125074387,
                0.1533229500055313,
                -0.007957314141094685
            ],
            "min" : [
                -0.11433225125074387,
                -0.07193350791931152,
                -0.2798652946949005
            ],
            "type" : "VEC3"
        },
        {
            "bufferView" : 7,
            "componentType" : 5126,
            "count" : 243,
            "type" : "VEC3"
        },
        {
            "bufferView" : 8,
            "componentType" : 5123,
            "count" : 1368,
            "type" : "SCALAR"
        },
        {
            "bufferView" : 9,
            "componentType" : 5126,
            "count" : 725,
            "max" : [
                0.11211477965116501,
                0.1231040358543396,
                0.1805478036403656
            ],
            "min" : [
                -0.11211477965116501,
                -0.13781960308551788,
                -0.1974313110113144
            ],
            "type" : "VEC3"
        },
        {
            "bufferView" : 10,
            "componentType" : 5126,
            "count" : 725,
            "type" : "VEC3"
        },
        {
            "bufferView" : 11,
            "componentType" : 5123,
            "count" : 4284,
            "type" : "SCALAR"
        }
    ],
    "bufferViews" : [
        {
            "buffer" : 0,
            "byteLength" : 2328,
            "byteOffset" : 0
        },
        {
            "buffer" : 0,
            "byteLength" : 2328,
            "byteOffset" : 2328
        },
        {
            "buffer" : 0,
            "byteLength" : 2112,
            "byteOffset" : 4656
        },
        {
            "buffer" : 0,
            "byteLength" : 792,
            "byteOffset" : 6768
        },
        {
            "buffer" : 0,
            "byteLength" : 792,
            "byteOffset" : 7560
        },
        {
            "buffer" : 0,
            "byteLength" : 576,
            "byteOffset" : 8352
        },
        {
            "buffer" : 0,
            "byteLength" : 2916,
            "byteOffset" : 8928
        },
        {
            "buffer" : 0,
            "byteLength" : 2916,
            "byteOffset" : 11844
        },
        {
            "buffer" : 0,
            "byteLength" : 2736,
            "byteOffset" : 14760
        },
        {
            "buffer" : 0,
            "byteLength" : 8700,
            "byteOffset" : 17496
        },
        {
            "buffer" : 0,
            "byteLength" : 8700,
            "byteOffset" : 26196
        },
        {
            "buffer" : 0,
            "byteLength" : 8568,
            "byteOffset" : 34896
        }
    ],
    "buffers" : [
        {
            "byteLength" : 43464,
            "uri" : "data:application/octet-stream;base64,"
        }
    ]
}
