{
    "asset" : {
        "generator" : "Khronos glTF Blender I/O v1.3.48",
        "version" : "2.0"
    },
    "scene" : 0,
    "scenes" : [
        {
            "name" : "Scene",
            "nodes" : [
                0
            ]
        }
    ],
    "nodes" : [
        {
            "mesh" : 0,
            "name" : "pikachu"
        }
    ],
    "materials" : [
        {
            "doubleSided" : true,
            "emissiveFactor" : [
                0,
                0,
                0
            ],
            "name" : "pikachu",
            "pbrMetallicRoughness" : {
                "baseColorFactor" : [
                    0.800000011920929,
                    0.5283520221710205,
                    0.1522749960422516,
                    1
                ],
                "metallicFactor" : 0,
                "roughnessFactor" : 0.5
            }
        },
        {
            "doubleSided" : true,
            "emissiveFactor" : [
                0,
                0,
                0
            ],
            "name" : "pikachu3",
            "pbrMetallicRoughness" : {
                "baseColorFactor" : [
                    0.029089000076055527,
                    0.029089000076055527,
                    0.029089000076055527,
                    1
                ],
                "metallicFactor" : 0,
                "roughnessFactor" : 0.5
            }
        },
        {
            "doubleSided" : true,
            "emissiveFactor" : [
                0,
                0,
                0
            ],
            "name" : "pikachu5",
            "pbrMetallicRoughness" : {
                "baseColorFactor" : [
                    1,
                    1,
                    1,
                    1
                ],
                "metallicFactor" : 0,
                "roughnessFactor" : 0.5
            }
        },
        {
            "doubleSided" : true,
            "emissiveFactor" : [
                0,
                0,
                0
            ],
            "name" : "pikachu2",
            "pbrMetallicRoughness" : {
                "baseColorFactor" : [
                    0.800000011920929,
                    0.1389169991016388,
                    0.1745229959487915,
                    1
                ],
                "metallicFactor" : 0,
                "roughnessFactor" : 0.5
            }
        }
    ],
    "meshes" : [
        {
            "name" : "pikachu",
            "primitives" : [
                {
                    "attributes" : {
                        "POSITION" : 0,
                        "NORMAL" : 1
                    },
                    "indices" : 2,
                    "material" : 0
                },
                {
                    "attributes" : {
                        "POSITION" : 3,
                        "NORMAL" : 4
                    },
                    "indices" : 5,
                    "material" : 1
                },
                {
                    "attributes" : {
                        "POSITION" : 6,
                        "NORMAL" : 7
                    },
                    "indices" : 8,
                    "material" : 2
                },
                {
                    "attributes" : {
                        "POSITION" : 9,
                        "NORMAL" : 10
                    },
                    "indices" : 11,
                    "material" : 3
                }
            ]
        }
    ],
    "accessors" : [
        {
            "bufferView" : 0,
            "componentType" : 5126,
            "count" : 2171,
            "max" : [
                0.11537697166204453,
                0.37960636615753174,
                0.12685176730155945
            ],
            "min" : [
                -0.11537697166204453,
                -0.00011377910414012149,
                -0.23479771614074707
            ],
            "type" : "VEC3"
        },
        {
            "bufferView" : 1,
            "componentType" : 5126,
            "count" : 2171,
            "type" : "VEC3"
        },
        {
            "bufferView" : 2,
            "componentType" : 5123,
            "count" : 12930,
            "type" : "SCALAR"
        },
        {
            "bufferView" : 3,
            "componentType" : 5126,
            "count" : 224,
            "max" : [
                0.1321476846933365,
                0.3978974223136902,
                0.11173092573881149
            ],
            "min" : [
                -0.1321476846933365,
                0.27002426981925964,
                -0.0420316718518734
            ],
            "type" : "VEC3"
        },
        {
            "bufferView" : 4,
            "componentType" : 5126,
            "count" : 224,
            "type" : "VEC3"
        },
        {
            "bufferView" : 5,
            "componentType" : 5123,
            "count" : 1182,
            "type" : "SCALAR"
        },
        {
            "bufferView" : 6,
            "componentType" : 5126,
            "count" : 6,
            "max" : [
                0.050556913018226624,
                0.3060420751571655,
                0.0777430310845375
            ],
            "min" : [
                -0.050556913018226624,
                0.30233538150787354,
                0.07142344117164612
            ],
            "type" : "VEC3"
        },
        {
            "bufferView" : 7,
            "componentType" : 5126,
            "count" : 6,
            "type" : "VEC3"
        },
        {
            "bufferView" : 8,
            "componentType" : 5123,
            "count" : 6,
            "type" : "SCALAR"
        },
        {
            "bufferView" : 9,
            "componentType" : 5126,
            "count" : 70,
            "max" : [
                0.07567567378282547,
                0.2766072154045105,
                0.08808370679616928
            ],
            "min" : [
                -0.07567567378282547,
                0.23853445053100586,
                0.056925300508737564
            ],
            "type" : "VEC3"
        },
        {
            "bufferView" : 10,
            "componentType" : 5126,
            "count" : 70,
            "type" : "VEC3"
        },
        {
            "bufferView" : 11,
            "componentType" : 5123,
            "count" : 318,
            "type" : "SCALAR"
        }
    ],
    "bufferViews" : [
        {
            "buffer" : 0,
            "byteLength" : 26052,
            "byteOffset" : 0
        },
        {
            "buffer" : 0,
            "byteLength" : 26052,
            "byteOffset" : 26052
        },
        {
            "buffer" : 0,
            "byteLength" : 25860,
            "byteOffset" : 52104
        },
        {
            "buffer" : 0,
            "byteLength" : 2688,
            "byteOffset" : 77964
        },
        {
            "buffer" : 0,
            "byteLength" : 2688,
            "byteOffset" : 80652
        },
        {
            "buffer" : 0,
            "byteLength" : 2364,
            "byteOffset" : 83340
        },
        {
            "buffer" : 0,
            "byteLength" : 72,
            "byteOffset" : 85704
        },
        {
            "buffer" : 0,
            "byteLength" : 72,
            "byteOffset" : 85776
        },
        {
            "buffer" : 0,
            "byteLength" : 12,
            "byteOffset" : 85848
        },
        {
            "buffer" : 0,
            "byteLength" : 840,
            "byteOffset" : 85860
        },
        {
            "buffer" : 0,
            "byteLength" : 840,
            "byteOffset" : 86700
        },
        {
            "buffer" : 0,
            "byteLength" : 636,
            "byteOffset" : 87540
        }
    ],
    "buffers" : [
        {
            "byteLength" : 88176,
            "uri" : "data:application/octet-stream;base64,"
        }
    ]
}
