{
    "asset" : {
        "generator" : "Khronos glTF Blender I/O v1.3.48",
        "version" : "2.0"
    },
    "scene" : 0,
    "scenes" : [
        {
            "name" : "Scene",
            "nodes" : [
                0
            ]
        }
    ],
    "nodes" : [
        {
            "mesh" : 0,
            "name" : "pinga"
        }
    ],
    "materials" : [
        {
            "doubleSided" : true,
            "emissiveFactor" : [
                0,
                0,
                0
            ],
            "name" : "pingu3.001",
            "pbrMetallicRoughness" : {
                "baseColorFactor" : [
                    0.011076563037931919,
                    0.011076563037931919,
                    0.011076563037931919,
                    1
                ],
                "metallicFactor" : 0,
                "roughnessFactor" : 0.800000011920929
            }
        },
        {
            "doubleSided" : true,
            "emissiveFactor" : [
                0,
                0,
                0
            ],
            "name" : "pingu2.001",
            "pbrMetallicRoughness" : {
                "baseColorFactor" : [
                    0.8274403810501099,
                    0.8274403810501099,
                    0.8274403810501099,
                    1
                ],
                "metallicFactor" : 0,
                "roughnessFactor" : 0.800000011920929
            }
        },
        {
            "doubleSided" : true,
            "emissiveFactor" : [
                0,
                0,
                0
            ],
            "name" : "pingu.001",
            "pbrMetallicRoughness" : {
                "baseColorFactor" : [
                    0.8000000715255737,
                    0.3522412180900574,
                    0.06661283224821091,
                    1
                ],
                "metallicFactor" : 0,
                "roughnessFactor" : 0.800000011920929
            }
        },
        {
            "doubleSided" : true,
            "emissiveFactor" : [
                0,
                0,
                0
            ],
            "name" : "pingu4.001",
            "pbrMetallicRoughness" : {
                "baseColorFactor" : [
                    0.8274403810501099,
                    0.10224504768848419,
                    0.08235622197389603,
                    1
                ],
                "metallicFactor" : 0,
                "roughnessFactor" : 0.800000011920929
            }
        }
    ],
    "meshes" : [
        {
            "name" : "pinga",
            "primitives" : [
                {
                    "attributes" : {
                        "POSITION" : 0,
                        "NORMAL" : 1
                    },
                    "indices" : 2,
                    "material" : 0
                },
                {
                    "attributes" : {
                        "POSITION" : 3,
                        "NORMAL" : 4
                    },
                    "indices" : 5,
                    "material" : 1
                },
                {
                    "attributes" : {
                        "POSITION" : 6,
                        "NORMAL" : 7
                    },
                    "indices" : 8,
                    "material" : 2
                },
                {
                    "attributes" : {
                        "POSITION" : 9,
                        "NORMAL" : 10
                    },
                    "indices" : 11,
                    "material" : 3
                }
            ]
        }
    ],
    "accessors" : [
        {
            "bufferView" : 0,
            "componentType" : 5126,
            "count" : 812,
            "max" : [
                0.10919637978076935,
                0.2819245755672455,
                0.10890425741672516
            ],
            "min" : [
                -0.10919639468193054,
                -0.0725148469209671,
                -0.18701311945915222
            ],
            "type" : "VEC3"
        },
        {
            "bufferView" : 1,
            "componentType" : 5126,
            "count" : 812,
            "type" : "VEC3"
        },
        {
            "bufferView" : 2,
            "componentType" : 5123,
            "count" : 4560,
            "type" : "SCALAR"
        },
        {
            "bufferView" : 3,
            "componentType" : 5126,
            "count" : 888,
            "max" : [
                0.1481635719537735,
                0.26597028970718384,
                0.106191486120224
            ],
            "min" : [
                -0.1481635719537735,
                -0.12704432010650635,
                -0.1818125694990158
            ],
            "type" : "VEC3"
        },
        {
            "bufferView" : 4,
            "componentType" : 5126,
            "count" : 888,
            "type" : "VEC3"
        },
        {
            "bufferView" : 5,
            "componentType" : 5123,
            "count" : 5040,
            "type" : "SCALAR"
        },
        {
            "bufferView" : 6,
            "componentType" : 5126,
            "count" : 242,
            "max" : [
                0.12380014359951019,
                -0.09145838767290115,
                0.0720185711979866
            ],
            "min" : [
                -0.12380014359951019,
                -0.19335705041885376,
                -0.08451820909976959
            ],
            "type" : "VEC3"
        },
        {
            "bufferView" : 7,
            "componentType" : 5126,
            "count" : 242,
            "type" : "VEC3"
        },
        {
            "bufferView" : 8,
            "componentType" : 5123,
            "count" : 1344,
            "type" : "SCALAR"
        },
        {
            "bufferView" : 9,
            "componentType" : 5126,
            "count" : 121,
            "max" : [
                0.03681487962603569,
                0.23450331389904022,
                0.1542566418647766
            ],
            "min" : [
                -0.03681487962603569,
                0.1878044605255127,
                0.09558942168951035
            ],
            "type" : "VEC3"
        },
        {
            "bufferView" : 10,
            "componentType" : 5126,
            "count" : 121,
            "type" : "VEC3"
        },
        {
            "bufferView" : 11,
            "componentType" : 5123,
            "count" : 696,
            "type" : "SCALAR"
        }
    ],
    "bufferViews" : [
        {
            "buffer" : 0,
            "byteLength" : 9744,
            "byteOffset" : 0
        },
        {
            "buffer" : 0,
            "byteLength" : 9744,
            "byteOffset" : 9744
        },
        {
            "buffer" : 0,
            "byteLength" : 9120,
            "byteOffset" : 19488
        },
        {
            "buffer" : 0,
            "byteLength" : 10656,
            "byteOffset" : 28608
        },
        {
            "buffer" : 0,
            "byteLength" : 10656,
            "byteOffset" : 39264
        },
        {
            "buffer" : 0,
            "byteLength" : 10080,
            "byteOffset" : 49920
        },
        {
            "buffer" : 0,
            "byteLength" : 2904,
            "byteOffset" : 60000
        },
        {
            "buffer" : 0,
            "byteLength" : 2904,
            "byteOffset" : 62904
        },
        {
            "buffer" : 0,
            "byteLength" : 2688,
            "byteOffset" : 65808
        },
        {
            "buffer" : 0,
            "byteLength" : 1452,
            "byteOffset" : 68496
        },
        {
            "buffer" : 0,
            "byteLength" : 1452,
            "byteOffset" : 69948
        },
        {
            "buffer" : 0,
            "byteLength" : 1392,
            "byteOffset" : 71400
        }
    ],
    "buffers" : [
        {
            "byteLength" : 72792,
            "uri" : "data:application/octet-stream;base64,"
        }
    ]
}
