{
    "asset" : {
        "generator" : "Khronos glTF Blender I/O v1.3.48",
        "version" : "2.0"
    },
    "scene" : 0,
    "scenes" : [
        {
            "name" : "Scene",
            "nodes" : [
                0
            ]
        }
    ],
    "nodes" : [
        {
            "mesh" : 0,
            "name" : "pingu"
        }
    ],
    "materials" : [
        {
            "doubleSided" : true,
            "emissiveFactor" : [
                0,
                0,
                0
            ],
            "name" : "pingu3.001",
            "pbrMetallicRoughness" : {
                "baseColorFactor" : [
                    0.011076563037931919,
                    0.011076563037931919,
                    0.011076563037931919,
                    1
                ],
                "metallicFactor" : 0,
                "roughnessFactor" : 0.800000011920929
            }
        },
        {
            "doubleSided" : true,
            "emissiveFactor" : [
                0,
                0,
                0
            ],
            "name" : "pingu.001",
            "pbrMetallicRoughness" : {
                "baseColorFactor" : [
                    0.8000000715255737,
                    0.3522412180900574,
                    0.06661283224821091,
                    1
                ],
                "metallicFactor" : 0,
                "roughnessFactor" : 0.800000011920929
            }
        },
        {
            "doubleSided" : true,
            "emissiveFactor" : [
                0,
                0,
                0
            ],
            "name" : "pingu4.001",
            "pbrMetallicRoughness" : {
                "baseColorFactor" : [
                    0.8274403810501099,
                    0.10224504768848419,
                    0.08235622197389603,
                    1
                ],
                "metallicFactor" : 0,
                "roughnessFactor" : 0.800000011920929
            }
        },
        {
            "doubleSided" : true,
            "emissiveFactor" : [
                0,
                0,
                0
            ],
            "name" : "pingu2.001",
            "pbrMetallicRoughness" : {
                "baseColorFactor" : [
                    0.8274403810501099,
                    0.8274403810501099,
                    0.8274403810501099,
                    1
                ],
                "metallicFactor" : 0,
                "roughnessFactor" : 0.800000011920929
            }
        }
    ],
    "meshes" : [
        {
            "name" : "pingu",
            "primitives" : [
                {
                    "attributes" : {
                        "POSITION" : 0,
                        "NORMAL" : 1
                    },
                    "indices" : 2,
                    "material" : 0
                },
                {
                    "attributes" : {
                        "POSITION" : 3,
                        "NORMAL" : 4
                    },
                    "indices" : 5,
                    "material" : 1
                },
                {
                    "attributes" : {
                        "POSITION" : 6,
                        "NORMAL" : 7
                    },
                    "indices" : 8,
                    "material" : 2
                },
                {
                    "attributes" : {
                        "POSITION" : 9,
                        "NORMAL" : 10
                    },
                    "indices" : 11,
                    "material" : 3
                }
            ]
        }
    ],
    "accessors" : [
        {
            "bufferView" : 0,
            "componentType" : 5126,
            "count" : 1226,
            "max" : [
                0.164435476064682,
                0.4896773397922516,
                0.11474914848804474
            ],
            "min" : [
                -0.164435476064682,
                -0.10916699469089508,
                -0.20718665421009064
            ],
            "type" : "VEC3"
        },
        {
            "bufferView" : 1,
            "componentType" : 5126,
            "count" : 1226,
            "type" : "VEC3"
        },
        {
            "bufferView" : 2,
            "componentType" : 5123,
            "count" : 7008,
            "type" : "SCALAR"
        },
        {
            "bufferView" : 3,
            "componentType" : 5126,
            "count" : 242,
            "max" : [
                0.12380014359951019,
                -0.09145838767290115,
                0.0720185711979866
            ],
            "min" : [
                -0.12380014359951019,
                -0.19335705041885376,
                -0.08451820909976959
            ],
            "type" : "VEC3"
        },
        {
            "bufferView" : 4,
            "componentType" : 5126,
            "count" : 242,
            "type" : "VEC3"
        },
        {
            "bufferView" : 5,
            "componentType" : 5123,
            "count" : 1344,
            "type" : "SCALAR"
        },
        {
            "bufferView" : 6,
            "componentType" : 5126,
            "count" : 121,
            "max" : [
                0.036906689405441284,
                0.4426480531692505,
                0.1914847195148468
            ],
            "min" : [
                -0.03690669313073158,
                0.3973674774169922,
                0.09797937422990799
            ],
            "type" : "VEC3"
        },
        {
            "bufferView" : 7,
            "componentType" : 5126,
            "count" : 121,
            "type" : "VEC3"
        },
        {
            "bufferView" : 8,
            "componentType" : 5123,
            "count" : 696,
            "type" : "SCALAR"
        },
        {
            "bufferView" : 9,
            "componentType" : 5126,
            "count" : 485,
            "max" : [
                0.09496017545461655,
                0.46462318301200867,
                0.11187946796417236
            ],
            "min" : [
                -0.09496017545461655,
                -0.09740889072418213,
                -0.20136916637420654
            ],
            "type" : "VEC3"
        },
        {
            "bufferView" : 10,
            "componentType" : 5126,
            "count" : 485,
            "type" : "VEC3"
        },
        {
            "bufferView" : 11,
            "componentType" : 5123,
            "count" : 2592,
            "type" : "SCALAR"
        }
    ],
    "bufferViews" : [
        {
            "buffer" : 0,
            "byteLength" : 14712,
            "byteOffset" : 0
        },
        {
            "buffer" : 0,
            "byteLength" : 14712,
            "byteOffset" : 14712
        },
        {
            "buffer" : 0,
            "byteLength" : 14016,
            "byteOffset" : 29424
        },
        {
            "buffer" : 0,
            "byteLength" : 2904,
            "byteOffset" : 43440
        },
        {
            "buffer" : 0,
            "byteLength" : 2904,
            "byteOffset" : 46344
        },
        {
            "buffer" : 0,
            "byteLength" : 2688,
            "byteOffset" : 49248
        },
        {
            "buffer" : 0,
            "byteLength" : 1452,
            "byteOffset" : 51936
        },
        {
            "buffer" : 0,
            "byteLength" : 1452,
            "byteOffset" : 53388
        },
        {
            "buffer" : 0,
            "byteLength" : 1392,
            "byteOffset" : 54840
        },
        {
            "buffer" : 0,
            "byteLength" : 5820,
            "byteOffset" : 56232
        },
        {
            "buffer" : 0,
            "byteLength" : 5820,
            "byteOffset" : 62052
        },
        {
            "buffer" : 0,
            "byteLength" : 5184,
            "byteOffset" : 67872
        }
    ],
    "buffers" : [
        {
            "byteLength" : 73056,
            "uri" : "data:application/octet-stream;base64,"
        }
    ]
}
