{
    "asset" : {
        "generator" : "Khronos glTF Blender I/O v1.3.48",
        "version" : "2.0"
    },
    "scene" : 0,
    "scenes" : [
        {
            "name" : "Scene",
            "nodes" : [
                0
            ]
        }
    ],
    "nodes" : [
        {
            "mesh" : 0,
            "name" : "angry_mark"
        }
    ],
    "materials" : [
        {
            "doubleSided" : true,
            "emissiveFactor" : [
                0,
                0,
                0
            ],
            "name" : "skin2",
            "pbrMetallicRoughness" : {
                "baseColorFactor" : [
                    0.6859065294265747,
                    0.29540514945983887,
                    0.23846285045146942,
                    1
                ],
                "metallicFactor" : 0,
                "roughnessFactor" : 0.800000011920929
            }
        }
    ],
    "meshes" : [
        {
            "name" : "Cube.021",
            "primitives" : [
                {
                    "attributes" : {
                        "POSITION" : 0,
                        "NORMAL" : 1
                    },
                    "indices" : 2,
                    "material" : 0
                }
            ]
        }
    ],
    "accessors" : [
        {
            "bufferView" : 0,
            "componentType" : 5126,
            "count" : 520,
            "max" : [
                0.6254557371139526,
                2.1908740997314453,
                0.7850505113601685
            ],
            "min" : [
                0.46578049659729004,
                2.016559362411499,
                0.6737687587738037
            ],
            "type" : "VEC3"
        },
        {
            "bufferView" : 1,
            "componentType" : 5126,
            "count" : 520,
            "type" : "VEC3"
        },
        {
            "bufferView" : 2,
            "componentType" : 5123,
            "count" : 1536,
            "type" : "SCALAR"
        }
    ],
    "bufferViews" : [
        {
            "buffer" : 0,
            "byteLength" : 6240,
            "byteOffset" : 0
        },
        {
            "buffer" : 0,
            "byteLength" : 6240,
            "byteOffset" : 6240
        },
        {
            "buffer" : 0,
            "byteLength" : 3072,
            "byteOffset" : 12480
        }
    ],
    "buffers" : [
        {
            "byteLength" : 15552,
            "uri" : "data:application/octet-stream;base64,"
        }
    ]
}
