{
    "asset" : {
        "generator" : "Khronos glTF Blender I/O v1.3.48",
        "version" : "2.0"
    },
    "scene" : 0,
    "scenes" : [
        {
            "name" : "Scene",
            "nodes" : [
                0
            ]
        }
    ],
    "nodes" : [
        {
            "mesh" : 0,
            "name" : "cute_star_tattoo"
        }
    ],
    "materials" : [
        {
            "doubleSided" : true,
            "emissiveFactor" : [
                0,
                0,
                0
            ],
            "name" : "cute_star_tattoo",
            "pbrMetallicRoughness" : {
                "baseColorFactor" : [
                    0.008066512644290924,
                    0.008066512644290924,
                    0.008066512644290924,
                    1
                ],
                "metallicFactor" : 0,
                "roughnessFactor" : 0.5
            }
        }
    ],
    "meshes" : [
        {
            "name" : "cute_star_tattoo",
            "primitives" : [
                {
                    "attributes" : {
                        "POSITION" : 0,
                        "NORMAL" : 1
                    },
                    "indices" : 2,
                    "material" : 0
                }
            ]
        }
    ],
    "accessors" : [
        {
            "bufferView" : 0,
            "componentType" : 5126,
            "count" : 482,
            "max" : [
                0.8368407487869263,
                1.7544718980789185,
                0.6888612508773804
            ],
            "min" : [
                0.5881273746490479,
                1.424522876739502,
                0.4301337003707886
            ],
            "type" : "VEC3"
        },
        {
            "bufferView" : 1,
            "componentType" : 5126,
            "count" : 482,
            "type" : "VEC3"
        },
        {
            "bufferView" : 2,
            "componentType" : 5123,
            "count" : 888,
            "type" : "SCALAR"
        }
    ],
    "bufferViews" : [
        {
            "buffer" : 0,
            "byteLength" : 5784,
            "byteOffset" : 0
        },
        {
            "buffer" : 0,
            "byteLength" : 5784,
            "byteOffset" : 5784
        },
        {
            "buffer" : 0,
            "byteLength" : 1776,
            "byteOffset" : 11568
        }
    ],
    "buffers" : [
        {
            "byteLength" : 13344,
            "uri" : "data:application/octet-stream;base64,"
        }
    ]
}
