{
    "asset" : {
        "generator" : "Khronos glTF Blender I/O v1.3.48",
        "version" : "2.0"
    },
    "scene" : 0,
    "scenes" : [
        {
            "name" : "Scene",
            "nodes" : [
                0
            ]
        }
    ],
    "nodes" : [
        {
            "mesh" : 0,
            "name" : "glasses_star"
        }
    ],
    "materials" : [
        {
            "doubleSided" : true,
            "emissiveFactor" : [
                0,
                0,
                0
            ],
            "name" : "glasses",
            "pbrMetallicRoughness" : {
                "baseColorFactor" : [
                    0.008023192174732685,
                    0.008023192174732685,
                    0.008023192174732685,
                    1
                ],
                "metallicFactor" : 0,
                "roughnessFactor" : 0
            }
        }
    ],
    "meshes" : [
        {
            "name" : "Circle.003",
            "primitives" : [
                {
                    "attributes" : {
                        "POSITION" : 0,
                        "NORMAL" : 1
                    },
                    "indices" : 2,
                    "material" : 0
                }
            ]
        }
    ],
    "accessors" : [
        {
            "bufferView" : 0,
            "componentType" : 5126,
            "count" : 1206,
            "max" : [
                0.9929373264312744,
                1.9551787376403809,
                0.9511592984199524
            ],
            "min" : [
                -0.9929372072219849,
                1.3617080450057983,
                -0.2678995728492737
            ],
            "type" : "VEC3"
        },
        {
            "bufferView" : 1,
            "componentType" : 5126,
            "count" : 1206,
            "type" : "VEC3"
        },
        {
            "bufferView" : 2,
            "componentType" : 5123,
            "count" : 7248,
            "type" : "SCALAR"
        }
    ],
    "bufferViews" : [
        {
            "buffer" : 0,
            "byteLength" : 14472,
            "byteOffset" : 0
        },
        {
            "buffer" : 0,
            "byteLength" : 14472,
            "byteOffset" : 14472
        },
        {
            "buffer" : 0,
            "byteLength" : 14496,
            "byteOffset" : 28944
        }
    ],
    "buffers" : [
        {
            "byteLength" : 43440,
            "uri" : "data:application/octet-stream;base64,"
        }
    ]
}
