{
    "asset" : {
        "generator" : "Khronos glTF Blender I/O v1.3.48",
        "version" : "2.0"
    },
    "scene" : 0,
    "scenes" : [
        {
            "name" : "Scene",
            "nodes" : [
                0
            ]
        }
    ],
    "nodes" : [
        {
            "mesh" : 0,
            "name" : "smart_glass"
        }
    ],
    "materials" : [
        {
            "doubleSided" : true,
            "emissiveFactor" : [
                0,
                0,
                0
            ],
            "name" : "glasses2",
            "pbrMetallicRoughness" : {
                "baseColorFactor" : [
                    0.5457245707511902,
                    0.038204375654459,
                    0.03433981165289879,
                    1
                ],
                "metallicFactor" : 0,
                "roughnessFactor" : 0
            }
        },
        {
            "doubleSided" : true,
            "emissiveFactor" : [
                0,
                0,
                0
            ],
            "name" : "glasses3",
            "pbrMetallicRoughness" : {
                "baseColorFactor" : [
                    0.7483469843864441,
                    0.7483469843864441,
                    0.7483469843864441,
                    1
                ],
                "metallicFactor" : 0,
                "roughnessFactor" : 0
            }
        },
        {
            "doubleSided" : true,
            "emissiveFactor" : [
                0,
                0,
                0
            ],
            "name" : "glasses",
            "pbrMetallicRoughness" : {
                "baseColorFactor" : [
                    0.008023000322282314,
                    0.008023000322282314,
                    0.008023000322282314,
                    1
                ],
                "metallicFactor" : 0,
                "roughnessFactor" : 0
            }
        }
    ],
    "meshes" : [
        {
            "name" : "Circle.009",
            "primitives" : [
                {
                    "attributes" : {
                        "POSITION" : 0,
                        "NORMAL" : 1
                    },
                    "indices" : 2,
                    "material" : 0
                },
                {
                    "attributes" : {
                        "POSITION" : 3,
                        "NORMAL" : 4
                    },
                    "indices" : 5,
                    "material" : 1
                },
                {
                    "attributes" : {
                        "POSITION" : 6,
                        "NORMAL" : 7
                    },
                    "indices" : 8,
                    "material" : 2
                }
            ]
        }
    ],
    "accessors" : [
        {
            "bufferView" : 0,
            "componentType" : 5126,
            "count" : 402,
            "max" : [
                1.0239651203155518,
                1.8168901205062866,
                0.8995596766471863
            ],
            "min" : [
                -0.9992892742156982,
                1.665039300918579,
                -0.3187003433704376
            ],
            "type" : "VEC3"
        },
        {
            "bufferView" : 1,
            "componentType" : 5126,
            "count" : 402,
            "type" : "VEC3"
        },
        {
            "bufferView" : 2,
            "componentType" : 5123,
            "count" : 1308,
            "type" : "SCALAR"
        },
        {
            "bufferView" : 3,
            "componentType" : 5126,
            "count" : 84,
            "max" : [
                0.5743323564529419,
                1.757954716682434,
                0.9311279058456421
            ],
            "min" : [
                0.35131192207336426,
                1.6921520233154297,
                0.8584048748016357
            ],
            "type" : "VEC3"
        },
        {
            "bufferView" : 4,
            "componentType" : 5126,
            "count" : 84,
            "type" : "VEC3"
        },
        {
            "bufferView" : 5,
            "componentType" : 5123,
            "count" : 216,
            "type" : "SCALAR"
        },
        {
            "bufferView" : 6,
            "componentType" : 5126,
            "count" : 714,
            "max" : [
                0.7265428900718689,
                1.8695718050003052,
                0.9702259302139282
            ],
            "min" : [
                -0.7042211294174194,
                1.4289908409118652,
                0.7244252562522888
            ],
            "type" : "VEC3"
        },
        {
            "bufferView" : 7,
            "componentType" : 5126,
            "count" : 714,
            "type" : "VEC3"
        },
        {
            "bufferView" : 8,
            "componentType" : 5123,
            "count" : 2544,
            "type" : "SCALAR"
        }
    ],
    "bufferViews" : [
        {
            "buffer" : 0,
            "byteLength" : 4824,
            "byteOffset" : 0
        },
        {
            "buffer" : 0,
            "byteLength" : 4824,
            "byteOffset" : 4824
        },
        {
            "buffer" : 0,
            "byteLength" : 2616,
            "byteOffset" : 9648
        },
        {
            "buffer" : 0,
            "byteLength" : 1008,
            "byteOffset" : 12264
        },
        {
            "buffer" : 0,
            "byteLength" : 1008,
            "byteOffset" : 13272
        },
        {
            "buffer" : 0,
            "byteLength" : 432,
            "byteOffset" : 14280
        },
        {
            "buffer" : 0,
            "byteLength" : 8568,
            "byteOffset" : 14712
        },
        {
            "buffer" : 0,
            "byteLength" : 8568,
            "byteOffset" : 23280
        },
        {
            "buffer" : 0,
            "byteLength" : 5088,
            "byteOffset" : 31848
        }
    ],
    "buffers" : [
        {
            "byteLength" : 36936,
            "uri" : "data:application/octet-stream;base64,"
        }
    ]
}
