{
    "asset" : {
        "generator" : "Khronos glTF Blender I/O v1.3.48",
        "version" : "2.0"
    },
    "scene" : 0,
    "scenes" : [
        {
            "name" : "Scene",
            "nodes" : [
                0
            ]
        }
    ],
    "nodes" : [
        {
            "mesh" : 0,
            "name" : "glasses_square"
        }
    ],
    "materials" : [
        {
            "doubleSided" : true,
            "emissiveFactor" : [
                0,
                0,
                0
            ],
            "name" : "glasses",
            "pbrMetallicRoughness" : {
                "baseColorFactor" : [
                    0.008023192174732685,
                    0.008023192174732685,
                    0.008023192174732685,
                    1
                ],
                "metallicFactor" : 0,
                "roughnessFactor" : 0
            }
        }
    ],
    "meshes" : [
        {
            "name" : "Circle.004",
            "primitives" : [
                {
                    "attributes" : {
                        "POSITION" : 0,
                        "NORMAL" : 1
                    },
                    "indices" : 2,
                    "material" : 0
                }
            ]
        }
    ],
    "accessors" : [
        {
            "bufferView" : 0,
            "componentType" : 5126,
            "count" : 1910,
            "max" : [
                0.9829609394073486,
                1.9044519662857056,
                0.9689140319824219
            ],
            "min" : [
                -0.9829609394073486,
                1.3710178136825562,
                -0.26331427693367004
            ],
            "type" : "VEC3"
        },
        {
            "bufferView" : 1,
            "componentType" : 5126,
            "count" : 1910,
            "type" : "VEC3"
        },
        {
            "bufferView" : 2,
            "componentType" : 5123,
            "count" : 11472,
            "type" : "SCALAR"
        }
    ],
    "bufferViews" : [
        {
            "buffer" : 0,
            "byteLength" : 22920,
            "byteOffset" : 0
        },
        {
            "buffer" : 0,
            "byteLength" : 22920,
            "byteOffset" : 22920
        },
        {
            "buffer" : 0,
            "byteLength" : 22944,
            "byteOffset" : 45840
        }
    ],
    "buffers" : [
        {
            "byteLength" : 68784,
            "uri" : "data:application/octet-stream;base64,"
        }
    ]
}
