{
    "asset" : {
        "generator" : "Khronos glTF Blender I/O v1.3.48",
        "version" : "2.0"
    },
    "scene" : 0,
    "scenes" : [
        {
            "name" : "Scene",
            "nodes" : [
                0
            ]
        }
    ],
    "nodes" : [
        {
            "mesh" : 0,
            "name" : "monocle"
        }
    ],
    "materials" : [
        {
            "doubleSided" : true,
            "emissiveFactor" : [
                0,
                0,
                0
            ],
            "name" : "glasses",
            "pbrMetallicRoughness" : {
                "baseColorFactor" : [
                    0.008023000322282314,
                    0.008023000322282314,
                    0.008023000322282314,
                    1
                ],
                "metallicFactor" : 0,
                "roughnessFactor" : 0
            }
        }
    ],
    "meshes" : [
        {
            "name" : "Circle.010",
            "primitives" : [
                {
                    "attributes" : {
                        "POSITION" : 0,
                        "NORMAL" : 1
                    },
                    "indices" : 2,
                    "material" : 0
                }
            ]
        }
    ],
    "accessors" : [
        {
            "bufferView" : 0,
            "componentType" : 5126,
            "count" : 472,
            "max" : [
                0.6620315313339233,
                1.8902720212936401,
                0.9349805116653442
            ],
            "min" : [
                0.14593343436717987,
                0.5146241188049316,
                0.6727442145347595
            ],
            "type" : "VEC3"
        },
        {
            "bufferView" : 1,
            "componentType" : 5126,
            "count" : 472,
            "type" : "VEC3"
        },
        {
            "bufferView" : 2,
            "componentType" : 5123,
            "count" : 2856,
            "type" : "SCALAR"
        }
    ],
    "bufferViews" : [
        {
            "buffer" : 0,
            "byteLength" : 5664,
            "byteOffset" : 0
        },
        {
            "buffer" : 0,
            "byteLength" : 5664,
            "byteOffset" : 5664
        },
        {
            "buffer" : 0,
            "byteLength" : 5712,
            "byteOffset" : 11328
        }
    ],
    "buffers" : [
        {
            "byteLength" : 17040,
            "uri" : "data:application/octet-stream;base64,"
        }
    ]
}
