{
    "asset" : {
        "generator" : "Khronos glTF Blender I/O v1.3.48",
        "version" : "2.0"
    },
    "scene" : 0,
    "scenes" : [
        {
            "name" : "Scene",
            "nodes" : [
                0
            ]
        }
    ],
    "nodes" : [
        {
            "mesh" : 0,
            "name" : "glasses"
        }
    ],
    "materials" : [
        {
            "doubleSided" : true,
            "emissiveFactor" : [
                0,
                0,
                0
            ],
            "name" : "glasses",
            "pbrMetallicRoughness" : {
                "baseColorFactor" : [
                    0.008023192174732685,
                    0.008023192174732685,
                    0.008023192174732685,
                    1
                ],
                "metallicFactor" : 0,
                "roughnessFactor" : 0
            }
        }
    ],
    "meshes" : [
        {
            "name" : "Circle",
            "primitives" : [
                {
                    "attributes" : {
                        "POSITION" : 0,
                        "NORMAL" : 1
                    },
                    "indices" : 2,
                    "material" : 0
                }
            ]
        }
    ],
    "accessors" : [
        {
            "bufferView" : 0,
            "componentType" : 5126,
            "count" : 618,
            "max" : [
                0.9781436920166016,
                2.014117479324341,
                0.9705477952957153
            ],
            "min" : [
                -0.9781436920166016,
                1.2904764413833618,
                -0.26309826970100403
            ],
            "type" : "VEC3"
        },
        {
            "bufferView" : 1,
            "componentType" : 5126,
            "count" : 618,
            "type" : "VEC3"
        },
        {
            "bufferView" : 2,
            "componentType" : 5123,
            "count" : 3720,
            "type" : "SCALAR"
        }
    ],
    "bufferViews" : [
        {
            "buffer" : 0,
            "byteLength" : 7416,
            "byteOffset" : 0
        },
        {
            "buffer" : 0,
            "byteLength" : 7416,
            "byteOffset" : 7416
        },
        {
            "buffer" : 0,
            "byteLength" : 7440,
            "byteOffset" : 14832
        }
    ],
    "buffers" : [
        {
            "byteLength" : 22272,
            "uri" : "data:application/octet-stream;base64,"
        }
    ]
}
