{
    "asset" : {
        "generator" : "Khronos glTF Blender I/O v1.3.48",
        "version" : "2.0"
    },
    "scene" : 0,
    "scenes" : [
        {
            "name" : "Scene",
            "nodes" : [
                0
            ]
        }
    ],
    "nodes" : [
        {
            "mesh" : 0,
            "name" : "vr_google"
        }
    ],
    "materials" : [
        {
            "doubleSided" : true,
            "emissiveFactor" : [
                0,
                0,
                0
            ],
            "name" : "vr_google_1",
            "pbrMetallicRoughness" : {
                "baseColorFactor" : [
                    0.008023000322282314,
                    0.008023000322282314,
                    0.008023000322282314,
                    1
                ],
                "metallicFactor" : 0,
                "roughnessFactor" : 0
            }
        },
        {
            "doubleSided" : true,
            "emissiveFactor" : [
                0,
                0,
                0
            ],
            "name" : "vr_google_2",
            "pbrMetallicRoughness" : {
                "baseColorFactor" : [
                    0.6859049797058105,
                    0.6859049797058105,
                    0.6859049797058105,
                    1
                ],
                "metallicFactor" : 0,
                "roughnessFactor" : 0
            }
        }
    ],
    "meshes" : [
        {
            "name" : "Cube.023",
            "primitives" : [
                {
                    "attributes" : {
                        "POSITION" : 0,
                        "NORMAL" : 1
                    },
                    "indices" : 2,
                    "material" : 0
                },
                {
                    "attributes" : {
                        "POSITION" : 3,
                        "NORMAL" : 4
                    },
                    "indices" : 5,
                    "material" : 1
                }
            ]
        }
    ],
    "accessors" : [
        {
            "bufferView" : 0,
            "componentType" : 5126,
            "count" : 750,
            "max" : [
                0.9953725934028625,
                2.226762294769287,
                1.465939998626709
            ],
            "min" : [
                -0.9953725934028625,
                1.1998257637023926,
                -1.0768803358078003
            ],
            "type" : "VEC3"
        },
        {
            "bufferView" : 1,
            "componentType" : 5126,
            "count" : 750,
            "type" : "VEC3"
        },
        {
            "bufferView" : 2,
            "componentType" : 5123,
            "count" : 3672,
            "type" : "SCALAR"
        },
        {
            "bufferView" : 3,
            "componentType" : 5126,
            "count" : 207,
            "max" : [
                0.9398449063301086,
                2.048499584197998,
                1.4178506135940552
            ],
            "min" : [
                -0.9398448467254639,
                1.1998257637023926,
                0.9907195568084717
            ],
            "type" : "VEC3"
        },
        {
            "bufferView" : 4,
            "componentType" : 5126,
            "count" : 207,
            "type" : "VEC3"
        },
        {
            "bufferView" : 5,
            "componentType" : 5123,
            "count" : 888,
            "type" : "SCALAR"
        }
    ],
    "bufferViews" : [
        {
            "buffer" : 0,
            "byteLength" : 9000,
            "byteOffset" : 0
        },
        {
            "buffer" : 0,
            "byteLength" : 9000,
            "byteOffset" : 9000
        },
        {
            "buffer" : 0,
            "byteLength" : 7344,
            "byteOffset" : 18000
        },
        {
            "buffer" : 0,
            "byteLength" : 2484,
            "byteOffset" : 25344
        },
        {
            "buffer" : 0,
            "byteLength" : 2484,
            "byteOffset" : 27828
        },
        {
            "buffer" : 0,
            "byteLength" : 1776,
            "byteOffset" : 30312
        }
    ],
    "buffers" : [
        {
            "byteLength" : 32088,
            "uri" : "data:application/octet-stream;base64,"
        }
    ]
}
