{
    "asset" : {
        "generator" : "Khronos glTF Blender I/O v1.3.48",
        "version" : "2.0"
    },
    "scene" : 0,
    "scenes" : [
        {
            "name" : "Scene",
            "nodes" : [
                0
            ]
        }
    ],
    "nodes" : [
        {
            "mesh" : 0,
            "name" : "person5_glasses"
        }
    ],
    "materials" : [
        {
            "doubleSided" : true,
            "name" : "glasses3.003",
            "pbrMetallicRoughness" : {}
        },
        {
            "doubleSided" : true,
            "emissiveFactor" : [
                0,
                0,
                0
            ],
            "name" : "glasses_silver.001",
            "pbrMetallicRoughness" : {
                "baseColorFactor" : [
                    0.5702242255210876,
                    0.5702242255210876,
                    0.5702242255210876,
                    1
                ],
                "metallicFactor" : 1,
                "roughnessFactor" : 0
            }
        },
        {
            "doubleSided" : true,
            "emissiveFactor" : [
                0,
                0,
                0
            ],
            "name" : "glasses.003",
            "pbrMetallicRoughness" : {
                "baseColorFactor" : [
                    0.008023192174732685,
                    0.008023192174732685,
                    0.008023192174732685,
                    1
                ],
                "metallicFactor" : 0,
                "roughnessFactor" : 0
            }
        }
    ],
    "meshes" : [
        {
            "name" : "person5_glasses",
            "primitives" : [
                {
                    "attributes" : {
                        "POSITION" : 0,
                        "NORMAL" : 1
                    },
                    "indices" : 2,
                    "material" : 0
                },
                {
                    "attributes" : {
                        "POSITION" : 3,
                        "NORMAL" : 4
                    },
                    "indices" : 5,
                    "material" : 1
                },
                {
                    "attributes" : {
                        "POSITION" : 6,
                        "NORMAL" : 7
                    },
                    "indices" : 8,
                    "material" : 2
                }
            ]
        }
    ],
    "accessors" : [
        {
            "bufferView" : 0,
            "componentType" : 5126,
            "count" : 320,
            "max" : [
                0.7227156758308411,
                1.8562204837799072,
                0.9648218154907227
            ],
            "min" : [
                -0.7227156758308411,
                1.5195386409759521,
                0.8283176422119141
            ],
            "type" : "VEC3"
        },
        {
            "bufferView" : 1,
            "componentType" : 5126,
            "count" : 320,
            "type" : "VEC3"
        },
        {
            "bufferView" : 2,
            "componentType" : 5123,
            "count" : 1536,
            "type" : "SCALAR"
        },
        {
            "bufferView" : 3,
            "componentType" : 5126,
            "count" : 350,
            "max" : [
                0.7987266182899475,
                1.7142891883850098,
                0.9692419171333313
            ],
            "min" : [
                -0.7987266182899475,
                1.643878698348999,
                0.772034764289856
            ],
            "type" : "VEC3"
        },
        {
            "bufferView" : 4,
            "componentType" : 5126,
            "count" : 350,
            "type" : "VEC3"
        },
        {
            "bufferView" : 5,
            "componentType" : 5123,
            "count" : 2016,
            "type" : "SCALAR"
        },
        {
            "bufferView" : 6,
            "componentType" : 5126,
            "count" : 500,
            "max" : [
                0.9872295260429382,
                1.7005785703659058,
                0.7750908136367798
            ],
            "min" : [
                -0.9872295260429382,
                1.5477125644683838,
                -0.3442622721195221
            ],
            "type" : "VEC3"
        },
        {
            "bufferView" : 7,
            "componentType" : 5126,
            "count" : 500,
            "type" : "VEC3"
        },
        {
            "bufferView" : 8,
            "componentType" : 5123,
            "count" : 2928,
            "type" : "SCALAR"
        }
    ],
    "bufferViews" : [
        {
            "buffer" : 0,
            "byteLength" : 3840,
            "byteOffset" : 0
        },
        {
            "buffer" : 0,
            "byteLength" : 3840,
            "byteOffset" : 3840
        },
        {
            "buffer" : 0,
            "byteLength" : 3072,
            "byteOffset" : 7680
        },
        {
            "buffer" : 0,
            "byteLength" : 4200,
            "byteOffset" : 10752
        },
        {
            "buffer" : 0,
            "byteLength" : 4200,
            "byteOffset" : 14952
        },
        {
            "buffer" : 0,
            "byteLength" : 4032,
            "byteOffset" : 19152
        },
        {
            "buffer" : 0,
            "byteLength" : 6000,
            "byteOffset" : 23184
        },
        {
            "buffer" : 0,
            "byteLength" : 6000,
            "byteOffset" : 29184
        },
        {
            "buffer" : 0,
            "byteLength" : 5856,
            "byteOffset" : 35184
        }
    ],
    "buffers" : [
        {
            "byteLength" : 41040,
            "uri" : "data:application/octet-stream;base64,"
        }
    ]
}
