{
    "asset" : {
        "generator" : "Khronos glTF Blender I/O v1.3.48",
        "version" : "2.0"
    },
    "scene" : 0,
    "scenes" : [
        {
            "name" : "Scene",
            "nodes" : [
                0
            ]
        }
    ],
    "nodes" : [
        {
            "mesh" : 0,
            "name" : "army_pants"
        }
    ],
    "materials" : [
        {
            "doubleSided" : true,
            "emissiveFactor" : [
                0,
                0,
                0
            ],
            "name" : "shirt_camo",
            "pbrMetallicRoughness" : {
                "baseColorFactor" : [
                    0.1125744879245758,
                    0.1423569619655609,
                    0.04326953738927841,
                    1
                ],
                "metallicFactor" : 0,
                "roughnessFactor" : 0.800000011920929
            }
        },
        {
            "doubleSided" : true,
            "emissiveFactor" : [
                0,
                0,
                0
            ],
            "name" : "shirt_camo_3",
            "pbrMetallicRoughness" : {
                "baseColorFactor" : [
                    0.029080290347337723,
                    0.022813191637396812,
                    0.0100796427577734,
                    1
                ],
                "metallicFactor" : 0,
                "roughnessFactor" : 0.800000011920929
            }
        },
        {
            "doubleSided" : true,
            "emissiveFactor" : [
                0,
                0,
                0
            ],
            "name" : "shirt_camo_2",
            "pbrMetallicRoughness" : {
                "baseColorFactor" : [
                    0.3843008875846863,
                    0.28675389289855957,
                    0.10132276266813278,
                    1
                ],
                "metallicFactor" : 0,
                "roughnessFactor" : 0.800000011920929
            }
        }
    ],
    "meshes" : [
        {
            "name" : "army_pants",
            "primitives" : [
                {
                    "attributes" : {
                        "POSITION" : 0,
                        "NORMAL" : 1
                    },
                    "indices" : 2,
                    "material" : 0
                },
                {
                    "attributes" : {
                        "POSITION" : 3,
                        "NORMAL" : 4
                    },
                    "indices" : 5,
                    "material" : 1
                },
                {
                    "attributes" : {
                        "POSITION" : 6,
                        "NORMAL" : 7
                    },
                    "indices" : 8,
                    "material" : 2
                }
            ]
        }
    ],
    "accessors" : [
        {
            "bufferView" : 0,
            "componentType" : 5126,
            "count" : 465,
            "max" : [
                0.6758902072906494,
                -0.04455411061644554,
                0.6758902072906494
            ],
            "min" : [
                -0.6758902072906494,
                -0.6473144292831421,
                -0.6758902072906494
            ],
            "type" : "VEC3"
        },
        {
            "bufferView" : 1,
            "componentType" : 5126,
            "count" : 465,
            "type" : "VEC3"
        },
        {
            "bufferView" : 2,
            "componentType" : 5123,
            "count" : 2688,
            "type" : "SCALAR"
        },
        {
            "bufferView" : 3,
            "componentType" : 5126,
            "count" : 904,
            "max" : [
                0.6465270519256592,
                -0.13999108970165253,
                0.6455326676368713
            ],
            "min" : [
                -0.6465270519256592,
                -0.5918823480606079,
                -0.6455326676368713
            ],
            "type" : "VEC3"
        },
        {
            "bufferView" : 4,
            "componentType" : 5126,
            "count" : 904,
            "type" : "VEC3"
        },
        {
            "bufferView" : 5,
            "componentType" : 5123,
            "count" : 3744,
            "type" : "SCALAR"
        },
        {
            "bufferView" : 6,
            "componentType" : 5126,
            "count" : 452,
            "max" : [
                0.4711533784866333,
                -0.13999108970165253,
                0.4618537724018097
            ],
            "min" : [
                -0.6465270519256592,
                -0.5918823480606079,
                -0.6455326676368713
            ],
            "type" : "VEC3"
        },
        {
            "bufferView" : 7,
            "componentType" : 5126,
            "count" : 452,
            "type" : "VEC3"
        },
        {
            "bufferView" : 8,
            "componentType" : 5123,
            "count" : 1872,
            "type" : "SCALAR"
        }
    ],
    "bufferViews" : [
        {
            "buffer" : 0,
            "byteLength" : 5580,
            "byteOffset" : 0
        },
        {
            "buffer" : 0,
            "byteLength" : 5580,
            "byteOffset" : 5580
        },
        {
            "buffer" : 0,
            "byteLength" : 5376,
            "byteOffset" : 11160
        },
        {
            "buffer" : 0,
            "byteLength" : 10848,
            "byteOffset" : 16536
        },
        {
            "buffer" : 0,
            "byteLength" : 10848,
            "byteOffset" : 27384
        },
        {
            "buffer" : 0,
            "byteLength" : 7488,
            "byteOffset" : 38232
        },
        {
            "buffer" : 0,
            "byteLength" : 5424,
            "byteOffset" : 45720
        },
        {
            "buffer" : 0,
            "byteLength" : 5424,
            "byteOffset" : 51144
        },
        {
            "buffer" : 0,
            "byteLength" : 3744,
            "byteOffset" : 56568
        }
    ],
    "buffers" : [
        {
            "byteLength" : 60312,
            "uri" : "data:application/octet-stream;base64,"
        }
    ]
}
