{
    "asset" : {
        "generator" : "Khronos glTF Blender I/O v1.3.48",
        "version" : "2.0"
    },
    "scene" : 0,
    "scenes" : [
        {
            "name" : "Scene",
            "nodes" : [
                0
            ]
        }
    ],
    "nodes" : [
        {
            "mesh" : 0,
            "name" : "pyjama"
        }
    ],
    "materials" : [
        {
            "doubleSided" : true,
            "emissiveFactor" : [
                0,
                0,
                0
            ],
            "name" : "pyjama.001",
            "pbrMetallicRoughness" : {
                "baseColorFactor" : [
                    0.40188437700271606,
                    0.40188437700271606,
                    0.40188437700271606,
                    1
                ],
                "metallicFactor" : 0,
                "roughnessFactor" : 0.800000011920929
            }
        },
        {
            "doubleSided" : true,
            "emissiveFactor" : [
                0,
                0,
                0
            ],
            "name" : "pyjama2.001",
            "pbrMetallicRoughness" : {
                "baseColorFactor" : [
                    0.02036265656352043,
                    0.02036265656352043,
                    0.02036265656352043,
                    1
                ],
                "metallicFactor" : 0,
                "roughnessFactor" : 0.800000011920929
            }
        }
    ],
    "meshes" : [
        {
            "name" : "pyjama",
            "primitives" : [
                {
                    "attributes" : {
                        "POSITION" : 0,
                        "NORMAL" : 1
                    },
                    "indices" : 2,
                    "material" : 0
                },
                {
                    "attributes" : {
                        "POSITION" : 3,
                        "NORMAL" : 4
                    },
                    "indices" : 5,
                    "material" : 1
                }
            ]
        }
    ],
    "accessors" : [
        {
            "bufferView" : 0,
            "componentType" : 5126,
            "count" : 630,
            "max" : [
                0.6869922876358032,
                -0.04056646674871445,
                0.7175845503807068
            ],
            "min" : [
                -0.6869922876358032,
                -0.6510372757911682,
                -0.6811771392822266
            ],
            "type" : "VEC3"
        },
        {
            "bufferView" : 1,
            "componentType" : 5126,
            "count" : 630,
            "type" : "VEC3"
        },
        {
            "bufferView" : 2,
            "componentType" : 5123,
            "count" : 1584,
            "type" : "SCALAR"
        },
        {
            "bufferView" : 3,
            "componentType" : 5126,
            "count" : 566,
            "max" : [
                0.6869922876358032,
                -0.04056646674871445,
                0.6869922876358032
            ],
            "min" : [
                -0.6869922876358032,
                -0.6531420946121216,
                -0.6869922876358032
            ],
            "type" : "VEC3"
        },
        {
            "bufferView" : 4,
            "componentType" : 5126,
            "count" : 566,
            "type" : "VEC3"
        },
        {
            "bufferView" : 5,
            "componentType" : 5123,
            "count" : 2220,
            "type" : "SCALAR"
        }
    ],
    "bufferViews" : [
        {
            "buffer" : 0,
            "byteLength" : 7560,
            "byteOffset" : 0
        },
        {
            "buffer" : 0,
            "byteLength" : 7560,
            "byteOffset" : 7560
        },
        {
            "buffer" : 0,
            "byteLength" : 3168,
            "byteOffset" : 15120
        },
        {
            "buffer" : 0,
            "byteLength" : 6792,
            "byteOffset" : 18288
        },
        {
            "buffer" : 0,
            "byteLength" : 6792,
            "byteOffset" : 25080
        },
        {
            "buffer" : 0,
            "byteLength" : 4440,
            "byteOffset" : 31872
        }
    ],
    "buffers" : [
        {
            "byteLength" : 36312,
            "uri" : "data:application/octet-stream;base64,"
        }
    ]
}
