{
    "asset" : {
        "generator" : "Khronos glTF Blender I/O v1.3.48",
        "version" : "2.0"
    },
    "scene" : 0,
    "scenes" : [
        {
            "name" : "Scene",
            "nodes" : [
                0
            ]
        }
    ],
    "nodes" : [
        {
            "mesh" : 0,
            "name" : "linen_khaki"
        }
    ],
    "materials" : [
        {
            "doubleSided" : true,
            "emissiveFactor" : [
                0,
                0,
                0
            ],
            "name" : "linen_khaki",
            "pbrMetallicRoughness" : {
                "baseColorFactor" : [
                    0.22638706862926483,
                    0.1497071534395218,
                    0.12146840989589691,
                    1
                ],
                "metallicFactor" : 0,
                "roughnessFactor" : 0.800000011920929
            }
        }
    ],
    "meshes" : [
        {
            "name" : "linen_khaki",
            "primitives" : [
                {
                    "attributes" : {
                        "POSITION" : 0,
                        "NORMAL" : 1
                    },
                    "indices" : 2,
                    "material" : 0
                }
            ]
        }
    ],
    "accessors" : [
        {
            "bufferView" : 0,
            "componentType" : 5126,
            "count" : 988,
            "max" : [
                0.6973026394844055,
                -0.04254172742366791,
                0.715171217918396
            ],
            "min" : [
                -0.6973026394844055,
                -0.6528047919273376,
                -0.6973026394844055
            ],
            "type" : "VEC3"
        },
        {
            "bufferView" : 1,
            "componentType" : 5126,
            "count" : 988,
            "type" : "VEC3"
        },
        {
            "bufferView" : 2,
            "componentType" : 5123,
            "count" : 5760,
            "type" : "SCALAR"
        }
    ],
    "bufferViews" : [
        {
            "buffer" : 0,
            "byteLength" : 11856,
            "byteOffset" : 0
        },
        {
            "buffer" : 0,
            "byteLength" : 11856,
            "byteOffset" : 11856
        },
        {
            "buffer" : 0,
            "byteLength" : 11520,
            "byteOffset" : 23712
        }
    ],
    "buffers" : [
        {
            "byteLength" : 35232,
            "uri" : "data:application/octet-stream;base64,"
        }
    ]
}
