{
    "asset" : {
        "generator" : "Khronos glTF Blender I/O v1.3.48",
        "version" : "2.0"
    },
    "scene" : 0,
    "scenes" : [
        {
            "name" : "Scene",
            "nodes" : [
                0
            ]
        }
    ],
    "nodes" : [
        {
            "mesh" : 0,
            "name" : "beach_pants"
        }
    ],
    "materials" : [
        {
            "doubleSided" : true,
            "emissiveFactor" : [
                0,
                0,
                0
            ],
            "name" : "cloth_blue.001",
            "pbrMetallicRoughness" : {
                "baseColorFactor" : [
                    0.12743771076202393,
                    0.24228115379810333,
                    0.34191441535949707,
                    1
                ],
                "metallicFactor" : 0,
                "roughnessFactor" : 0.800000011920929
            }
        },
        {
            "doubleSided" : true,
            "emissiveFactor" : [
                0,
                0,
                0
            ],
            "name" : "pyjama.002",
            "pbrMetallicRoughness" : {
                "baseColorFactor" : [
                    0.40188437700271606,
                    0.40188437700271606,
                    0.40188437700271606,
                    1
                ],
                "metallicFactor" : 0,
                "roughnessFactor" : 0.800000011920929
            }
        },
        {
            "doubleSided" : true,
            "emissiveFactor" : [
                0,
                0,
                0
            ],
            "name" : "pyjama3",
            "pbrMetallicRoughness" : {
                "baseColorFactor" : [
                    0.23934146761894226,
                    0.23934146761894226,
                    0.23934146761894226,
                    1
                ],
                "metallicFactor" : 0,
                "roughnessFactor" : 0.800000011920929
            }
        }
    ],
    "meshes" : [
        {
            "name" : "beach_pants.001",
            "primitives" : [
                {
                    "attributes" : {
                        "POSITION" : 0,
                        "NORMAL" : 1
                    },
                    "indices" : 2,
                    "material" : 0
                },
                {
                    "attributes" : {
                        "POSITION" : 3,
                        "NORMAL" : 4
                    },
                    "indices" : 5,
                    "material" : 1
                },
                {
                    "attributes" : {
                        "POSITION" : 6,
                        "NORMAL" : 7
                    },
                    "indices" : 8,
                    "material" : 2
                }
            ]
        }
    ],
    "accessors" : [
        {
            "bufferView" : 0,
            "componentType" : 5126,
            "count" : 500,
            "max" : [
                0.7012550234794617,
                -0.04253828525543213,
                0.6893975734710693
            ],
            "min" : [
                -0.7012550234794617,
                -0.660262405872345,
                -0.6893975734710693
            ],
            "type" : "VEC3"
        },
        {
            "bufferView" : 1,
            "componentType" : 5126,
            "count" : 500,
            "type" : "VEC3"
        },
        {
            "bufferView" : 2,
            "componentType" : 5123,
            "count" : 1452,
            "type" : "SCALAR"
        },
        {
            "bufferView" : 3,
            "componentType" : 5126,
            "count" : 791,
            "max" : [
                0.7012550234794617,
                -0.04253828525543213,
                0.7012550234794617
            ],
            "min" : [
                -0.7012550234794617,
                -0.7098929286003113,
                -0.7012550234794617
            ],
            "type" : "VEC3"
        },
        {
            "bufferView" : 4,
            "componentType" : 5126,
            "count" : 791,
            "type" : "VEC3"
        },
        {
            "bufferView" : 5,
            "componentType" : 5123,
            "count" : 3156,
            "type" : "SCALAR"
        },
        {
            "bufferView" : 6,
            "componentType" : 5126,
            "count" : 216,
            "max" : [
                0.6799359321594238,
                -0.23341289162635803,
                0.6793510913848877
            ],
            "min" : [
                -0.6799359321594238,
                -0.3844250738620758,
                -0.6790525317192078
            ],
            "type" : "VEC3"
        },
        {
            "bufferView" : 7,
            "componentType" : 5126,
            "count" : 216,
            "type" : "VEC3"
        },
        {
            "bufferView" : 8,
            "componentType" : 5123,
            "count" : 816,
            "type" : "SCALAR"
        }
    ],
    "bufferViews" : [
        {
            "buffer" : 0,
            "byteLength" : 6000,
            "byteOffset" : 0
        },
        {
            "buffer" : 0,
            "byteLength" : 6000,
            "byteOffset" : 6000
        },
        {
            "buffer" : 0,
            "byteLength" : 2904,
            "byteOffset" : 12000
        },
        {
            "buffer" : 0,
            "byteLength" : 9492,
            "byteOffset" : 14904
        },
        {
            "buffer" : 0,
            "byteLength" : 9492,
            "byteOffset" : 24396
        },
        {
            "buffer" : 0,
            "byteLength" : 6312,
            "byteOffset" : 33888
        },
        {
            "buffer" : 0,
            "byteLength" : 2592,
            "byteOffset" : 40200
        },
        {
            "buffer" : 0,
            "byteLength" : 2592,
            "byteOffset" : 42792
        },
        {
            "buffer" : 0,
            "byteLength" : 1632,
            "byteOffset" : 45384
        }
    ],
    "buffers" : [
        {
            "byteLength" : 47016,
            "uri" : "data:application/octet-stream;base64,"
        }
    ]
}
