{
    "asset" : {
        "generator" : "Khronos glTF Blender I/O v1.3.48",
        "version" : "2.0"
    },
    "scene" : 0,
    "scenes" : [
        {
            "name" : "Scene",
            "nodes" : [
                0
            ]
        }
    ],
    "nodes" : [
        {
            "mesh" : 0,
            "name" : "jeans"
        }
    ],
    "materials" : [
        {
            "doubleSided" : true,
            "emissiveFactor" : [
                0,
                0,
                0
            ],
            "name" : "cloth_blue_dark",
            "pbrMetallicRoughness" : {
                "baseColorFactor" : [
                    0.07313212007284164,
                    0.11886215955018997,
                    0.20778626203536987,
                    1
                ],
                "metallicFactor" : 0,
                "roughnessFactor" : 0.800000011920929
            }
        }
    ],
    "meshes" : [
        {
            "name" : "jeans",
            "primitives" : [
                {
                    "attributes" : {
                        "POSITION" : 0,
                        "NORMAL" : 1
                    },
                    "indices" : 2,
                    "material" : 0
                }
            ]
        }
    ],
    "accessors" : [
        {
            "bufferView" : 0,
            "componentType" : 5126,
            "count" : 827,
            "max" : [
                0.6850590109825134,
                -0.04455411061644554,
                0.6837594509124756
            ],
            "min" : [
                -0.6850590109825134,
                -0.6801527738571167,
                -0.6842621564865112
            ],
            "type" : "VEC3"
        },
        {
            "bufferView" : 1,
            "componentType" : 5126,
            "count" : 827,
            "type" : "VEC3"
        },
        {
            "bufferView" : 2,
            "componentType" : 5123,
            "count" : 3684,
            "type" : "SCALAR"
        }
    ],
    "bufferViews" : [
        {
            "buffer" : 0,
            "byteLength" : 9924,
            "byteOffset" : 0
        },
        {
            "buffer" : 0,
            "byteLength" : 9924,
            "byteOffset" : 9924
        },
        {
            "buffer" : 0,
            "byteLength" : 7368,
            "byteOffset" : 19848
        }
    ],
    "buffers" : [
        {
            "byteLength" : 27216,
            "uri" : "data:application/octet-stream;base64,"
        }
    ]
}
