{
    "asset" : {
        "generator" : "Khronos glTF Blender I/O v1.3.48",
        "version" : "2.0"
    },
    "scene" : 0,
    "scenes" : [
        {
            "name" : "Scene",
            "nodes" : [
                0
            ]
        }
    ],
    "nodes" : [
        {
            "mesh" : 0,
            "name" : "underwear"
        }
    ],
    "materials" : [
        {
            "doubleSided" : true,
            "emissiveFactor" : [
                0,
                0,
                0
            ],
            "name" : "coat.001",
            "pbrMetallicRoughness" : {
                "baseColorFactor" : [
                    0.01465725339949131,
                    0.01465725339949131,
                    0.01465725339949131,
                    1
                ],
                "metallicFactor" : 0,
                "roughnessFactor" : 0.800000011920929
            }
        },
        {
            "doubleSided" : true,
            "emissiveFactor" : [
                0,
                0,
                0
            ],
            "name" : "shirt2.001",
            "pbrMetallicRoughness" : {
                "baseColorFactor" : [
                    0.800000011920929,
                    0.800000011920929,
                    0.800000011920929,
                    1
                ],
                "metallicFactor" : 0,
                "roughnessFactor" : 0.800000011920929
            }
        }
    ],
    "meshes" : [
        {
            "name" : "underwear",
            "primitives" : [
                {
                    "attributes" : {
                        "POSITION" : 0,
                        "NORMAL" : 1
                    },
                    "indices" : 2,
                    "material" : 0
                },
                {
                    "attributes" : {
                        "POSITION" : 3,
                        "NORMAL" : 4
                    },
                    "indices" : 5,
                    "material" : 1
                }
            ]
        }
    ],
    "accessors" : [
        {
            "bufferView" : 0,
            "componentType" : 5126,
            "count" : 409,
            "max" : [
                0.6746973991394043,
                -0.05739084631204605,
                0.6746973991394043
            ],
            "min" : [
                -0.6746973991394043,
                -0.6431092619895935,
                -0.673787534236908
            ],
            "type" : "VEC3"
        },
        {
            "bufferView" : 1,
            "componentType" : 5126,
            "count" : 409,
            "type" : "VEC3"
        },
        {
            "bufferView" : 2,
            "componentType" : 5123,
            "count" : 2160,
            "type" : "SCALAR"
        },
        {
            "bufferView" : 3,
            "componentType" : 5126,
            "count" : 96,
            "max" : [
                0.6746973991394043,
                -0.05739084631204605,
                0.6746973991394043
            ],
            "min" : [
                -0.6746973991394043,
                -0.23611417412757874,
                -0.673787534236908
            ],
            "type" : "VEC3"
        },
        {
            "bufferView" : 4,
            "componentType" : 5126,
            "count" : 96,
            "type" : "VEC3"
        },
        {
            "bufferView" : 5,
            "componentType" : 5123,
            "count" : 384,
            "type" : "SCALAR"
        }
    ],
    "bufferViews" : [
        {
            "buffer" : 0,
            "byteLength" : 4908,
            "byteOffset" : 0
        },
        {
            "buffer" : 0,
            "byteLength" : 4908,
            "byteOffset" : 4908
        },
        {
            "buffer" : 0,
            "byteLength" : 4320,
            "byteOffset" : 9816
        },
        {
            "buffer" : 0,
            "byteLength" : 1152,
            "byteOffset" : 14136
        },
        {
            "buffer" : 0,
            "byteLength" : 1152,
            "byteOffset" : 15288
        },
        {
            "buffer" : 0,
            "byteLength" : 768,
            "byteOffset" : 16440
        }
    ],
    "buffers" : [
        {
            "byteLength" : 17208,
            "uri" : "data:application/octet-stream;base64,"
        }
    ]
}
