{
    "asset" : {
        "generator" : "Khronos glTF Blender I/O v1.3.48",
        "version" : "2.0"
    },
    "scene" : 0,
    "scenes" : [
        {
            "name" : "Scene",
            "nodes" : [
                0
            ]
        }
    ],
    "nodes" : [
        {
            "mesh" : 0,
            "name" : "beret"
        }
    ],
    "materials" : [
        {
            "doubleSided" : true,
            "emissiveFactor" : [
                0,
                0,
                0
            ],
            "name" : "beret",
            "pbrMetallicRoughness" : {
                "baseColorFactor" : [
                    0.011676064692437649,
                    0.009612437337636948,
                    0.015980485826730728,
                    1
                ],
                "metallicFactor" : 0,
                "roughnessFactor" : 0.800000011920929
            }
        }
    ],
    "meshes" : [
        {
            "name" : "Cube.034",
            "primitives" : [
                {
                    "attributes" : {
                        "POSITION" : 0,
                        "NORMAL" : 1
                    },
                    "indices" : 2,
                    "material" : 0
                }
            ]
        }
    ],
    "accessors" : [
        {
            "bufferView" : 0,
            "componentType" : 5126,
            "count" : 683,
            "max" : [
                1.2678040266036987,
                2.877527952194214,
                1.038385033607483
            ],
            "min" : [
                -1.0996915102005005,
                1.6939245462417603,
                -1.4176522493362427
            ],
            "type" : "VEC3"
        },
        {
            "bufferView" : 1,
            "componentType" : 5126,
            "count" : 683,
            "type" : "VEC3"
        },
        {
            "bufferView" : 2,
            "componentType" : 5123,
            "count" : 3984,
            "type" : "SCALAR"
        }
    ],
    "bufferViews" : [
        {
            "buffer" : 0,
            "byteLength" : 8196,
            "byteOffset" : 0
        },
        {
            "buffer" : 0,
            "byteLength" : 8196,
            "byteOffset" : 8196
        },
        {
            "buffer" : 0,
            "byteLength" : 7968,
            "byteOffset" : 16392
        }
    ],
    "buffers" : [
        {
            "byteLength" : 24360,
            "uri" : "data:application/octet-stream;base64,"
        }
    ]
}
