{
    "asset" : {
        "generator" : "Khronos glTF Blender I/O v1.3.48",
        "version" : "2.0"
    },
    "scene" : 0,
    "scenes" : [
        {
            "name" : "Scene",
            "nodes" : [
                0
            ]
        }
    ],
    "nodes" : [
        {
            "mesh" : 0,
            "name" : "halloween_hat"
        }
    ],
    "materials" : [
        {
            "doubleSided" : true,
            "emissiveFactor" : [
                0,
                0,
                0
            ],
            "name" : "cloth_black",
            "pbrMetallicRoughness" : {
                "baseColorFactor" : [
                    0.0055908081121742725,
                    0.0055908081121742725,
                    0.0055908081121742725,
                    1
                ],
                "metallicFactor" : 0,
                "roughnessFactor" : 0.800000011920929
            }
        },
        {
            "doubleSided" : true,
            "emissiveFactor" : [
                0,
                0,
                0
            ],
            "name" : "cloth_purple",
            "pbrMetallicRoughness" : {
                "baseColorFactor" : [
                    0.48666223883628845,
                    0.057958878576755524,
                    0.24558405578136444,
                    1
                ],
                "metallicFactor" : 0,
                "roughnessFactor" : 0.800000011920929
            }
        },
        {
            "doubleSided" : true,
            "emissiveFactor" : [
                0,
                0,
                0
            ],
            "name" : "cloth_gold",
            "pbrMetallicRoughness" : {
                "baseColorFactor" : [
                    0.7872158288955688,
                    0.30962541699409485,
                    0.06967242062091827,
                    1
                ],
                "metallicFactor" : 0,
                "roughnessFactor" : 0.800000011920929
            }
        }
    ],
    "meshes" : [
        {
            "name" : "halloween_hat",
            "primitives" : [
                {
                    "attributes" : {
                        "POSITION" : 0,
                        "NORMAL" : 1
                    },
                    "indices" : 2,
                    "material" : 0
                },
                {
                    "attributes" : {
                        "POSITION" : 3,
                        "NORMAL" : 4
                    },
                    "indices" : 5,
                    "material" : 1
                },
                {
                    "attributes" : {
                        "POSITION" : 6,
                        "NORMAL" : 7
                    },
                    "indices" : 8,
                    "material" : 2
                }
            ]
        }
    ],
    "accessors" : [
        {
            "bufferView" : 0,
            "componentType" : 5126,
            "count" : 866,
            "max" : [
                1.536659598350525,
                4.015894889831543,
                1.2425034046173096
            ],
            "min" : [
                -1.483204960823059,
                2.0941832065582275,
                -1.7253224849700928
            ],
            "type" : "VEC3"
        },
        {
            "bufferView" : 1,
            "componentType" : 5126,
            "count" : 866,
            "type" : "VEC3"
        },
        {
            "bufferView" : 2,
            "componentType" : 5123,
            "count" : 4992,
            "type" : "SCALAR"
        },
        {
            "bufferView" : 3,
            "componentType" : 5126,
            "count" : 219,
            "max" : [
                0.8414584994316101,
                3.0624284744262695,
                0.5641646385192871
            ],
            "min" : [
                -0.7628130316734314,
                2.4614827632904053,
                -1.0817115306854248
            ],
            "type" : "VEC3"
        },
        {
            "bufferView" : 4,
            "componentType" : 5126,
            "count" : 219,
            "type" : "VEC3"
        },
        {
            "bufferView" : 5,
            "componentType" : 5123,
            "count" : 1032,
            "type" : "SCALAR"
        },
        {
            "bufferView" : 6,
            "componentType" : 5126,
            "count" : 45,
            "max" : [
                0.18482427299022675,
                3.062572479248047,
                0.5743536949157715
            ],
            "min" : [
                -0.36370187997817993,
                2.9248366355895996,
                0.37743455171585083
            ],
            "type" : "VEC3"
        },
        {
            "bufferView" : 7,
            "componentType" : 5126,
            "count" : 45,
            "type" : "VEC3"
        },
        {
            "bufferView" : 8,
            "componentType" : 5123,
            "count" : 192,
            "type" : "SCALAR"
        }
    ],
    "bufferViews" : [
        {
            "buffer" : 0,
            "byteLength" : 10392,
            "byteOffset" : 0
        },
        {
            "buffer" : 0,
            "byteLength" : 10392,
            "byteOffset" : 10392
        },
        {
            "buffer" : 0,
            "byteLength" : 9984,
            "byteOffset" : 20784
        },
        {
            "buffer" : 0,
            "byteLength" : 2628,
            "byteOffset" : 30768
        },
        {
            "buffer" : 0,
            "byteLength" : 2628,
            "byteOffset" : 33396
        },
        {
            "buffer" : 0,
            "byteLength" : 2064,
            "byteOffset" : 36024
        },
        {
            "buffer" : 0,
            "byteLength" : 540,
            "byteOffset" : 38088
        },
        {
            "buffer" : 0,
            "byteLength" : 540,
            "byteOffset" : 38628
        },
        {
            "buffer" : 0,
            "byteLength" : 384,
            "byteOffset" : 39168
        }
    ],
    "buffers" : [
        {
            "byteLength" : 39552,
            "uri" : "data:application/octet-stream;base64,"
        }
    ]
}
