{
    "asset" : {
        "generator" : "Khronos glTF Blender I/O v1.3.48",
        "version" : "2.0"
    },
    "scene" : 0,
    "scenes" : [
        {
            "name" : "Scene",
            "nodes" : [
                0
            ]
        }
    ],
    "nodes" : [
        {
            "mesh" : 0,
            "name" : "mortar_board"
        }
    ],
    "materials" : [
        {
            "doubleSided" : true,
            "emissiveFactor" : [
                0,
                0,
                0
            ],
            "name" : "mortar_board",
            "pbrMetallicRoughness" : {
                "baseColorFactor" : [
                    0.011676064692437649,
                    0.009612437337636948,
                    0.015980485826730728,
                    1
                ],
                "metallicFactor" : 0,
                "roughnessFactor" : 0.800000011920929
            }
        }
    ],
    "meshes" : [
        {
            "name" : "Cube.031",
            "primitives" : [
                {
                    "attributes" : {
                        "POSITION" : 0,
                        "NORMAL" : 1
                    },
                    "indices" : 2,
                    "material" : 0
                }
            ]
        }
    ],
    "accessors" : [
        {
            "bufferView" : 0,
            "componentType" : 5126,
            "count" : 1450,
            "max" : [
                1.5041537284851074,
                2.9530930519104004,
                1.5033503770828247
            ],
            "min" : [
                -1.5033034086227417,
                2.017080545425415,
                -1.5029674768447876
            ],
            "type" : "VEC3"
        },
        {
            "bufferView" : 1,
            "componentType" : 5126,
            "count" : 1450,
            "type" : "VEC3"
        },
        {
            "bufferView" : 2,
            "componentType" : 5123,
            "count" : 6192,
            "type" : "SCALAR"
        }
    ],
    "bufferViews" : [
        {
            "buffer" : 0,
            "byteLength" : 17400,
            "byteOffset" : 0
        },
        {
            "buffer" : 0,
            "byteLength" : 17400,
            "byteOffset" : 17400
        },
        {
            "buffer" : 0,
            "byteLength" : 12384,
            "byteOffset" : 34800
        }
    ],
    "buffers" : [
        {
            "byteLength" : 47184,
            "uri" : "data:application/octet-stream;base64,"
        }
    ]
}
