{
    "asset" : {
        "generator" : "Khronos glTF Blender I/O v1.3.48",
        "version" : "2.0"
    },
    "scene" : 0,
    "scenes" : [
        {
            "name" : "Scene",
            "nodes" : [
                0
            ]
        }
    ],
    "nodes" : [
        {
            "mesh" : 0,
            "name" : "baloon"
        }
    ],
    "materials" : [
        {
            "doubleSided" : true,
            "emissiveFactor" : [
                0,
                0,
                0
            ],
            "name" : "baloon",
            "pbrMetallicRoughness" : {
                "baseColorFactor" : [
                    0.800000011920929,
                    0.01561999972909689,
                    0.011374999769032001,
                    1
                ],
                "metallicFactor" : 0,
                "roughnessFactor" : 0
            }
        }
    ],
    "meshes" : [
        {
            "name" : "baloon",
            "primitives" : [
                {
                    "attributes" : {
                        "POSITION" : 0,
                        "NORMAL" : 1,
                        "TEXCOORD_0" : 2
                    },
                    "indices" : 3,
                    "material" : 0
                }
            ]
        }
    ],
    "accessors" : [
        {
            "bufferView" : 0,
            "componentType" : 5126,
            "count" : 481,
            "max" : [
                0.6789899468421936,
                3.7437593936920166,
                0.6789900064468384
            ],
            "min" : [
                -0.6789897680282593,
                -0.025029225274920464,
                -0.6789897084236145
            ],
            "type" : "VEC3"
        },
        {
            "bufferView" : 1,
            "componentType" : 5126,
            "count" : 481,
            "type" : "VEC3"
        },
        {
            "bufferView" : 2,
            "componentType" : 5126,
            "count" : 481,
            "type" : "VEC2"
        },
        {
            "bufferView" : 3,
            "componentType" : 5123,
            "count" : 2706,
            "type" : "SCALAR"
        }
    ],
    "bufferViews" : [
        {
            "buffer" : 0,
            "byteLength" : 5772,
            "byteOffset" : 0
        },
        {
            "buffer" : 0,
            "byteLength" : 5772,
            "byteOffset" : 5772
        },
        {
            "buffer" : 0,
            "byteLength" : 3848,
            "byteOffset" : 11544
        },
        {
            "buffer" : 0,
            "byteLength" : 5412,
            "byteOffset" : 15392
        }
    ],
    "buffers" : [
        {
            "byteLength" : 20804,
            "uri" : "data:application/octet-stream;base64,"
        }
    ]
}
