{
    "asset" : {
        "generator" : "Khronos glTF Blender I/O v1.3.48",
        "version" : "2.0"
    },
    "scene" : 0,
    "scenes" : [
        {
            "name" : "Scene",
            "nodes" : [
                0
            ]
        }
    ],
    "nodes" : [
        {
            "mesh" : 0,
            "name" : "helmet"
        }
    ],
    "materials" : [
        {
            "doubleSided" : true,
            "emissiveFactor" : [
                0,
                0,
                0
            ],
            "name" : "helmet",
            "pbrMetallicRoughness" : {
                "baseColorFactor" : [
                    0.6724432706832886,
                    0.033104777336120605,
                    0.0368894599378109,
                    1
                ],
                "metallicFactor" : 0,
                "roughnessFactor" : 0.800000011920929
            }
        },
        {
            "doubleSided" : true,
            "emissiveFactor" : [
                0,
                0,
                0
            ],
            "name" : "helmet_2",
            "pbrMetallicRoughness" : {
                "baseColorFactor" : [
                    0.011676064692437649,
                    0.009612437337636948,
                    0.015980485826730728,
                    1
                ],
                "metallicFactor" : 0,
                "roughnessFactor" : 0.800000011920929
            }
        }
    ],
    "meshes" : [
        {
            "name" : "Cube.036",
            "primitives" : [
                {
                    "attributes" : {
                        "POSITION" : 0,
                        "NORMAL" : 1
                    },
                    "indices" : 2,
                    "material" : 0
                },
                {
                    "attributes" : {
                        "POSITION" : 3,
                        "NORMAL" : 4
                    },
                    "indices" : 5,
                    "material" : 1
                }
            ]
        }
    ],
    "accessors" : [
        {
            "bufferView" : 0,
            "componentType" : 5126,
            "count" : 723,
            "max" : [
                1.0368518829345703,
                2.855849027633667,
                1.074631690979004
            ],
            "min" : [
                -1.0368518829345703,
                2.024322271347046,
                -1.2189443111419678
            ],
            "type" : "VEC3"
        },
        {
            "bufferView" : 1,
            "componentType" : 5126,
            "count" : 723,
            "type" : "VEC3"
        },
        {
            "bufferView" : 2,
            "componentType" : 5123,
            "count" : 3840,
            "type" : "SCALAR"
        },
        {
            "bufferView" : 3,
            "componentType" : 5126,
            "count" : 1359,
            "max" : [
                1.063027024269104,
                2.0952308177948,
                1.2975504398345947
            ],
            "min" : [
                -1.063027024269104,
                0.7327602505683899,
                -1.241668939590454
            ],
            "type" : "VEC3"
        },
        {
            "bufferView" : 4,
            "componentType" : 5126,
            "count" : 1359,
            "type" : "VEC3"
        },
        {
            "bufferView" : 5,
            "componentType" : 5123,
            "count" : 5136,
            "type" : "SCALAR"
        }
    ],
    "bufferViews" : [
        {
            "buffer" : 0,
            "byteLength" : 8676,
            "byteOffset" : 0
        },
        {
            "buffer" : 0,
            "byteLength" : 8676,
            "byteOffset" : 8676
        },
        {
            "buffer" : 0,
            "byteLength" : 7680,
            "byteOffset" : 17352
        },
        {
            "buffer" : 0,
            "byteLength" : 16308,
            "byteOffset" : 25032
        },
        {
            "buffer" : 0,
            "byteLength" : 16308,
            "byteOffset" : 41340
        },
        {
            "buffer" : 0,
            "byteLength" : 10272,
            "byteOffset" : 57648
        }
    ],
    "buffers" : [
        {
            "byteLength" : 67920,
            "uri" : "data:application/octet-stream;base64,"
        }
    ]
}
