{
    "asset" : {
        "generator" : "Khronos glTF Blender I/O v1.3.48",
        "version" : "2.0"
    },
    "scene" : 0,
    "scenes" : [
        {
            "name" : "Scene",
            "nodes" : [
                0
            ]
        }
    ],
    "nodes" : [
        {
            "mesh" : 0,
            "name" : "chef's_hat"
        }
    ],
    "materials" : [
        {
            "doubleSided" : true,
            "emissiveFactor" : [
                0,
                0,
                0
            ],
            "name" : "cloth_white2",
            "pbrMetallicRoughness" : {
                "baseColorFactor" : [
                    0.7609868049621582,
                    0.7609868049621582,
                    0.7609868049621582,
                    1
                ],
                "metallicFactor" : 0,
                "roughnessFactor" : 0.800000011920929
            }
        }
    ],
    "meshes" : [
        {
            "name" : "chef's_hat",
            "primitives" : [
                {
                    "attributes" : {
                        "POSITION" : 0,
                        "NORMAL" : 1
                    },
                    "indices" : 2,
                    "material" : 0
                }
            ]
        }
    ],
    "accessors" : [
        {
            "bufferView" : 0,
            "componentType" : 5126,
            "count" : 721,
            "max" : [
                1.4648765325546265,
                4.140504360198975,
                1.0222605466842651
            ],
            "min" : [
                -1.1515796184539795,
                1.7960580587387085,
                -1.7933193445205688
            ],
            "type" : "VEC3"
        },
        {
            "bufferView" : 1,
            "componentType" : 5126,
            "count" : 721,
            "type" : "VEC3"
        },
        {
            "bufferView" : 2,
            "componentType" : 5123,
            "count" : 4224,
            "type" : "SCALAR"
        }
    ],
    "bufferViews" : [
        {
            "buffer" : 0,
            "byteLength" : 8652,
            "byteOffset" : 0
        },
        {
            "buffer" : 0,
            "byteLength" : 8652,
            "byteOffset" : 8652
        },
        {
            "buffer" : 0,
            "byteLength" : 8448,
            "byteOffset" : 17304
        }
    ],
    "buffers" : [
        {
            "byteLength" : 25752,
            "uri" : "data:application/octet-stream;base64,"
        }
    ]
}
