{
    "asset" : {
        "generator" : "Khronos glTF Blender I/O v1.3.48",
        "version" : "2.0"
    },
    "scene" : 0,
    "scenes" : [
        {
            "name" : "Scene",
            "nodes" : [
                0
            ]
        }
    ],
    "nodes" : [
        {
            "mesh" : 0,
            "name" : "beanie"
        }
    ],
    "materials" : [
        {
            "doubleSided" : true,
            "emissiveFactor" : [
                0,
                0,
                0
            ],
            "name" : "beanie",
            "pbrMetallicRoughness" : {
                "baseColorFactor" : [
                    0.01465725339949131,
                    0.01465725339949131,
                    0.01465725339949131,
                    1
                ],
                "metallicFactor" : 0,
                "roughnessFactor" : 0.800000011920929
            }
        }
    ],
    "meshes" : [
        {
            "name" : "Cube.033",
            "primitives" : [
                {
                    "attributes" : {
                        "POSITION" : 0,
                        "NORMAL" : 1
                    },
                    "indices" : 2,
                    "material" : 0
                }
            ]
        }
    ],
    "accessors" : [
        {
            "bufferView" : 0,
            "componentType" : 5126,
            "count" : 541,
            "max" : [
                1.0912659168243408,
                2.9542815685272217,
                0.9937006235122681
            ],
            "min" : [
                -1.0912659168243408,
                1.292496919631958,
                -1.264379858970642
            ],
            "type" : "VEC3"
        },
        {
            "bufferView" : 1,
            "componentType" : 5126,
            "count" : 541,
            "type" : "VEC3"
        },
        {
            "bufferView" : 2,
            "componentType" : 5123,
            "count" : 3144,
            "type" : "SCALAR"
        }
    ],
    "bufferViews" : [
        {
            "buffer" : 0,
            "byteLength" : 6492,
            "byteOffset" : 0
        },
        {
            "buffer" : 0,
            "byteLength" : 6492,
            "byteOffset" : 6492
        },
        {
            "buffer" : 0,
            "byteLength" : 6288,
            "byteOffset" : 12984
        }
    ],
    "buffers" : [
        {
            "byteLength" : 19272,
            "uri" : "data:application/octet-stream;base64,"
        }
    ]
}
