{
    "asset" : {
        "generator" : "Khronos glTF Blender I/O v1.3.48",
        "version" : "2.0"
    },
    "scene" : 0,
    "scenes" : [
        {
            "name" : "Scene",
            "nodes" : [
                0
            ]
        }
    ],
    "nodes" : [
        {
            "mesh" : 0,
            "name" : "headphone"
        }
    ],
    "materials" : [
        {
            "doubleSided" : true,
            "emissiveFactor" : [
                0,
                0,
                0
            ],
            "name" : "headphone",
            "pbrMetallicRoughness" : {
                "baseColorFactor" : [
                    0.12743771076202393,
                    0.12743768095970154,
                    0.12743771076202393,
                    1
                ],
                "metallicFactor" : 0,
                "roughnessFactor" : 0.5
            }
        },
        {
            "doubleSided" : true,
            "emissiveFactor" : [
                0,
                0,
                0
            ],
            "name" : "headphone2",
            "pbrMetallicRoughness" : {
                "baseColorFactor" : [
                    0.485150009393692,
                    0.48514994978904724,
                    0.485150009393692,
                    1
                ],
                "metallicFactor" : 0,
                "roughnessFactor" : 0.5
            }
        }
    ],
    "meshes" : [
        {
            "name" : "Plane",
            "primitives" : [
                {
                    "attributes" : {
                        "POSITION" : 0,
                        "NORMAL" : 1
                    },
                    "indices" : 2,
                    "material" : 0
                },
                {
                    "attributes" : {
                        "POSITION" : 3,
                        "NORMAL" : 4
                    },
                    "indices" : 5,
                    "material" : 1
                }
            ]
        }
    ],
    "accessors" : [
        {
            "bufferView" : 0,
            "componentType" : 5126,
            "count" : 189,
            "max" : [
                1.1931037902832031,
                2.928434133529663,
                0.32782450318336487
            ],
            "min" : [
                -1.1931037902832031,
                1.1269867420196533,
                -0.5246649384498596
            ],
            "type" : "VEC3"
        },
        {
            "bufferView" : 1,
            "componentType" : 5126,
            "count" : 189,
            "type" : "VEC3"
        },
        {
            "bufferView" : 2,
            "componentType" : 5123,
            "count" : 768,
            "type" : "SCALAR"
        },
        {
            "bufferView" : 3,
            "componentType" : 5126,
            "count" : 453,
            "max" : [
                1.1234676837921143,
                2.928434133529663,
                0.32782450318336487
            ],
            "min" : [
                -1.1234676837921143,
                1.1269867420196533,
                -0.5246649384498596
            ],
            "type" : "VEC3"
        },
        {
            "bufferView" : 4,
            "componentType" : 5126,
            "count" : 453,
            "type" : "VEC3"
        },
        {
            "bufferView" : 5,
            "componentType" : 5123,
            "count" : 1824,
            "type" : "SCALAR"
        }
    ],
    "bufferViews" : [
        {
            "buffer" : 0,
            "byteLength" : 2268,
            "byteOffset" : 0
        },
        {
            "buffer" : 0,
            "byteLength" : 2268,
            "byteOffset" : 2268
        },
        {
            "buffer" : 0,
            "byteLength" : 1536,
            "byteOffset" : 4536
        },
        {
            "buffer" : 0,
            "byteLength" : 5436,
            "byteOffset" : 6072
        },
        {
            "buffer" : 0,
            "byteLength" : 5436,
            "byteOffset" : 11508
        },
        {
            "buffer" : 0,
            "byteLength" : 3648,
            "byteOffset" : 16944
        }
    ],
    "buffers" : [
        {
            "byteLength" : 20592,
            "uri" : "data:application/octet-stream;base64,"
        }
    ]
}
