{
    "asset" : {
        "generator" : "Khronos glTF Blender I/O v1.3.48",
        "version" : "2.0"
    },
    "scene" : 0,
    "scenes" : [
        {
            "name" : "Scene",
            "nodes" : [
                0
            ]
        }
    ],
    "nodes" : [
        {
            "mesh" : 0,
            "name" : "reindeer_horns"
        }
    ],
    "materials" : [
        {
            "doubleSided" : true,
            "emissiveFactor" : [
                0,
                0,
                0
            ],
            "name" : "reindeer_horns",
            "pbrMetallicRoughness" : {
                "baseColorFactor" : [
                    0.17883899807929993,
                    0.04954700171947479,
                    0.02134699933230877,
                    1
                ],
                "metallicFactor" : 0,
                "roughnessFactor" : 0.5
            }
        }
    ],
    "meshes" : [
        {
            "name" : "reindeer_horns",
            "primitives" : [
                {
                    "attributes" : {
                        "POSITION" : 0,
                        "NORMAL" : 1
                    },
                    "indices" : 2,
                    "material" : 0
                }
            ]
        }
    ],
    "accessors" : [
        {
            "bufferView" : 0,
            "componentType" : 5126,
            "count" : 1004,
            "max" : [
                2.572631597518921,
                5.047601699829102,
                0.56886225938797
            ],
            "min" : [
                -2.572631597518921,
                1.4782195091247559,
                -1.0642693042755127
            ],
            "type" : "VEC3"
        },
        {
            "bufferView" : 1,
            "componentType" : 5126,
            "count" : 1004,
            "type" : "VEC3"
        },
        {
            "bufferView" : 2,
            "componentType" : 5123,
            "count" : 5040,
            "type" : "SCALAR"
        }
    ],
    "bufferViews" : [
        {
            "buffer" : 0,
            "byteLength" : 12048,
            "byteOffset" : 0
        },
        {
            "buffer" : 0,
            "byteLength" : 12048,
            "byteOffset" : 12048
        },
        {
            "buffer" : 0,
            "byteLength" : 10080,
            "byteOffset" : 24096
        }
    ],
    "buffers" : [
        {
            "byteLength" : 34176,
            "uri" : "data:application/octet-stream;base64,"
        }
    ]
}
