{
    "asset" : {
        "generator" : "Khronos glTF Blender I/O v1.3.48",
        "version" : "2.0"
    },
    "scene" : 0,
    "scenes" : [
        {
            "name" : "Scene",
            "nodes" : [
                0
            ]
        }
    ],
    "nodes" : [
        {
            "mesh" : 0,
            "name" : "santa_hat"
        }
    ],
    "materials" : [
        {
            "doubleSided" : true,
            "emissiveFactor" : [
                0,
                0,
                0
            ],
            "name" : "cloth_white",
            "pbrMetallicRoughness" : {
                "baseColorFactor" : [
                    1,
                    1,
                    1,
                    1
                ],
                "metallicFactor" : 0,
                "roughnessFactor" : 0.800000011920929
            }
        },
        {
            "doubleSided" : true,
            "emissiveFactor" : [
                0,
                0,
                0
            ],
            "name" : "cloth_red",
            "pbrMetallicRoughness" : {
                "baseColorFactor" : [
                    0.7872158288955688,
                    0.02702913247048855,
                    0.023965099826455116,
                    1
                ],
                "metallicFactor" : 0,
                "roughnessFactor" : 0.800000011920929
            }
        }
    ],
    "meshes" : [
        {
            "name" : "santa_hat",
            "primitives" : [
                {
                    "attributes" : {
                        "POSITION" : 0,
                        "NORMAL" : 1
                    },
                    "indices" : 2,
                    "material" : 0
                },
                {
                    "attributes" : {
                        "POSITION" : 3,
                        "NORMAL" : 4
                    },
                    "indices" : 5,
                    "material" : 1
                }
            ]
        }
    ],
    "accessors" : [
        {
            "bufferView" : 0,
            "componentType" : 5126,
            "count" : 386,
            "max" : [
                1.220306634902954,
                2.664000988006592,
                0.9584848880767822
            ],
            "min" : [
                -1.07403564453125,
                1.410189151763916,
                -1.6830533742904663
            ],
            "type" : "VEC3"
        },
        {
            "bufferView" : 1,
            "componentType" : 5126,
            "count" : 386,
            "type" : "VEC3"
        },
        {
            "bufferView" : 2,
            "componentType" : 5123,
            "count" : 2112,
            "type" : "SCALAR"
        },
        {
            "bufferView" : 3,
            "componentType" : 5126,
            "count" : 416,
            "max" : [
                1.0790103673934937,
                2.9645609855651855,
                0.5220949649810791
            ],
            "min" : [
                -0.8227548599243164,
                1.9820995330810547,
                -1.7116549015045166
            ],
            "type" : "VEC3"
        },
        {
            "bufferView" : 4,
            "componentType" : 5126,
            "count" : 416,
            "type" : "VEC3"
        },
        {
            "bufferView" : 5,
            "componentType" : 5123,
            "count" : 2304,
            "type" : "SCALAR"
        }
    ],
    "bufferViews" : [
        {
            "buffer" : 0,
            "byteLength" : 4632,
            "byteOffset" : 0
        },
        {
            "buffer" : 0,
            "byteLength" : 4632,
            "byteOffset" : 4632
        },
        {
            "buffer" : 0,
            "byteLength" : 4224,
            "byteOffset" : 9264
        },
        {
            "buffer" : 0,
            "byteLength" : 4992,
            "byteOffset" : 13488
        },
        {
            "buffer" : 0,
            "byteLength" : 4992,
            "byteOffset" : 18480
        },
        {
            "buffer" : 0,
            "byteLength" : 4608,
            "byteOffset" : 23472
        }
    ],
    "buffers" : [
        {
            "byteLength" : 28080,
            "uri" : "data:application/octet-stream;base64,"
        }
    ]
}
