{
    "asset" : {
        "generator" : "Khronos glTF Blender I/O v1.3.48",
        "version" : "2.0"
    },
    "scene" : 0,
    "scenes" : [
        {
            "name" : "Scene",
            "nodes" : [
                0
            ]
        }
    ],
    "nodes" : [
        {
            "mesh" : 0,
            "name" : "necklace"
        }
    ],
    "materials" : [
        {
            "doubleSided" : true,
            "name" : "necklace",
            "pbrMetallicRoughness" : {}
        }
    ],
    "meshes" : [
        {
            "name" : "Cube.009",
            "primitives" : [
                {
                    "attributes" : {
                        "POSITION" : 0,
                        "NORMAL" : 1
                    },
                    "indices" : 2,
                    "material" : 0
                }
            ]
        }
    ],
    "accessors" : [
        {
            "bufferView" : 0,
            "componentType" : 5126,
            "count" : 676,
            "max" : [
                0.4656467139720917,
                0.7722591757774353,
                0.5777329802513123
            ],
            "min" : [
                -0.46541520953178406,
                0.4405294358730316,
                -0.33374208211898804
            ],
            "type" : "VEC3"
        },
        {
            "bufferView" : 1,
            "componentType" : 5126,
            "count" : 676,
            "type" : "VEC3"
        },
        {
            "bufferView" : 2,
            "componentType" : 5123,
            "count" : 3744,
            "type" : "SCALAR"
        }
    ],
    "bufferViews" : [
        {
            "buffer" : 0,
            "byteLength" : 8112,
            "byteOffset" : 0
        },
        {
            "buffer" : 0,
            "byteLength" : 8112,
            "byteOffset" : 8112
        },
        {
            "buffer" : 0,
            "byteLength" : 7488,
            "byteOffset" : 16224
        }
    ],
    "buffers" : [
        {
            "byteLength" : 23712,
            "uri" : "data:application/octet-stream;base64,"
        }
    ]
}
