{
    "asset" : {
        "generator" : "Khronos glTF Blender I/O v1.3.48",
        "version" : "2.0"
    },
    "scene" : 0,
    "scenes" : [
        {
            "name" : "Scene",
            "nodes" : [
                0
            ]
        }
    ],
    "nodes" : [
        {
            "mesh" : 0,
            "name" : "cap"
        }
    ],
    "materials" : [
        {
            "doubleSided" : true,
            "emissiveFactor" : [
                0,
                0,
                0
            ],
            "name" : "cap",
            "pbrMetallicRoughness" : {
                "baseColorFactor" : [
                    0.011676064692437649,
                    0.009612437337636948,
                    0.015980485826730728,
                    1
                ],
                "metallicFactor" : 0,
                "roughnessFactor" : 0.800000011920929
            }
        }
    ],
    "meshes" : [
        {
            "name" : "Cube.005",
            "primitives" : [
                {
                    "attributes" : {
                        "POSITION" : 0,
                        "NORMAL" : 1
                    },
                    "indices" : 2,
                    "material" : 0
                }
            ]
        }
    ],
    "accessors" : [
        {
            "bufferView" : 0,
            "componentType" : 5126,
            "count" : 950,
            "max" : [
                1.0775022506713867,
                2.915468215942383,
                1.8498724699020386
            ],
            "min" : [
                -1.0775022506713867,
                1.2853906154632568,
                -1.161813735961914
            ],
            "type" : "VEC3"
        },
        {
            "bufferView" : 1,
            "componentType" : 5126,
            "count" : 950,
            "type" : "VEC3"
        },
        {
            "bufferView" : 2,
            "componentType" : 5123,
            "count" : 4896,
            "type" : "SCALAR"
        }
    ],
    "bufferViews" : [
        {
            "buffer" : 0,
            "byteLength" : 11400,
            "byteOffset" : 0
        },
        {
            "buffer" : 0,
            "byteLength" : 11400,
            "byteOffset" : 11400
        },
        {
            "buffer" : 0,
            "byteLength" : 9792,
            "byteOffset" : 22800
        }
    ],
    "buffers" : [
        {
            "byteLength" : 32592,
            "uri" : "data:application/octet-stream;base64,"
        }
    ]
}
