{
    "asset" : {
        "generator" : "Khronos glTF Blender I/O v1.3.48",
        "version" : "2.0"
    },
    "scene" : 0,
    "scenes" : [
        {
            "name" : "Scene",
            "nodes" : [
                0
            ]
        }
    ],
    "nodes" : [
        {
            "mesh" : 0,
            "name" : "straw_hat"
        }
    ],
    "materials" : [
        {
            "doubleSided" : true,
            "emissiveFactor" : [
                0,
                0,
                0
            ],
            "name" : "straw_hat_2",
            "pbrMetallicRoughness" : {
                "baseColorFactor" : [
                    0.5583405494689941,
                    0.07227184623479843,
                    0.08865559101104736,
                    1
                ],
                "metallicFactor" : 0,
                "roughnessFactor" : 0.800000011920929
            }
        },
        {
            "doubleSided" : true,
            "emissiveFactor" : [
                0,
                0,
                0
            ],
            "name" : "straw_hat",
            "pbrMetallicRoughness" : {
                "baseColorFactor" : [
                    0.5583405494689941,
                    0.3762621283531189,
                    0.3049873113632202,
                    1
                ],
                "metallicFactor" : 0,
                "roughnessFactor" : 0.800000011920929
            }
        }
    ],
    "meshes" : [
        {
            "name" : "Cube.037",
            "primitives" : [
                {
                    "attributes" : {
                        "POSITION" : 0,
                        "NORMAL" : 1
                    },
                    "indices" : 2,
                    "material" : 0
                },
                {
                    "attributes" : {
                        "POSITION" : 3,
                        "NORMAL" : 4
                    },
                    "indices" : 5,
                    "material" : 1
                }
            ]
        }
    ],
    "accessors" : [
        {
            "bufferView" : 0,
            "componentType" : 5126,
            "count" : 224,
            "max" : [
                1.1184000968933105,
                2.3208041191101074,
                1.0521478652954102
            ],
            "min" : [
                -1.1184002161026,
                1.942115068435669,
                -1.2288438081741333
            ],
            "type" : "VEC3"
        },
        {
            "bufferView" : 1,
            "componentType" : 5126,
            "count" : 224,
            "type" : "VEC3"
        },
        {
            "bufferView" : 2,
            "componentType" : 5123,
            "count" : 1152,
            "type" : "SCALAR"
        },
        {
            "bufferView" : 3,
            "componentType" : 5126,
            "count" : 482,
            "max" : [
                1.532533049583435,
                3.003283739089966,
                1.475357174873352
            ],
            "min" : [
                -1.5325329303741455,
                1.8211780786514282,
                -1.6502636671066284
            ],
            "type" : "VEC3"
        },
        {
            "bufferView" : 4,
            "componentType" : 5126,
            "count" : 482,
            "type" : "VEC3"
        },
        {
            "bufferView" : 5,
            "componentType" : 5123,
            "count" : 2688,
            "type" : "SCALAR"
        }
    ],
    "bufferViews" : [
        {
            "buffer" : 0,
            "byteLength" : 2688,
            "byteOffset" : 0
        },
        {
            "buffer" : 0,
            "byteLength" : 2688,
            "byteOffset" : 2688
        },
        {
            "buffer" : 0,
            "byteLength" : 2304,
            "byteOffset" : 5376
        },
        {
            "buffer" : 0,
            "byteLength" : 5784,
            "byteOffset" : 7680
        },
        {
            "buffer" : 0,
            "byteLength" : 5784,
            "byteOffset" : 13464
        },
        {
            "buffer" : 0,
            "byteLength" : 5376,
            "byteOffset" : 19248
        }
    ],
    "buffers" : [
        {
            "byteLength" : 24624,
            "uri" : "data:application/octet-stream;base64,"
        }
    ]
}
