{
    "asset" : {
        "generator" : "Khronos glTF Blender I/O v1.3.48",
        "version" : "2.0"
    },
    "scene" : 0,
    "scenes" : [
        {
            "name" : "Scene",
            "nodes" : [
                0
            ]
        }
    ],
    "nodes" : [
        {
            "mesh" : 0,
            "name" : "bunny_ear"
        }
    ],
    "materials" : [
        {
            "doubleSided" : true,
            "emissiveFactor" : [
                0,
                0,
                0
            ],
            "name" : "bunny_ear_2",
            "pbrMetallicRoughness" : {
                "baseColorFactor" : [
                    0.6499580144882202,
                    0.6499580144882202,
                    0.6499580144882202,
                    1
                ],
                "metallicFactor" : 0,
                "roughnessFactor" : 0.5
            }
        },
        {
            "doubleSided" : true,
            "emissiveFactor" : [
                0,
                0,
                0
            ],
            "name" : "bunny_ear",
            "pbrMetallicRoughness" : {
                "baseColorFactor" : [
                    0.6618229746818542,
                    0.15874700248241425,
                    0.36106300354003906,
                    1
                ],
                "metallicFactor" : 0,
                "roughnessFactor" : 0.5
            }
        }
    ],
    "meshes" : [
        {
            "name" : "Plane.002",
            "primitives" : [
                {
                    "attributes" : {
                        "POSITION" : 0,
                        "NORMAL" : 1
                    },
                    "indices" : 2,
                    "material" : 0
                },
                {
                    "attributes" : {
                        "POSITION" : 3,
                        "NORMAL" : 4
                    },
                    "indices" : 5,
                    "material" : 1
                }
            ]
        }
    ],
    "accessors" : [
        {
            "bufferView" : 0,
            "componentType" : 5126,
            "count" : 712,
            "max" : [
                1.0525728464126587,
                4.369003772735596,
                0.5608766078948975
            ],
            "min" : [
                -1.0525728464126587,
                1.4782193899154663,
                -0.23224833607673645
            ],
            "type" : "VEC3"
        },
        {
            "bufferView" : 1,
            "componentType" : 5126,
            "count" : 712,
            "type" : "VEC3"
        },
        {
            "bufferView" : 2,
            "componentType" : 5123,
            "count" : 3840,
            "type" : "SCALAR"
        },
        {
            "bufferView" : 3,
            "componentType" : 5126,
            "count" : 162,
            "max" : [
                0.9953246116638184,
                4.27761173248291,
                0.2701244354248047
            ],
            "min" : [
                -0.9953246116638184,
                2.8688738346099854,
                -0.08632944524288177
            ],
            "type" : "VEC3"
        },
        {
            "bufferView" : 4,
            "componentType" : 5126,
            "count" : 162,
            "type" : "VEC3"
        },
        {
            "bufferView" : 5,
            "componentType" : 5123,
            "count" : 816,
            "type" : "SCALAR"
        }
    ],
    "bufferViews" : [
        {
            "buffer" : 0,
            "byteLength" : 8544,
            "byteOffset" : 0
        },
        {
            "buffer" : 0,
            "byteLength" : 8544,
            "byteOffset" : 8544
        },
        {
            "buffer" : 0,
            "byteLength" : 7680,
            "byteOffset" : 17088
        },
        {
            "buffer" : 0,
            "byteLength" : 1944,
            "byteOffset" : 24768
        },
        {
            "buffer" : 0,
            "byteLength" : 1944,
            "byteOffset" : 26712
        },
        {
            "buffer" : 0,
            "byteLength" : 1632,
            "byteOffset" : 28656
        }
    ],
    "buffers" : [
        {
            "byteLength" : 30288,
            "uri" : "data:application/octet-stream;base64,"
        }
    ]
}
