{
    "asset" : {
        "generator" : "Khronos glTF Blender I/O v1.3.48",
        "version" : "2.0"
    },
    "scene" : 0,
    "scenes" : [
        {
            "name" : "Scene",
            "nodes" : [
                0
            ]
        }
    ],
    "nodes" : [
        {
            "mesh" : 0,
            "name" : "poop"
        }
    ],
    "materials" : [
        {
            "doubleSided" : true,
            "emissiveFactor" : [
                0,
                0,
                0
            ],
            "name" : "poop",
            "pbrMetallicRoughness" : {
                "baseColorFactor" : [
                    0.226965993642807,
                    0.078186996281147,
                    0.023152999579906464,
                    1
                ],
                "metallicFactor" : 0,
                "roughnessFactor" : 0.5
            }
        }
    ],
    "meshes" : [
        {
            "name" : "poop",
            "primitives" : [
                {
                    "attributes" : {
                        "POSITION" : 0,
                        "NORMAL" : 1
                    },
                    "indices" : 2,
                    "material" : 0
                }
            ]
        }
    ],
    "accessors" : [
        {
            "bufferView" : 0,
            "componentType" : 5126,
            "count" : 2073,
            "max" : [
                0.23709848523139954,
                0.4884272813796997,
                0.23283442854881287
            ],
            "min" : [
                -0.23772011697292328,
                -8.534853986930102e-05,
                -0.2373163104057312
            ],
            "type" : "VEC3"
        },
        {
            "bufferView" : 1,
            "componentType" : 5126,
            "count" : 2073,
            "type" : "VEC3"
        },
        {
            "bufferView" : 2,
            "componentType" : 5123,
            "count" : 12384,
            "type" : "SCALAR"
        }
    ],
    "bufferViews" : [
        {
            "buffer" : 0,
            "byteLength" : 24876,
            "byteOffset" : 0
        },
        {
            "buffer" : 0,
            "byteLength" : 24876,
            "byteOffset" : 24876
        },
        {
            "buffer" : 0,
            "byteLength" : 24768,
            "byteOffset" : 49752
        }
    ],
    "buffers" : [
        {
            "byteLength" : 74520,
            "uri" : "data:application/octet-stream;base64,"
        }
    ]
}
