{
    "asset" : {
        "generator" : "Khronos glTF Blender I/O v1.3.48",
        "version" : "2.0"
    },
    "scene" : 0,
    "scenes" : [
        {
            "name" : "Scene",
            "nodes" : [
                0
            ]
        }
    ],
    "nodes" : [
        {
            "mesh" : 0,
            "name" : "pacifer"
        }
    ],
    "materials" : [
        {
            "doubleSided" : true,
            "emissiveFactor" : [
                0,
                0,
                0
            ],
            "name" : "pacifer_pink",
            "pbrMetallicRoughness" : {
                "baseColorFactor" : [
                    0.8000000715255737,
                    0.498820960521698,
                    0.6866637468338013,
                    1
                ],
                "metallicFactor" : 0,
                "roughnessFactor" : 0.800000011920929
            }
        },
        {
            "doubleSided" : true,
            "emissiveFactor" : [
                0,
                0,
                0
            ],
            "name" : "pacifer_pwhite",
            "pbrMetallicRoughness" : {
                "baseColorFactor" : [
                    1,
                    1,
                    1,
                    1
                ],
                "metallicFactor" : 0,
                "roughnessFactor" : 0.800000011920929
            }
        }
    ],
    "meshes" : [
        {
            "name" : "pacifer",
            "primitives" : [
                {
                    "attributes" : {
                        "POSITION" : 0,
                        "NORMAL" : 1
                    },
                    "indices" : 2,
                    "material" : 0
                },
                {
                    "attributes" : {
                        "POSITION" : 3,
                        "NORMAL" : 4
                    },
                    "indices" : 5,
                    "material" : 1
                }
            ]
        }
    ],
    "accessors" : [
        {
            "bufferView" : 0,
            "componentType" : 5126,
            "count" : 633,
            "max" : [
                0.21254774928092957,
                1.2687335014343262,
                0.9366766810417175
            ],
            "min" : [
                -0.21254774928092957,
                0.9728277921676636,
                0.6689363718032837
            ],
            "type" : "VEC3"
        },
        {
            "bufferView" : 1,
            "componentType" : 5126,
            "count" : 633,
            "type" : "VEC3"
        },
        {
            "bufferView" : 2,
            "componentType" : 5123,
            "count" : 3696,
            "type" : "SCALAR"
        },
        {
            "bufferView" : 3,
            "componentType" : 5126,
            "count" : 105,
            "max" : [
                0.08893118798732758,
                1.207917332649231,
                0.9480339884757996
            ],
            "min" : [
                -0.08893118798732758,
                1.0292890071868896,
                0.7992807626724243
            ],
            "type" : "VEC3"
        },
        {
            "bufferView" : 4,
            "componentType" : 5126,
            "count" : 105,
            "type" : "VEC3"
        },
        {
            "bufferView" : 5,
            "componentType" : 5123,
            "count" : 576,
            "type" : "SCALAR"
        }
    ],
    "bufferViews" : [
        {
            "buffer" : 0,
            "byteLength" : 7596,
            "byteOffset" : 0
        },
        {
            "buffer" : 0,
            "byteLength" : 7596,
            "byteOffset" : 7596
        },
        {
            "buffer" : 0,
            "byteLength" : 7392,
            "byteOffset" : 15192
        },
        {
            "buffer" : 0,
            "byteLength" : 1260,
            "byteOffset" : 22584
        },
        {
            "buffer" : 0,
            "byteLength" : 1260,
            "byteOffset" : 23844
        },
        {
            "buffer" : 0,
            "byteLength" : 1152,
            "byteOffset" : 25104
        }
    ],
    "buffers" : [
        {
            "byteLength" : 26256,
            "uri" : "data:application/octet-stream;base64,"
        }
    ]
}
