{
    "asset" : {
        "generator" : "Khronos glTF Blender I/O v1.3.48",
        "version" : "2.0"
    },
    "scene" : 0,
    "scenes" : [
        {
            "name" : "Scene",
            "nodes" : [
                0
            ]
        }
    ],
    "nodes" : [
        {
            "mesh" : 0,
            "name" : "mouth_vampire_tooth"
        }
    ],
    "materials" : [
        {
            "doubleSided" : true,
            "emissiveFactor" : [
                0,
                0,
                0
            ],
            "name" : "mouth.002",
            "pbrMetallicRoughness" : {
                "baseColorFactor" : [
                    0.021971508860588074,
                    0.021971508860588074,
                    0.021971508860588074,
                    1
                ],
                "metallicFactor" : 0,
                "roughnessFactor" : 0.800000011920929
            }
        },
        {
            "doubleSided" : true,
            "emissiveFactor" : [
                0,
                0,
                0
            ],
            "name" : "teeth.001",
            "pbrMetallicRoughness" : {
                "baseColorFactor" : [
                    0.8274403810501099,
                    0.8274403810501099,
                    0.8274403810501099,
                    1
                ],
                "metallicFactor" : 0,
                "roughnessFactor" : 0.800000011920929
            }
        }
    ],
    "meshes" : [
        {
            "name" : "mouth_vampire_tooth",
            "primitives" : [
                {
                    "attributes" : {
                        "POSITION" : 0,
                        "NORMAL" : 1
                    },
                    "indices" : 2,
                    "material" : 0
                },
                {
                    "attributes" : {
                        "POSITION" : 3,
                        "NORMAL" : 4
                    },
                    "indices" : 5,
                    "material" : 1
                }
            ]
        }
    ],
    "accessors" : [
        {
            "bufferView" : 0,
            "componentType" : 5126,
            "count" : 154,
            "max" : [
                0.22747942805290222,
                1.177443265914917,
                0.8314449787139893
            ],
            "min" : [
                -0.22747942805290222,
                1.128392219543457,
                0.7270229458808899
            ],
            "type" : "VEC3"
        },
        {
            "bufferView" : 1,
            "componentType" : 5126,
            "count" : 154,
            "type" : "VEC3"
        },
        {
            "bufferView" : 2,
            "componentType" : 5123,
            "count" : 912,
            "type" : "SCALAR"
        },
        {
            "bufferView" : 3,
            "componentType" : 5126,
            "count" : 70,
            "max" : [
                0.18206040561199188,
                1.1687899827957153,
                0.8260627388954163
            ],
            "min" : [
                -0.18206040561199188,
                0.998489499092102,
                0.7672284245491028
            ],
            "type" : "VEC3"
        },
        {
            "bufferView" : 4,
            "componentType" : 5126,
            "count" : 70,
            "type" : "VEC3"
        },
        {
            "bufferView" : 5,
            "componentType" : 5123,
            "count" : 372,
            "type" : "SCALAR"
        }
    ],
    "bufferViews" : [
        {
            "buffer" : 0,
            "byteLength" : 1848,
            "byteOffset" : 0
        },
        {
            "buffer" : 0,
            "byteLength" : 1848,
            "byteOffset" : 1848
        },
        {
            "buffer" : 0,
            "byteLength" : 1824,
            "byteOffset" : 3696
        },
        {
            "buffer" : 0,
            "byteLength" : 840,
            "byteOffset" : 5520
        },
        {
            "buffer" : 0,
            "byteLength" : 840,
            "byteOffset" : 6360
        },
        {
            "buffer" : 0,
            "byteLength" : 744,
            "byteOffset" : 7200
        }
    ],
    "buffers" : [
        {
            "byteLength" : 7944,
            "uri" : "data:application/octet-stream;base64,"
        }
    ]
}
