{
    "asset" : {
        "generator" : "Khronos glTF Blender I/O v1.3.48",
        "version" : "2.0"
    },
    "scene" : 0,
    "scenes" : [
        {
            "name" : "Scene",
            "nodes" : [
                0
            ]
        }
    ],
    "nodes" : [
        {
            "mesh" : 0,
            "name" : "mouth_tongue_out"
        }
    ],
    "materials" : [
        {
            "doubleSided" : true,
            "emissiveFactor" : [
                0,
                0,
                0
            ],
            "name" : "mouth.002",
            "pbrMetallicRoughness" : {
                "baseColorFactor" : [
                    0.021971508860588074,
                    0.021971508860588074,
                    0.021971508860588074,
                    1
                ],
                "metallicFactor" : 0,
                "roughnessFactor" : 0.800000011920929
            }
        },
        {
            "doubleSided" : true,
            "emissiveFactor" : [
                0,
                0,
                0
            ],
            "name" : "tongue.001",
            "pbrMetallicRoughness" : {
                "baseColorFactor" : [
                    0.3930397033691406,
                    0.06025620177388191,
                    0.056609537452459335,
                    1
                ],
                "metallicFactor" : 0,
                "roughnessFactor" : 0.800000011920929
            }
        }
    ],
    "meshes" : [
        {
            "name" : "mouth_tongue_out",
            "primitives" : [
                {
                    "attributes" : {
                        "POSITION" : 0,
                        "NORMAL" : 1
                    },
                    "indices" : 2,
                    "material" : 0
                },
                {
                    "attributes" : {
                        "POSITION" : 3,
                        "NORMAL" : 4
                    },
                    "indices" : 5,
                    "material" : 1
                }
            ]
        }
    ],
    "accessors" : [
        {
            "bufferView" : 0,
            "componentType" : 5126,
            "count" : 154,
            "max" : [
                0.15806764364242554,
                1.177443265914917,
                0.8314449787139893
            ],
            "min" : [
                -0.15806764364242554,
                1.128392219543457,
                0.7270229458808899
            ],
            "type" : "VEC3"
        },
        {
            "bufferView" : 1,
            "componentType" : 5126,
            "count" : 154,
            "type" : "VEC3"
        },
        {
            "bufferView" : 2,
            "componentType" : 5123,
            "count" : 912,
            "type" : "SCALAR"
        },
        {
            "bufferView" : 3,
            "componentType" : 5126,
            "count" : 145,
            "max" : [
                0.09737465530633926,
                1.161808967590332,
                0.9285702705383301
            ],
            "min" : [
                -0.09737465530633926,
                0.9428470134735107,
                0.7918983697891235
            ],
            "type" : "VEC3"
        },
        {
            "bufferView" : 4,
            "componentType" : 5126,
            "count" : 145,
            "type" : "VEC3"
        },
        {
            "bufferView" : 5,
            "componentType" : 5123,
            "count" : 804,
            "type" : "SCALAR"
        }
    ],
    "bufferViews" : [
        {
            "buffer" : 0,
            "byteLength" : 1848,
            "byteOffset" : 0
        },
        {
            "buffer" : 0,
            "byteLength" : 1848,
            "byteOffset" : 1848
        },
        {
            "buffer" : 0,
            "byteLength" : 1824,
            "byteOffset" : 3696
        },
        {
            "buffer" : 0,
            "byteLength" : 1740,
            "byteOffset" : 5520
        },
        {
            "buffer" : 0,
            "byteLength" : 1740,
            "byteOffset" : 7260
        },
        {
            "buffer" : 0,
            "byteLength" : 1608,
            "byteOffset" : 9000
        }
    ],
    "buffers" : [
        {
            "byteLength" : 10608,
            "uri" : "data:application/octet-stream;base64,"
        }
    ]
}
