{
    "asset" : {
        "generator" : "Khronos glTF Blender I/O v1.3.48",
        "version" : "2.0"
    },
    "scene" : 0,
    "scenes" : [
        {
            "name" : "Scene",
            "nodes" : [
                0
            ]
        }
    ],
    "nodes" : [
        {
            "mesh" : 0,
            "name" : "hair_person9"
        }
    ],
    "materials" : [
        {
            "doubleSided" : true,
            "emissiveFactor" : [
                0,
                0,
                0
            ],
            "name" : "hair_pink",
            "pbrMetallicRoughness" : {
                "baseColorFactor" : [
                    0.5593076944351196,
                    0.20909766852855682,
                    0.4140525162220001,
                    1
                ],
                "metallicFactor" : 0,
                "roughnessFactor" : 0.5
            }
        }
    ],
    "meshes" : [
        {
            "name" : "CUhair_person9",
            "primitives" : [
                {
                    "attributes" : {
                        "POSITION" : 0,
                        "NORMAL" : 1
                    },
                    "indices" : 2,
                    "material" : 0
                }
            ]
        }
    ],
    "accessors" : [
        {
            "bufferView" : 0,
            "componentType" : 5126,
            "count" : 8734,
            "max" : [
                2.8837032318115234,
                5.133530616760254,
                0.7028533220291138
            ],
            "min" : [
                -2.8837032318115234,
                0.3165304362773895,
                -2.133397102355957
            ],
            "type" : "VEC3"
        },
        {
            "bufferView" : 1,
            "componentType" : 5126,
            "count" : 8734,
            "type" : "VEC3"
        },
        {
            "bufferView" : 2,
            "componentType" : 5123,
            "count" : 40512,
            "type" : "SCALAR"
        }
    ],
    "bufferViews" : [
        {
            "buffer" : 0,
            "byteLength" : 104808,
            "byteOffset" : 0
        },
        {
            "buffer" : 0,
            "byteLength" : 104808,
            "byteOffset" : 104808
        },
        {
            "buffer" : 0,
            "byteLength" : 81024,
            "byteOffset" : 209616
        }
    ],
    "buffers" : [
        {
            "byteLength" : 290640,
            "uri" : "data:application/octet-stream;base64,"
        }
    ]
}
