{
    "asset" : {
        "generator" : "Khronos glTF Blender I/O v1.3.48",
        "version" : "2.0"
    },
    "scene" : 0,
    "scenes" : [
        {
            "name" : "Scene",
            "nodes" : [
                0
            ]
        }
    ],
    "nodes" : [
        {
            "mesh" : 0,
            "name" : "hair_long_curl"
        }
    ],
    "materials" : [
        {
            "doubleSided" : true,
            "emissiveFactor" : [
                0,
                0,
                0
            ],
            "name" : "hair_black",
            "pbrMetallicRoughness" : {
                "baseColorFactor" : [
                    0.02720111608505249,
                    0.022669028490781784,
                    0.01982937753200531,
                    1
                ],
                "metallicFactor" : 0,
                "roughnessFactor" : 0.5
            }
        }
    ],
    "meshes" : [
        {
            "name" : "Cube.014",
            "primitives" : [
                {
                    "attributes" : {
                        "POSITION" : 0,
                        "NORMAL" : 1
                    },
                    "indices" : 2,
                    "material" : 0
                }
            ]
        }
    ],
    "accessors" : [
        {
            "bufferView" : 0,
            "componentType" : 5126,
            "count" : 897,
            "max" : [
                1.1930038928985596,
                2.8870582580566406,
                0.8153366446495056
            ],
            "min" : [
                -1.1930038928985596,
                0.4722369313240051,
                -1.271905541419983
            ],
            "type" : "VEC3"
        },
        {
            "bufferView" : 1,
            "componentType" : 5126,
            "count" : 897,
            "type" : "VEC3"
        },
        {
            "bufferView" : 2,
            "componentType" : 5123,
            "count" : 4440,
            "type" : "SCALAR"
        }
    ],
    "bufferViews" : [
        {
            "buffer" : 0,
            "byteLength" : 10764,
            "byteOffset" : 0
        },
        {
            "buffer" : 0,
            "byteLength" : 10764,
            "byteOffset" : 10764
        },
        {
            "buffer" : 0,
            "byteLength" : 8880,
            "byteOffset" : 21528
        }
    ],
    "buffers" : [
        {
            "byteLength" : 30408,
            "uri" : "data:application/octet-stream;base64,"
        }
    ]
}
