{
    "asset" : {
        "generator" : "Khronos glTF Blender I/O v1.3.48",
        "version" : "2.0"
    },
    "scene" : 0,
    "scenes" : [
        {
            "name" : "Scene",
            "nodes" : [
                0
            ]
        }
    ],
    "nodes" : [
        {
            "mesh" : 0,
            "name" : "person_hair"
        }
    ],
    "materials" : [
        {
            "doubleSided" : true,
            "emissiveFactor" : [
                0,
                0,
                0
            ],
            "name" : "hair_grey_2",
            "pbrMetallicRoughness" : {
                "baseColorFactor" : [
                    0.049523282796144485,
                    0.04074479267001152,
                    0.03528247028589249,
                    1
                ],
                "metallicFactor" : 0,
                "roughnessFactor" : 0.5
            }
        },
        {
            "doubleSided" : true,
            "emissiveFactor" : [
                0,
                0,
                0
            ],
            "name" : "hair_white_2",
            "pbrMetallicRoughness" : {
                "baseColorFactor" : [
                    0.3930343985557556,
                    0.31685003638267517,
                    0.37308868765830994,
                    1
                ],
                "metallicFactor" : 0,
                "roughnessFactor" : 0.5
            }
        }
    ],
    "meshes" : [
        {
            "name" : "person_hair",
            "primitives" : [
                {
                    "attributes" : {
                        "POSITION" : 0,
                        "NORMAL" : 1
                    },
                    "indices" : 2,
                    "material" : 0
                },
                {
                    "attributes" : {
                        "POSITION" : 3,
                        "NORMAL" : 4
                    },
                    "indices" : 5,
                    "material" : 1
                }
            ]
        }
    ],
    "accessors" : [
        {
            "bufferView" : 0,
            "componentType" : 5126,
            "count" : 432,
            "max" : [
                0.9334996342658997,
                2.875142812728882,
                0.9321545362472534
            ],
            "min" : [
                -0.8608954548835754,
                2.1479907035827637,
                -1.0513278245925903
            ],
            "type" : "VEC3"
        },
        {
            "bufferView" : 1,
            "componentType" : 5126,
            "count" : 432,
            "type" : "VEC3"
        },
        {
            "bufferView" : 2,
            "componentType" : 5123,
            "count" : 2148,
            "type" : "SCALAR"
        },
        {
            "bufferView" : 3,
            "componentType" : 5126,
            "count" : 210,
            "max" : [
                0.9591239094734192,
                2.392427682876587,
                0.8518262505531311
            ],
            "min" : [
                -0.859745979309082,
                1.6360459327697754,
                -1.1028896570205688
            ],
            "type" : "VEC3"
        },
        {
            "bufferView" : 4,
            "componentType" : 5126,
            "count" : 210,
            "type" : "VEC3"
        },
        {
            "bufferView" : 5,
            "componentType" : 5123,
            "count" : 780,
            "type" : "SCALAR"
        }
    ],
    "bufferViews" : [
        {
            "buffer" : 0,
            "byteLength" : 5184,
            "byteOffset" : 0
        },
        {
            "buffer" : 0,
            "byteLength" : 5184,
            "byteOffset" : 5184
        },
        {
            "buffer" : 0,
            "byteLength" : 4296,
            "byteOffset" : 10368
        },
        {
            "buffer" : 0,
            "byteLength" : 2520,
            "byteOffset" : 14664
        },
        {
            "buffer" : 0,
            "byteLength" : 2520,
            "byteOffset" : 17184
        },
        {
            "buffer" : 0,
            "byteLength" : 1560,
            "byteOffset" : 19704
        }
    ],
    "buffers" : [
        {
            "byteLength" : 21264,
            "uri" : "data:application/octet-stream;base64,"
        }
    ]
}
