{
    "asset" : {
        "generator" : "Khronos glTF Blender I/O v1.3.48",
        "version" : "2.0"
    },
    "scene" : 0,
    "scenes" : [
        {
            "name" : "Scene",
            "nodes" : [
                0
            ]
        }
    ],
    "nodes" : [
        {
            "mesh" : 0,
            "name" : "short_curly_no_side"
        }
    ],
    "materials" : [
        {
            "doubleSided" : true,
            "emissiveFactor" : [
                0,
                0,
                0
            ],
            "name" : "hair_black.001",
            "pbrMetallicRoughness" : {
                "baseColorFactor" : [
                    0.02720111608505249,
                    0.022669028490781784,
                    0.01982937753200531,
                    1
                ],
                "metallicFactor" : 0,
                "roughnessFactor" : 0.5
            }
        },
        {
            "doubleSided" : true,
            "emissiveFactor" : [
                0,
                0,
                0
            ],
            "name" : "hair_grey_4",
            "pbrMetallicRoughness" : {
                "baseColorFactor" : [
                    0.0549362413585186,
                    0.0549362413585186,
                    0.0549362413585186,
                    1
                ],
                "metallicFactor" : 0,
                "roughnessFactor" : 0.5
            }
        },
        {
            "doubleSided" : true,
            "emissiveFactor" : [
                0,
                0,
                0
            ],
            "name" : "hair_grey_3",
            "pbrMetallicRoughness" : {
                "baseColorFactor" : [
                    0.4868057370185852,
                    0.3012024164199829,
                    0.2258308380842209,
                    1
                ],
                "metallicFactor" : 0,
                "roughnessFactor" : 0.5
            }
        }
    ],
    "meshes" : [
        {
            "name" : "short_curly_no_side",
            "primitives" : [
                {
                    "attributes" : {
                        "POSITION" : 0,
                        "NORMAL" : 1
                    },
                    "indices" : 2,
                    "material" : 0
                },
                {
                    "attributes" : {
                        "POSITION" : 3,
                        "NORMAL" : 4
                    },
                    "indices" : 5,
                    "material" : 1
                },
                {
                    "attributes" : {
                        "POSITION" : 6,
                        "NORMAL" : 7
                    },
                    "indices" : 8,
                    "material" : 2
                }
            ]
        }
    ],
    "accessors" : [
        {
            "bufferView" : 0,
            "componentType" : 5126,
            "count" : 452,
            "max" : [
                0.9407169222831726,
                2.9594781398773193,
                0.875717282295227
            ],
            "min" : [
                -0.9407169222831726,
                2.2390077114105225,
                -1.0606341361999512
            ],
            "type" : "VEC3"
        },
        {
            "bufferView" : 1,
            "componentType" : 5126,
            "count" : 452,
            "type" : "VEC3"
        },
        {
            "bufferView" : 2,
            "componentType" : 5123,
            "count" : 2124,
            "type" : "SCALAR"
        },
        {
            "bufferView" : 3,
            "componentType" : 5126,
            "count" : 92,
            "max" : [
                0.9435444474220276,
                2.295663356781006,
                0.3384202718734741
            ],
            "min" : [
                -0.9435444474220276,
                2.131304979324341,
                -1.0798612833023071
            ],
            "type" : "VEC3"
        },
        {
            "bufferView" : 4,
            "componentType" : 5126,
            "count" : 92,
            "type" : "VEC3"
        },
        {
            "bufferView" : 5,
            "componentType" : 5123,
            "count" : 252,
            "type" : "SCALAR"
        },
        {
            "bufferView" : 6,
            "componentType" : 5126,
            "count" : 134,
            "max" : [
                0.9734412431716919,
                2.195023775100708,
                0.33780860900878906
            ],
            "min" : [
                -0.9734412431716919,
                1.9803990125656128,
                -1.0833966732025146
            ],
            "type" : "VEC3"
        },
        {
            "bufferView" : 7,
            "componentType" : 5126,
            "count" : 134,
            "type" : "VEC3"
        },
        {
            "bufferView" : 8,
            "componentType" : 5123,
            "count" : 372,
            "type" : "SCALAR"
        }
    ],
    "bufferViews" : [
        {
            "buffer" : 0,
            "byteLength" : 5424,
            "byteOffset" : 0
        },
        {
            "buffer" : 0,
            "byteLength" : 5424,
            "byteOffset" : 5424
        },
        {
            "buffer" : 0,
            "byteLength" : 4248,
            "byteOffset" : 10848
        },
        {
            "buffer" : 0,
            "byteLength" : 1104,
            "byteOffset" : 15096
        },
        {
            "buffer" : 0,
            "byteLength" : 1104,
            "byteOffset" : 16200
        },
        {
            "buffer" : 0,
            "byteLength" : 504,
            "byteOffset" : 17304
        },
        {
            "buffer" : 0,
            "byteLength" : 1608,
            "byteOffset" : 17808
        },
        {
            "buffer" : 0,
            "byteLength" : 1608,
            "byteOffset" : 19416
        },
        {
            "buffer" : 0,
            "byteLength" : 744,
            "byteOffset" : 21024
        }
    ],
    "buffers" : [
        {
            "byteLength" : 21768,
            "uri" : "data:application/octet-stream;base64,"
        }
    ]
}
