{
    "asset" : {
        "generator" : "Khronos glTF Blender I/O v1.3.48",
        "version" : "2.0"
    },
    "scene" : 0,
    "scenes" : [
        {
            "name" : "Scene",
            "nodes" : [
                0
            ]
        }
    ],
    "nodes" : [
        {
            "mesh" : 0,
            "name" : "hair_long"
        }
    ],
    "materials" : [
        {
            "doubleSided" : true,
            "emissiveFactor" : [
                0,
                0,
                0
            ],
            "name" : "hair_white",
            "pbrMetallicRoughness" : {
                "baseColorFactor" : [
                    0.827494204044342,
                    0.6596987843513489,
                    0.5570228099822998,
                    1
                ],
                "metallicFactor" : 0,
                "roughnessFactor" : 0.5
            }
        }
    ],
    "meshes" : [
        {
            "name" : "Cube.006",
            "primitives" : [
                {
                    "attributes" : {
                        "POSITION" : 0,
                        "NORMAL" : 1
                    },
                    "indices" : 2,
                    "material" : 0
                }
            ]
        }
    ],
    "accessors" : [
        {
            "bufferView" : 0,
            "componentType" : 5126,
            "count" : 1102,
            "max" : [
                1.0007771253585815,
                2.832097053527832,
                0.8094345331192017
            ],
            "min" : [
                -1.000777244567871,
                0.45310714840888977,
                -1.1007559299468994
            ],
            "type" : "VEC3"
        },
        {
            "bufferView" : 1,
            "componentType" : 5126,
            "count" : 1102,
            "type" : "VEC3"
        },
        {
            "bufferView" : 2,
            "componentType" : 5123,
            "count" : 5832,
            "type" : "SCALAR"
        }
    ],
    "bufferViews" : [
        {
            "buffer" : 0,
            "byteLength" : 13224,
            "byteOffset" : 0
        },
        {
            "buffer" : 0,
            "byteLength" : 13224,
            "byteOffset" : 13224
        },
        {
            "buffer" : 0,
            "byteLength" : 11664,
            "byteOffset" : 26448
        }
    ],
    "buffers" : [
        {
            "byteLength" : 38112,
            "uri" : "data:application/octet-stream;base64,"
        }
    ]
}
