{
    "asset" : {
        "generator" : "Khronos glTF Blender I/O v1.3.48",
        "version" : "2.0"
    },
    "scene" : 0,
    "scenes" : [
        {
            "name" : "Scene",
            "nodes" : [
                0
            ]
        }
    ],
    "nodes" : [
        {
            "mesh" : 0,
            "name" : "ringlet"
        }
    ],
    "materials" : [
        {
            "doubleSided" : true,
            "emissiveFactor" : [
                0,
                0,
                0
            ],
            "name" : "hair_grey.001",
            "pbrMetallicRoughness" : {
                "baseColorFactor" : [
                    0.3107753098011017,
                    0.24953511357307434,
                    0.21191832423210144,
                    1
                ],
                "metallicFactor" : 0,
                "roughnessFactor" : 0.5
            }
        },
        {
            "doubleSided" : true,
            "emissiveFactor" : [
                0,
                0,
                0
            ],
            "name" : "hair_brown.001",
            "pbrMetallicRoughness" : {
                "baseColorFactor" : [
                    0.1844407320022583,
                    0.07721585780382156,
                    0.05240773409605026,
                    1
                ],
                "metallicFactor" : 0,
                "roughnessFactor" : 0.5
            }
        }
    ],
    "meshes" : [
        {
            "name" : "ringlet",
            "primitives" : [
                {
                    "attributes" : {
                        "POSITION" : 0,
                        "NORMAL" : 1
                    },
                    "indices" : 2,
                    "material" : 0
                },
                {
                    "attributes" : {
                        "POSITION" : 3,
                        "NORMAL" : 4
                    },
                    "indices" : 5,
                    "material" : 1
                }
            ]
        }
    ],
    "accessors" : [
        {
            "bufferView" : 0,
            "componentType" : 5126,
            "count" : 730,
            "max" : [
                1.0348148345947266,
                2.8391153812408447,
                0.740333080291748
            ],
            "min" : [
                -1.0348148345947266,
                1.0567340850830078,
                -1.1281554698944092
            ],
            "type" : "VEC3"
        },
        {
            "bufferView" : 1,
            "componentType" : 5126,
            "count" : 730,
            "type" : "VEC3"
        },
        {
            "bufferView" : 2,
            "componentType" : 5123,
            "count" : 4368,
            "type" : "SCALAR"
        },
        {
            "bufferView" : 3,
            "componentType" : 5126,
            "count" : 4768,
            "max" : [
                1.3121461868286133,
                2.9680514335632324,
                0.43555495142936707
            ],
            "min" : [
                -1.3121461868286133,
                0.4614447355270386,
                -1.3664326667785645
            ],
            "type" : "VEC3"
        },
        {
            "bufferView" : 4,
            "componentType" : 5126,
            "count" : 4768,
            "type" : "VEC3"
        },
        {
            "bufferView" : 5,
            "componentType" : 5123,
            "count" : 28416,
            "type" : "SCALAR"
        }
    ],
    "bufferViews" : [
        {
            "buffer" : 0,
            "byteLength" : 8760,
            "byteOffset" : 0
        },
        {
            "buffer" : 0,
            "byteLength" : 8760,
            "byteOffset" : 8760
        },
        {
            "buffer" : 0,
            "byteLength" : 8736,
            "byteOffset" : 17520
        },
        {
            "buffer" : 0,
            "byteLength" : 57216,
            "byteOffset" : 26256
        },
        {
            "buffer" : 0,
            "byteLength" : 57216,
            "byteOffset" : 83472
        },
        {
            "buffer" : 0,
            "byteLength" : 56832,
            "byteOffset" : 140688
        }
    ],
    "buffers" : [
        {
            "byteLength" : 197520,
            "uri" : "data:application/octet-stream;base64,"
        }
    ]
}
