{
    "asset" : {
        "generator" : "Khronos glTF Blender I/O v1.3.48",
        "version" : "2.0"
    },
    "scene" : 0,
    "scenes" : [
        {
            "name" : "Scene",
            "nodes" : [
                0
            ]
        }
    ],
    "nodes" : [
        {
            "mesh" : 0,
            "name" : "chonmage"
        }
    ],
    "materials" : [
        {
            "doubleSided" : true,
            "emissiveFactor" : [
                0,
                0,
                0
            ],
            "name" : "hair_black.001",
            "pbrMetallicRoughness" : {
                "baseColorFactor" : [
                    0.02720111608505249,
                    0.022669028490781784,
                    0.01982937753200531,
                    1
                ],
                "metallicFactor" : 0,
                "roughnessFactor" : 0.5
            }
        },
        {
            "doubleSided" : true,
            "emissiveFactor" : [
                0,
                0,
                0
            ],
            "name" : "ribbon",
            "pbrMetallicRoughness" : {
                "baseColorFactor" : [
                    1,
                    1,
                    1,
                    1
                ],
                "metallicFactor" : 0,
                "roughnessFactor" : 0.5
            }
        }
    ],
    "meshes" : [
        {
            "name" : "chonmage",
            "primitives" : [
                {
                    "attributes" : {
                        "POSITION" : 0,
                        "NORMAL" : 1
                    },
                    "indices" : 2,
                    "material" : 0
                },
                {
                    "attributes" : {
                        "POSITION" : 3,
                        "NORMAL" : 4
                    },
                    "indices" : 5,
                    "material" : 1
                }
            ]
        }
    ],
    "accessors" : [
        {
            "bufferView" : 0,
            "componentType" : 5126,
            "count" : 1300,
            "max" : [
                1.0113986730575562,
                2.9772703647613525,
                0.35700440406799316
            ],
            "min" : [
                -1.0113987922668457,
                0.9801546335220337,
                -1.3748762607574463
            ],
            "type" : "VEC3"
        },
        {
            "bufferView" : 1,
            "componentType" : 5126,
            "count" : 1300,
            "type" : "VEC3"
        },
        {
            "bufferView" : 2,
            "componentType" : 5123,
            "count" : 7248,
            "type" : "SCALAR"
        },
        {
            "bufferView" : 3,
            "componentType" : 5126,
            "count" : 900,
            "max" : [
                0.25379765033721924,
                2.8228726387023926,
                -0.8298196196556091
            ],
            "min" : [
                -0.2535918354988098,
                2.421113967895508,
                -1.1133074760437012
            ],
            "type" : "VEC3"
        },
        {
            "bufferView" : 4,
            "componentType" : 5126,
            "count" : 900,
            "type" : "VEC3"
        },
        {
            "bufferView" : 5,
            "componentType" : 5123,
            "count" : 5376,
            "type" : "SCALAR"
        }
    ],
    "bufferViews" : [
        {
            "buffer" : 0,
            "byteLength" : 15600,
            "byteOffset" : 0
        },
        {
            "buffer" : 0,
            "byteLength" : 15600,
            "byteOffset" : 15600
        },
        {
            "buffer" : 0,
            "byteLength" : 14496,
            "byteOffset" : 31200
        },
        {
            "buffer" : 0,
            "byteLength" : 10800,
            "byteOffset" : 45696
        },
        {
            "buffer" : 0,
            "byteLength" : 10800,
            "byteOffset" : 56496
        },
        {
            "buffer" : 0,
            "byteLength" : 10752,
            "byteOffset" : 67296
        }
    ],
    "buffers" : [
        {
            "byteLength" : 78048,
            "uri" : "data:application/octet-stream;base64,"
        }
    ]
}
