{
    "asset" : {
        "generator" : "Khronos glTF Blender I/O v1.3.48",
        "version" : "2.0"
    },
    "scene" : 0,
    "scenes" : [
        {
            "name" : "Scene",
            "nodes" : [
                0
            ]
        }
    ],
    "nodes" : [
        {
            "mesh" : 0,
            "name" : "hair_person_2"
        }
    ],
    "materials" : [
        {
            "doubleSided" : true,
            "emissiveFactor" : [
                0,
                0,
                0
            ],
            "name" : "hair_brown",
            "pbrMetallicRoughness" : {
                "baseColorFactor" : [
                    0.1844407320022583,
                    0.07721585780382156,
                    0.05240773409605026,
                    1
                ],
                "metallicFactor" : 0,
                "roughnessFactor" : 0.5
            }
        }
    ],
    "meshes" : [
        {
            "name" : "hair_person_2",
            "primitives" : [
                {
                    "attributes" : {
                        "POSITION" : 0,
                        "NORMAL" : 1
                    },
                    "indices" : 2,
                    "material" : 0
                }
            ]
        }
    ],
    "accessors" : [
        {
            "bufferView" : 0,
            "componentType" : 5126,
            "count" : 922,
            "max" : [
                1.0253872871398926,
                2.8648343086242676,
                0.9948869347572327
            ],
            "min" : [
                -1.0253872871398926,
                0.9613770842552185,
                -1.100756049156189
            ],
            "type" : "VEC3"
        },
        {
            "bufferView" : 1,
            "componentType" : 5126,
            "count" : 922,
            "type" : "VEC3"
        },
        {
            "bufferView" : 2,
            "componentType" : 5123,
            "count" : 4512,
            "type" : "SCALAR"
        }
    ],
    "bufferViews" : [
        {
            "buffer" : 0,
            "byteLength" : 11064,
            "byteOffset" : 0
        },
        {
            "buffer" : 0,
            "byteLength" : 11064,
            "byteOffset" : 11064
        },
        {
            "buffer" : 0,
            "byteLength" : 9024,
            "byteOffset" : 22128
        }
    ],
    "buffers" : [
        {
            "byteLength" : 31152,
            "uri" : "data:application/octet-stream;base64,"
        }
    ]
}
