{
    "asset" : {
        "generator" : "Khronos glTF Blender I/O v1.3.48",
        "version" : "2.0"
    },
    "scene" : 0,
    "scenes" : [
        {
            "name" : "Scene",
            "nodes" : [
                0
            ]
        }
    ],
    "nodes" : [
        {
            "mesh" : 0,
            "name" : "pigtails"
        }
    ],
    "materials" : [
        {
            "doubleSided" : true,
            "emissiveFactor" : [
                0,
                0,
                0
            ],
            "name" : "hair_black.002",
            "pbrMetallicRoughness" : {
                "baseColorFactor" : [
                    0.02720111608505249,
                    0.022669028490781784,
                    0.01982937753200531,
                    1
                ],
                "metallicFactor" : 0,
                "roughnessFactor" : 0.5
            }
        }
    ],
    "meshes" : [
        {
            "name" : "pigtails",
            "primitives" : [
                {
                    "attributes" : {
                        "POSITION" : 0,
                        "NORMAL" : 1
                    },
                    "indices" : 2,
                    "material" : 0
                }
            ]
        }
    ],
    "accessors" : [
        {
            "bufferView" : 0,
            "componentType" : 5126,
            "count" : 1418,
            "max" : [
                1.2239130735397339,
                2.8400495052337646,
                0.7619190216064453
            ],
            "min" : [
                -1.2239131927490234,
                0.1416371762752533,
                -1.2375071048736572
            ],
            "type" : "VEC3"
        },
        {
            "bufferView" : 1,
            "componentType" : 5126,
            "count" : 1418,
            "type" : "VEC3"
        },
        {
            "bufferView" : 2,
            "componentType" : 5123,
            "count" : 7728,
            "type" : "SCALAR"
        }
    ],
    "bufferViews" : [
        {
            "buffer" : 0,
            "byteLength" : 17016,
            "byteOffset" : 0
        },
        {
            "buffer" : 0,
            "byteLength" : 17016,
            "byteOffset" : 17016
        },
        {
            "buffer" : 0,
            "byteLength" : 15456,
            "byteOffset" : 34032
        }
    ],
    "buffers" : [
        {
            "byteLength" : 49488,
            "uri" : "data:application/octet-stream;base64,"
        }
    ]
}
