{
    "asset" : {
        "generator" : "Khronos glTF Blender I/O v1.3.48",
        "version" : "2.0"
    },
    "scene" : 0,
    "scenes" : [
        {
            "name" : "Scene",
            "nodes" : [
                0
            ]
        }
    ],
    "nodes" : [
        {
            "mesh" : 0,
            "name" : "hair_short"
        }
    ],
    "materials" : [
        {
            "doubleSided" : true,
            "emissiveFactor" : [
                0,
                0,
                0
            ],
            "name" : "hair_black",
            "pbrMetallicRoughness" : {
                "baseColorFactor" : [
                    0.02720111608505249,
                    0.022669028490781784,
                    0.01982937753200531,
                    1
                ],
                "metallicFactor" : 0,
                "roughnessFactor" : 0.5
            }
        }
    ],
    "meshes" : [
        {
            "name" : "Cube.016",
            "primitives" : [
                {
                    "attributes" : {
                        "POSITION" : 0,
                        "NORMAL" : 1
                    },
                    "indices" : 2,
                    "material" : 0
                }
            ]
        }
    ],
    "accessors" : [
        {
            "bufferView" : 0,
            "componentType" : 5126,
            "count" : 858,
            "max" : [
                1.0072962045669556,
                2.8087377548217773,
                0.9414584636688232
            ],
            "min" : [
                -1.0072962045669556,
                0.9613771438598633,
                -1.1007559299468994
            ],
            "type" : "VEC3"
        },
        {
            "bufferView" : 1,
            "componentType" : 5126,
            "count" : 858,
            "type" : "VEC3"
        },
        {
            "bufferView" : 2,
            "componentType" : 5123,
            "count" : 4200,
            "type" : "SCALAR"
        }
    ],
    "bufferViews" : [
        {
            "buffer" : 0,
            "byteLength" : 10296,
            "byteOffset" : 0
        },
        {
            "buffer" : 0,
            "byteLength" : 10296,
            "byteOffset" : 10296
        },
        {
            "buffer" : 0,
            "byteLength" : 8400,
            "byteOffset" : 20592
        }
    ],
    "buffers" : [
        {
            "byteLength" : 28992,
            "uri" : "data:application/octet-stream;base64,"
        }
    ]
}
