{
    "asset" : {
        "generator" : "Khronos glTF Blender I/O v1.3.48",
        "version" : "2.0"
    },
    "scene" : 0,
    "scenes" : [
        {
            "name" : "Scene",
            "nodes" : [
                0
            ]
        }
    ],
    "nodes" : [
        {
            "mesh" : 0,
            "name" : "hair_mohawk"
        }
    ],
    "materials" : [
        {
            "doubleSided" : true,
            "emissiveFactor" : [
                0,
                0,
                0
            ],
            "name" : "hair_purple",
            "pbrMetallicRoughness" : {
                "baseColorFactor" : [
                    0.18116427958011627,
                    0.03189603611826897,
                    0.18447501957416534,
                    1
                ],
                "metallicFactor" : 0,
                "roughnessFactor" : 0.5
            }
        }
    ],
    "meshes" : [
        {
            "name" : "Cube.018",
            "primitives" : [
                {
                    "attributes" : {
                        "POSITION" : 0,
                        "NORMAL" : 1
                    },
                    "indices" : 2,
                    "material" : 0
                }
            ]
        }
    ],
    "accessors" : [
        {
            "bufferView" : 0,
            "componentType" : 5126,
            "count" : 405,
            "max" : [
                0.2584145963191986,
                3.087247133255005,
                1.0232794284820557
            ],
            "min" : [
                -0.2584145963191986,
                0.6842842102050781,
                -1.4008045196533203
            ],
            "type" : "VEC3"
        },
        {
            "bufferView" : 1,
            "componentType" : 5126,
            "count" : 405,
            "type" : "VEC3"
        },
        {
            "bufferView" : 2,
            "componentType" : 5123,
            "count" : 1488,
            "type" : "SCALAR"
        }
    ],
    "bufferViews" : [
        {
            "buffer" : 0,
            "byteLength" : 4860,
            "byteOffset" : 0
        },
        {
            "buffer" : 0,
            "byteLength" : 4860,
            "byteOffset" : 4860
        },
        {
            "buffer" : 0,
            "byteLength" : 2976,
            "byteOffset" : 9720
        }
    ],
    "buffers" : [
        {
            "byteLength" : 12696,
            "uri" : "data:application/octet-stream;base64,"
        }
    ]
}
