{
    "asset" : {
        "generator" : "Khronos glTF Blender I/O v1.3.48",
        "version" : "2.0"
    },
    "scene" : 0,
    "scenes" : [
        {
            "name" : "Scene",
            "nodes" : [
                0
            ]
        }
    ],
    "nodes" : [
        {
            "mesh" : 0,
            "name" : "hair_person_3"
        }
    ],
    "materials" : [
        {
            "doubleSided" : true,
            "emissiveFactor" : [
                0,
                0,
                0
            ],
            "name" : "hair_grey.001",
            "pbrMetallicRoughness" : {
                "baseColorFactor" : [
                    0.3107753098011017,
                    0.24953511357307434,
                    0.21191832423210144,
                    1
                ],
                "metallicFactor" : 0,
                "roughnessFactor" : 0.5
            }
        }
    ],
    "meshes" : [
        {
            "name" : "hair_person_3",
            "primitives" : [
                {
                    "attributes" : {
                        "POSITION" : 0,
                        "NORMAL" : 1
                    },
                    "indices" : 2,
                    "material" : 0
                }
            ]
        }
    ],
    "accessors" : [
        {
            "bufferView" : 0,
            "componentType" : 5126,
            "count" : 642,
            "max" : [
                1.0053508281707764,
                2.8068430423736572,
                0.24618753790855408
            ],
            "min" : [
                -1.0072962045669556,
                0.9613771438598633,
                -1.1007559299468994
            ],
            "type" : "VEC3"
        },
        {
            "bufferView" : 1,
            "componentType" : 5126,
            "count" : 642,
            "type" : "VEC3"
        },
        {
            "bufferView" : 2,
            "componentType" : 5123,
            "count" : 2976,
            "type" : "SCALAR"
        }
    ],
    "bufferViews" : [
        {
            "buffer" : 0,
            "byteLength" : 7704,
            "byteOffset" : 0
        },
        {
            "buffer" : 0,
            "byteLength" : 7704,
            "byteOffset" : 7704
        },
        {
            "buffer" : 0,
            "byteLength" : 5952,
            "byteOffset" : 15408
        }
    ],
    "buffers" : [
        {
            "byteLength" : 21360,
            "uri" : "data:application/octet-stream;base64,"
        }
    ]
}
