{
    "asset" : {
        "generator" : "Khronos glTF Blender I/O v1.3.48",
        "version" : "2.0"
    },
    "scene" : 0,
    "scenes" : [
        {
            "name" : "Scene",
            "nodes" : [
                0
            ]
        }
    ],
    "nodes" : [
        {
            "mesh" : 0,
            "name" : "deadlocks"
        }
    ],
    "materials" : [
        {
            "doubleSided" : true,
            "emissiveFactor" : [
                0,
                0,
                0
            ],
            "name" : "hair_black.002",
            "pbrMetallicRoughness" : {
                "baseColorFactor" : [
                    0.02720111608505249,
                    0.022669028490781784,
                    0.01982937753200531,
                    1
                ],
                "metallicFactor" : 0,
                "roughnessFactor" : 0.5
            }
        },
        {
            "doubleSided" : true,
            "emissiveFactor" : [
                0,
                0,
                0
            ],
            "name" : "hair_grey.001",
            "pbrMetallicRoughness" : {
                "baseColorFactor" : [
                    0.3107753098011017,
                    0.24953511357307434,
                    0.21191832423210144,
                    1
                ],
                "metallicFactor" : 0,
                "roughnessFactor" : 0.5
            }
        },
        {
            "doubleSided" : true,
            "emissiveFactor" : [
                0,
                0,
                0
            ],
            "name" : "hair_white.001",
            "pbrMetallicRoughness" : {
                "baseColorFactor" : [
                    0.6617591381072998,
                    0.5315324068069458,
                    0.6276385188102722,
                    1
                ],
                "metallicFactor" : 0,
                "roughnessFactor" : 0.5
            }
        }
    ],
    "meshes" : [
        {
            "name" : "deadlocks",
            "primitives" : [
                {
                    "attributes" : {
                        "POSITION" : 0,
                        "NORMAL" : 1,
                        "TEXCOORD_0" : 2
                    },
                    "indices" : 3,
                    "material" : 0
                },
                {
                    "attributes" : {
                        "POSITION" : 4,
                        "NORMAL" : 5,
                        "TEXCOORD_0" : 6
                    },
                    "indices" : 7,
                    "material" : 1
                },
                {
                    "attributes" : {
                        "POSITION" : 8,
                        "NORMAL" : 9,
                        "TEXCOORD_0" : 10
                    },
                    "indices" : 11,
                    "material" : 2
                }
            ]
        }
    ],
    "accessors" : [
        {
            "bufferView" : 0,
            "componentType" : 5126,
            "count" : 15802,
            "max" : [
                1.3137543201446533,
                2.9899632930755615,
                0.8632379770278931
            ],
            "min" : [
                -1.1930038928985596,
                0.011228084564208984,
                -1.7434921264648438
            ],
            "type" : "VEC3"
        },
        {
            "bufferView" : 1,
            "componentType" : 5126,
            "count" : 15802,
            "type" : "VEC3"
        },
        {
            "bufferView" : 2,
            "componentType" : 5126,
            "count" : 15802,
            "type" : "VEC2"
        },
        {
            "bufferView" : 3,
            "componentType" : 5123,
            "count" : 73068,
            "type" : "SCALAR"
        },
        {
            "bufferView" : 4,
            "componentType" : 5126,
            "count" : 6781,
            "max" : [
                1.1738232374191284,
                2.9794678688049316,
                0.813656747341156
            ],
            "min" : [
                -1.087538242340088,
                0.011228084564208984,
                -1.6747890710830688
            ],
            "type" : "VEC3"
        },
        {
            "bufferView" : 5,
            "componentType" : 5126,
            "count" : 6781,
            "type" : "VEC3"
        },
        {
            "bufferView" : 6,
            "componentType" : 5126,
            "count" : 6781,
            "type" : "VEC2"
        },
        {
            "bufferView" : 7,
            "componentType" : 5123,
            "count" : 30912,
            "type" : "SCALAR"
        },
        {
            "bufferView" : 8,
            "componentType" : 5126,
            "count" : 1719,
            "max" : [
                -0.6489353775978088,
                2.4132885932922363,
                0.2651495933532715
            ],
            "min" : [
                -1.3137543201446533,
                0.5606313943862915,
                -1.7434921264648438
            ],
            "type" : "VEC3"
        },
        {
            "bufferView" : 9,
            "componentType" : 5126,
            "count" : 1719,
            "type" : "VEC3"
        },
        {
            "bufferView" : 10,
            "componentType" : 5126,
            "count" : 1719,
            "type" : "VEC2"
        },
        {
            "bufferView" : 11,
            "componentType" : 5123,
            "count" : 7728,
            "type" : "SCALAR"
        }
    ],
    "bufferViews" : [
        {
            "buffer" : 0,
            "byteLength" : 189624,
            "byteOffset" : 0
        },
        {
            "buffer" : 0,
            "byteLength" : 189624,
            "byteOffset" : 189624
        },
        {
            "buffer" : 0,
            "byteLength" : 126416,
            "byteOffset" : 379248
        },
        {
            "buffer" : 0,
            "byteLength" : 146136,
            "byteOffset" : 505664
        },
        {
            "buffer" : 0,
            "byteLength" : 81372,
            "byteOffset" : 651800
        },
        {
            "buffer" : 0,
            "byteLength" : 81372,
            "byteOffset" : 733172
        },
        {
            "buffer" : 0,
            "byteLength" : 54248,
            "byteOffset" : 814544
        },
        {
            "buffer" : 0,
            "byteLength" : 61824,
            "byteOffset" : 868792
        },
        {
            "buffer" : 0,
            "byteLength" : 20628,
            "byteOffset" : 930616
        },
        {
            "buffer" : 0,
            "byteLength" : 20628,
            "byteOffset" : 951244
        },
        {
            "buffer" : 0,
            "byteLength" : 13752,
            "byteOffset" : 971872
        },
        {
            "buffer" : 0,
            "byteLength" : 15456,
            "byteOffset" : 985624
        }
    ],
    "buffers" : [
        {
            "byteLength" : 1001080,
            "uri" : "data:application/octet-stream;base64,"
        }
    ]
}
