{
    "asset" : {
        "generator" : "Khronos glTF Blender I/O v1.5.17",
        "version" : "2.0"
    },
    "scene" : 0,
    "scenes" : [
        {
            "name" : "Scene",
            "nodes" : [
                0
            ]
        }
    ],
    "nodes" : [
        {
            "mesh" : 0,
            "name" : "person_hair"
        }
    ],
    "materials" : [
        {
            "doubleSided" : true,
            "name" : "hair_grey_2",
            "pbrMetallicRoughness" : {
                "baseColorFactor" : [
                    0.049523282796144485,
                    0.04074479267001152,
                    0.03528247028589249,
                    1
                ],
                "metallicFactor" : 0,
                "roughnessFactor" : 0.5
            }
        }
    ],
    "meshes" : [
        {
            "name" : "Mesh",
            "primitives" : [
                {
                    "attributes" : {
                        "POSITION" : 0,
                        "NORMAL" : 1
                    },
                    "indices" : 2,
                    "material" : 0
                }
            ]
        }
    ],
    "accessors" : [
        {
            "bufferView" : 0,
            "componentType" : 5126,
            "count" : 642,
            "max" : [
                0.9591239094734192,
                2.875142812728882,
                0.9321545362472534
            ],
            "min" : [
                -0.8608954548835754,
                1.6360459327697754,
                -1.1028896570205688
            ],
            "type" : "VEC3"
        },
        {
            "bufferView" : 1,
            "componentType" : 5126,
            "count" : 642,
            "type" : "VEC3"
        },
        {
            "bufferView" : 2,
            "componentType" : 5123,
            "count" : 2928,
            "type" : "SCALAR"
        }
    ],
    "bufferViews" : [
        {
            "buffer" : 0,
            "byteLength" : 7704,
            "byteOffset" : 0
        },
        {
            "buffer" : 0,
            "byteLength" : 7704,
            "byteOffset" : 7704
        },
        {
            "buffer" : 0,
            "byteLength" : 5856,
            "byteOffset" : 15408
        }
    ],
    "buffers" : [
        {
            "byteLength" : 21264,
            "uri" : "data:application/octet-stream;base64,"
        }
    ]
}
