{
    "asset" : {
        "generator" : "Khronos glTF Blender I/O v1.3.48",
        "version" : "2.0"
    },
    "scene" : 0,
    "scenes" : [
        {
            "name" : "Scene",
            "nodes" : [
                0
            ]
        }
    ],
    "nodes" : [
        {
            "mesh" : 0,
            "name" : "base"
        }
    ],
    "materials" : [
        {
            "doubleSided" : true,
            "emissiveFactor" : [
                0,
                0,
                0
            ],
            "name" : "skin",
            "pbrMetallicRoughness" : {
                "baseColorFactor" : [
                    0.8796226382255554,
                    0.539479672908783,
                    0.40197786688804626,
                    1
                ],
                "metallicFactor" : 0,
                "roughnessFactor" : 0.800000011920929
            }
        },
        {
            "doubleSided" : true,
            "emissiveFactor" : [
                0,
                0,
                0
            ],
            "name" : "under_g_1",
            "pbrMetallicRoughness" : {
                "baseColorFactor" : [
                    0.6038274168968201,
                    0.5209956765174866,
                    0.42869052290916443,
                    1
                ],
                "metallicFactor" : 0,
                "roughnessFactor" : 0.800000011920929
            }
        },
        {
            "doubleSided" : true,
            "emissiveFactor" : [
                0,
                0,
                0
            ],
            "name" : "under_g_2",
            "pbrMetallicRoughness" : {
                "baseColorFactor" : [
                    0.8713672757148743,
                    0.7835380434989929,
                    0.7304609417915344,
                    1
                ],
                "metallicFactor" : 0,
                "roughnessFactor" : 0.800000011920929
            }
        }
    ],
    "meshes" : [
        {
            "name" : "Cube",
            "primitives" : [
                {
                    "attributes" : {
                        "POSITION" : 0,
                        "NORMAL" : 1
                    },
                    "indices" : 2,
                    "material" : 0
                },
                {
                    "attributes" : {
                        "POSITION" : 3,
                        "NORMAL" : 4
                    },
                    "indices" : 5,
                    "material" : 1
                },
                {
                    "attributes" : {
                        "POSITION" : 6,
                        "NORMAL" : 7
                    },
                    "indices" : 8,
                    "material" : 2
                }
            ]
        }
    ],
    "accessors" : [
        {
            "bufferView" : 0,
            "componentType" : 5126,
            "count" : 1336,
            "max" : [
                0.9705889225006104,
                2.7735631465911865,
                1.0042062997817993
            ],
            "min" : [
                -0.9705889225006104,
                -0.09348561614751816,
                -1.0671755075454712
            ],
            "type" : "VEC3"
        },
        {
            "bufferView" : 1,
            "componentType" : 5126,
            "count" : 1336,
            "type" : "VEC3"
        },
        {
            "bufferView" : 2,
            "componentType" : 5123,
            "count" : 7968,
            "type" : "SCALAR"
        },
        {
            "bufferView" : 3,
            "componentType" : 5126,
            "count" : 401,
            "max" : [
                0.6617483496665955,
                0.7796280980110168,
                0.6617483496665955
            ],
            "min" : [
                -0.6617483496665955,
                -0.054015759378671646,
                -0.6617483496665955
            ],
            "type" : "VEC3"
        },
        {
            "bufferView" : 4,
            "componentType" : 5126,
            "count" : 401,
            "type" : "VEC3"
        },
        {
            "bufferView" : 5,
            "componentType" : 5123,
            "count" : 2304,
            "type" : "SCALAR"
        },
        {
            "bufferView" : 6,
            "componentType" : 5126,
            "count" : 401,
            "max" : [
                0.6639025807380676,
                -0.05401574447751045,
                0.6639025807380676
            ],
            "min" : [
                -0.6639024615287781,
                -0.6362225413322449,
                -0.6639024615287781
            ],
            "type" : "VEC3"
        },
        {
            "bufferView" : 7,
            "componentType" : 5126,
            "count" : 401,
            "type" : "VEC3"
        },
        {
            "bufferView" : 8,
            "componentType" : 5123,
            "count" : 2304,
            "type" : "SCALAR"
        }
    ],
    "bufferViews" : [
        {
            "buffer" : 0,
            "byteLength" : 16032,
            "byteOffset" : 0
        },
        {
            "buffer" : 0,
            "byteLength" : 16032,
            "byteOffset" : 16032
        },
        {
            "buffer" : 0,
            "byteLength" : 15936,
            "byteOffset" : 32064
        },
        {
            "buffer" : 0,
            "byteLength" : 4812,
            "byteOffset" : 48000
        },
        {
            "buffer" : 0,
            "byteLength" : 4812,
            "byteOffset" : 52812
        },
        {
            "buffer" : 0,
            "byteLength" : 4608,
            "byteOffset" : 57624
        },
        {
            "buffer" : 0,
            "byteLength" : 4812,
            "byteOffset" : 62232
        },
        {
            "buffer" : 0,
            "byteLength" : 4812,
            "byteOffset" : 67044
        },
        {
            "buffer" : 0,
            "byteLength" : 4608,
            "byteOffset" : 71856
        }
    ],
    "buffers" : [
        {
            "byteLength" : 76464,
            "uri" : "data:application/octet-stream;base64,"
        }
    ]
}
